<?xml version="1.0" encoding="UTF-8" standalone="no"?><!DOCTYPE svg PUBLIC "-//W3C//DTD SVG 1.1//EN" "http://www.w3.org/Graphics/SVG/1.1/DTD/svg11.dtd"><svg width="100%" height="100%" viewBox="0 0 1084 1667" version="1.1" xmlns="http://www.w3.org/2000/svg" xmlns:xlink="http://www.w3.org/1999/xlink" xml:space="preserve" xmlns:serif="http://www.serif.com/" style="fill-rule:evenodd;clip-rule:evenodd;stroke-linejoin:round;stroke-miterlimit:2;"><ellipse cx="541.667" cy="666.461" rx="428.46" ry="390.098" style="fill:#7494a3;"/><ellipse cx="382.955" cy="639.712" rx="20.499" ry="52.785" style="fill:#cba751;"/><ellipse cx="801.855" cy="639.712" rx="20.499" ry="52.785" style="fill:#cba751;"/><path d="M541.667,997.977c162.059,0 293.631,134.047 293.631,361.949c0,227.902 -131.572,254.466 -293.631,254.466c-162.06,0 -293.632,-26.564 -293.632,-254.466c0,-227.902 131.572,-361.949 293.632,-361.949Z" style="fill:#7494a3;"/><g><path d="M136.053,600.333c0,-0 -38.96,-145.745 -23.181,-216.634c17.069,-76.688 125.595,-243.491 125.595,-243.491l153.285,199.402l-255.699,260.723Z" style="fill:#7494a3;"/><path d="M947.28,600.333c-0,-0 38.96,-145.745 23.182,-216.634c-17.069,-76.688 -125.595,-243.491 -125.595,-243.491l-153.286,199.402l255.699,260.723Z" style="fill:#7494a3;"/></g><g><path d="M570.663,780.871c2.16,1.193 2.947,3.915 1.754,6.076c-1.192,2.161 -3.914,2.947 -6.075,1.755c-0,-0 -53.675,-29.702 -76.127,-35.009c-18.923,-4.473 -87.444,6.701 -87.444,6.701c-2.436,0.39 -4.732,-1.271 -5.122,-3.708c-0.391,-2.437 1.271,-4.733 3.707,-5.123c0,-0 71.248,-11.223 90.916,-6.574c23.101,5.461 78.391,35.882 78.391,35.882Zm-11.29,25.448c2.291,0.917 3.406,3.522 2.489,5.813c-0.917,2.291 -3.522,3.407 -5.813,2.489c-0,0 -42.139,-16.947 -65.018,-18.534c-19.505,-1.353 -103.903,22.029 -103.903,22.029c-2.379,0.655 -4.843,-0.746 -5.497,-3.126c-0.655,-2.379 0.746,-4.842 3.125,-5.497c0,-0 86.84,-23.719 106.894,-22.328c23.817,1.653 67.723,19.154 67.723,19.154Zm4.761,27.952c2.417,0.5 3.973,2.868 3.474,5.285c-0.5,2.417 -2.868,3.973 -5.285,3.473c0,0 -48.994,-10.233 -71.649,-6.848c-7.246,1.082 -15.825,6.451 -23.604,12.321c-12.327,9.302 -22.57,20.157 -22.57,20.157c-1.694,1.795 -4.526,1.877 -6.321,0.183c-1.795,-1.693 -1.878,-4.526 -0.184,-6.321c0,0 10.749,-11.394 23.688,-21.158c9.064,-6.839 19.227,-12.766 27.669,-14.027c23.639,-3.532 74.782,6.935 74.782,6.935Z" style="fill:#d7d7d7;"/><path d="M629.301,784.32c-2.161,1.193 -2.947,3.915 -1.755,6.076c1.192,2.161 3.915,2.947 6.076,1.755c-0,-0 53.675,-29.702 76.126,-35.009c18.923,-4.473 87.444,6.701 87.444,6.701c2.437,0.39 4.732,-1.271 5.123,-3.708c0.39,-2.437 -1.271,-4.733 -3.708,-5.123c0,-0 -71.248,-11.223 -90.916,-6.574c-23.1,5.461 -78.39,35.882 -78.39,35.882Zm11.29,25.448c-2.291,0.917 -3.407,3.522 -2.489,5.813c0.917,2.291 3.522,3.407 5.813,2.489c-0,0 42.138,-16.947 65.017,-18.534c19.506,-1.353 103.903,22.029 103.903,22.029c2.38,0.655 4.843,-0.746 5.498,-3.126c0.654,-2.379 -0.746,-4.843 -3.126,-5.497c0,-0 -86.84,-23.719 -106.894,-22.328c-23.816,1.653 -67.722,19.154 -67.722,19.154Zm-4.761,27.952c-2.417,0.5 -3.974,2.868 -3.474,5.285c0.499,2.416 2.867,3.973 5.284,3.473c0,0 48.995,-10.233 71.65,-6.848c7.246,1.082 15.824,6.451 23.604,12.321c12.327,9.302 22.57,20.157 22.57,20.157c1.693,1.795 4.526,1.877 6.321,0.183c1.795,-1.693 1.877,-4.526 0.184,-6.321c-0,0 -10.75,-11.395 -23.688,-21.158c-9.064,-6.84 -19.228,-12.766 -27.67,-14.027c-23.638,-3.532 -74.781,6.935 -74.781,6.935Z" style="fill:#d7d7d7;"/></g></svg>