<?xml version="1.0" encoding="UTF-8" standalone="no"?><!DOCTYPE svg PUBLIC "-//W3C//DTD SVG 1.1//EN" "http://www.w3.org/Graphics/SVG/1.1/DTD/svg11.dtd"><svg width="100%" height="100%" viewBox="0 0 1084 1667" version="1.1" xmlns="http://www.w3.org/2000/svg" xmlns:xlink="http://www.w3.org/1999/xlink" xml:space="preserve" xmlns:serif="http://www.serif.com/" style="fill-rule:evenodd;clip-rule:evenodd;stroke-linejoin:round;stroke-miterlimit:2;"><g><g><ellipse cx="541.875" cy="664.209" rx="428.542" ry="387.959" style="fill:#86b465;"/></g><g><path d="M541.598,1001.12c162.097,-0 293.675,133.317 293.675,359.976c0,226.658 -131.598,253.066 -293.675,253.066c-162.077,-0 -293.676,-26.427 -293.676,-253.066c0,-226.64 131.599,-359.976 293.676,-359.976Z" style="fill:#86b465;fill-rule:nonzero;"/></g><g><path d="M116.799,664.209c0,-0 -20.002,-140.289 -3.466,-180.638c17.883,-43.658 110.804,-81.27 110.804,-81.27l160.671,113.506l-268.009,148.402Z" style="fill:#86b465;fill-rule:nonzero;"/></g><g><path d="M701.14,515.807l160.671,-113.506c-0,-0 92.901,37.612 110.804,81.27c16.536,40.349 -3.466,180.638 -3.466,180.638l-268.009,-148.402Z" style="fill:#86b465;fill-rule:nonzero;"/></g><g><ellipse cx="893.993" cy="558.165" rx="37.826" ry="44.091" style="fill:#b27db6;"/></g><g><ellipse cx="210.096" cy="489.183" rx="37.826" ry="44.091" style="fill:#b27db6;"/></g><g><ellipse cx="505.356" cy="797.801" rx="19.289" ry="8.999" style="fill:#b27db6;"/></g><g><ellipse cx="578.513" cy="797.801" rx="19.289" ry="8.999" style="fill:#b27db6;"/></g><g><path d="M580.414,1088.64c18.398,119.69 -16.972,218.999 -37.885,218.999c-20.914,-0 -59.274,-99.742 -37.886,-218.999c19.686,-109.784 37.965,-229.238 37.965,-229.238c-0,0 19.329,108.997 37.826,229.238l-0.02,0Z" style="fill:#f0accd;fill-rule:nonzero;"/></g><g><path d="M753.749,420.318c0,123.983 -94.366,224.473 -210.775,224.473c-116.409,0 -210.775,-100.509 -210.775,-224.473c-0,-65.89 156.234,-280.318 210.775,-280.318c72.76,0 210.775,233.825 210.775,280.318Z" style="fill:#b6d76f;fill-rule:nonzero;"/></g></g></svg>