<?xml version="1.0" encoding="UTF-8" standalone="no"?><!DOCTYPE svg PUBLIC "-//W3C//DTD SVG 1.1//EN" "http://www.w3.org/Graphics/SVG/1.1/DTD/svg11.dtd"><svg width="100%" height="100%" viewBox="0 0 1084 1667" version="1.1" xmlns="http://www.w3.org/2000/svg" xmlns:xlink="http://www.w3.org/1999/xlink" xml:space="preserve" xmlns:serif="http://www.serif.com/" style="fill-rule:evenodd;clip-rule:evenodd;stroke-linejoin:round;stroke-miterlimit:2;"><g><path d="M542.076,240.058c236.612,-0 403.493,140.365 403.493,381.496c-0,241.131 -174.918,431.15 -403.493,436.898c-228.575,5.748 -403.494,-195.767 -403.494,-436.898c0,-241.131 166.881,-381.496 403.494,-381.496Z" style="fill:#fbbf9f;"/><ellipse cx="397.29" cy="669.852" rx="20.505" ry="52.587" style="fill:#3774ba;"/><ellipse cx="687.555" cy="669.852" rx="20.505" ry="52.587" style="fill:#3774ba;"/><path d="M542.916,1000.11c162.162,-0 293.793,133.538 293.793,360.573c-0,227.035 -131.651,253.486 -293.793,253.486c-162.141,-0 -293.792,-26.471 -293.792,-253.486c0,-227.015 131.651,-360.573 293.792,-360.573Z" style="fill:#fbbf9f;fill-rule:nonzero;"/><path d="M375.957,576.21l-144.509,-198.254c0,-0 -60.094,29.973 -83.914,87.919c-15.531,37.799 -7.517,144.739 -9.978,175.377c-20.226,51.116 -32.595,93.753 -30.698,128.688c2.197,40.483 21.164,70.622 31.259,91.621c9.062,18.828 26.7,30.577 46.851,37.809c46.048,16.525 105.224,9.474 105.224,9.474l85.765,-332.634Z" style="fill:#fbbf9f;fill-rule:nonzero;"/><path d="M709.877,577.294l144.508,-198.255c0,0 60.094,29.973 83.914,87.92c15.531,37.799 7.517,144.739 9.978,175.376c20.227,51.117 32.596,93.753 30.699,128.689c-2.197,40.482 -21.164,70.621 -31.26,91.62c-9.062,18.829 -26.7,30.578 -46.851,37.81c-46.047,16.525 -105.224,9.474 -105.224,9.474l-85.764,-332.634Z" style="fill:#fbbf9f;fill-rule:nonzero;"/><path d="M604.88,1078.24c-0,97.993 -8.163,196.204 -27.044,232.123c-6.28,11.974 -29.995,3.275 -37.246,3.275c-7.251,-0 -29.56,8.363 -35.86,-3.61c-18.861,-35.919 -24.805,-133.795 -24.805,-231.769c0,-81.661 0.634,-174.112 14.622,-216.62c8.38,-25.504 35.146,-21.105 46.043,-21.105c10.896,-0 39.386,-6.194 47.608,17.772c14.463,42.152 16.682,136.674 16.682,219.953l-0,-0.019Z" style="fill:#f7a59f;fill-rule:nonzero;"/><path d="M416.21,889.431c-2.041,75.981 17.553,77.302 -40.813,64.974c-36.989,-7.811 -80.714,-10.139 -73.958,-78.249c6.677,-67.302 10.223,-109.533 62.031,-109.533c25.915,0 -29.004,82.293 -12.025,104.72c16.978,22.427 65.657,-16.115 64.745,18.108l0.02,-0.02Z" style="fill:#fff;fill-rule:nonzero;"/><path d="M668.615,889.431c2.041,75.981 -17.554,77.302 40.813,64.974c36.989,-7.811 80.714,-10.139 73.958,-78.249c-6.677,-67.302 -10.223,-109.533 -62.032,-109.533c-25.914,0 29.005,82.293 12.026,104.72c-16.979,22.427 -65.657,-16.115 -64.745,18.108l-0.02,-0.02Z" style="fill:#fff;fill-rule:nonzero;"/><path d="M744.455,234.996c0,70.181 49.964,264.569 -202.023,264.569c-251.987,0 -202.023,-194.388 -202.023,-264.569c0,-70.182 90.085,-94.996 201.667,-94.996c111.581,0 202.359,24.814 202.359,94.996l0.02,-0Z" style="fill:#fbbf9f;fill-rule:nonzero;"/></g></svg>