<?xml version="1.0" encoding="UTF-8" standalone="no"?><!DOCTYPE svg PUBLIC "-//W3C//DTD SVG 1.1//EN" "http://www.w3.org/Graphics/SVG/1.1/DTD/svg11.dtd"><svg width="100%" height="100%" viewBox="0 0 334 334" version="1.1" xmlns="http://www.w3.org/2000/svg" xmlns:xlink="http://www.w3.org/1999/xlink" xml:space="preserve" xmlns:serif="http://www.serif.com/" style="fill-rule:evenodd;clip-rule:evenodd;stroke-linejoin:round;stroke-miterlimit:2;"><path d="M325.806,57.952l-0,217.429c-0,27.83 -22.595,50.425 -50.425,50.425l-217.429,-0c-27.83,-0 -50.424,-22.595 -50.424,-50.425l-0,-217.429c-0,-27.83 22.594,-50.424 50.424,-50.424l217.429,-0c27.83,-0 50.425,22.594 50.425,50.424Zm-20.834,0c0,-16.332 -13.259,-29.591 -29.591,-29.591l-217.429,0c-16.332,0 -29.591,13.259 -29.591,29.591l0,217.429c0,16.332 13.259,29.591 29.591,29.591l217.429,0c16.332,0 29.591,-13.259 29.591,-29.591l0,-217.429Z" style="fill:#dea81a;"/></svg>