<?xml version="1.0" encoding="UTF-8" standalone="no"?>
<!DOCTYPE svg PUBLIC "-//W3C//DTD SVG 1.1//EN" "http://www.w3.org/Graphics/SVG/1.1/DTD/svg11.dtd">
<svg width="100%" height="100%" viewBox="0 0 80 80" version="1.1" xmlns="http://www.w3.org/2000/svg" xmlns:xlink="http://www.w3.org/1999/xlink" xml:space="preserve" xmlns:serif="http://www.serif.com/" style="fill-rule:evenodd;clip-rule:evenodd;stroke-linejoin:round;stroke-miterlimit:2;">
    <g transform="matrix(0.844914,0.409911,-0.409911,0.844914,22.7371,-10.442)">
        <path d="M58.281,15.14C33.387,4.048 -4.744,34.815 3.442,57.46C7.546,70.463 14.467,73.526 21.781,69.445C40.711,70.783 90.058,44.942 75.971,25.468C75.522,16.699 70.176,12.718 58.281,15.14Z" style="fill:rgb(250,188,93);"/>
        <path d="M10.401,53.509C10.236,54.035 8.367,56.381 8.367,56.381C8.367,56.381 8.328,53.436 8.493,52.909C14.039,35.252 26.591,23.888 45.205,17.973C45.731,17.806 49.348,17.672 49.348,17.672C49.348,17.672 46.337,19.712 45.811,19.879C27.874,25.579 15.745,36.494 10.401,53.509Z" style="fill:rgb(255,230,192);"/>
        <path d="M27.317,57.621C27.019,58.086 25.011,59.575 25.011,59.575C25.011,59.575 25.336,57.006 25.634,56.541C36.38,39.788 50.621,28.743 68.924,24.339C69.461,24.21 72.536,24.855 72.536,24.855C72.536,24.855 69.929,26.154 69.392,26.284C51.595,30.566 37.766,41.331 27.317,57.621Z" style="fill:rgb(255,230,192);"/>
    </g>
</svg>
