<?xml version="1.0" encoding="UTF-8" standalone="no"?><!DOCTYPE svg PUBLIC "-//W3C//DTD SVG 1.1//EN" "http://www.w3.org/Graphics/SVG/1.1/DTD/svg11.dtd"><svg width="100%" height="100%" viewBox="0 0 1084 1667" version="1.1" xmlns="http://www.w3.org/2000/svg" xmlns:xlink="http://www.w3.org/1999/xlink" xml:space="preserve" xmlns:serif="http://www.serif.com/" style="fill-rule:evenodd;clip-rule:evenodd;stroke-linejoin:round;stroke-miterlimit:2;"><g><path d="M181.574,637.196c-8.94,-38.689 -25.55,-121.968 -15.188,-168.433c14.939,-66.992 69.241,-206.285 109.921,-212.704c30.629,-4.834 91.19,96.364 119.244,146.662c44.833,-17.784 94.235,-27.637 146.116,-27.637c51.881,-0 101.282,9.853 146.115,27.637c28.055,-50.298 88.616,-151.496 119.245,-146.662c40.68,6.419 94.982,145.712 109.921,212.704c10.361,46.464 -6.248,129.742 -15.188,168.431c6.478,25.229 9.907,51.538 9.907,78.578c0,188.032 -165.791,340.689 -370,340.689c-204.209,0 -370,-152.657 -370,-340.689c-0,-27.04 3.429,-53.348 9.907,-78.576Z" style="fill:#3a3146;"/><path d="M541.667,997.977c162.059,0 293.631,134.047 293.631,361.949c0,227.902 -131.572,254.466 -293.631,254.466c-162.06,0 -293.632,-26.564 -293.632,-254.466c0,-227.902 131.572,-361.949 293.632,-361.949Z" style="fill:#3a3146;"/><path d="M360.664,1258.39c-6.7,18.225 -25.092,27.188 -42.676,20.109c-18.721,-7.536 -29.483,-30.42 -24.016,-51.071l6.488,-16.301l9.83,-13.503l12.638,-10.142l14.91,-6.218c58.694,-15.04 120.252,27.318 137.495,94.608c24.415,95.279 -23.164,189.78 -106.27,211.075c-107.518,27.551 -220.284,-50.042 -251.87,-173.308c-37.211,-145.219 35.306,-289.254 161.972,-321.711c18.712,-4.795 38.367,8.73 43.865,30.183c5.497,21.454 -5.232,42.764 -23.945,47.559c-89.215,22.861 -140.292,124.31 -114.083,226.593c20.585,80.331 94.073,130.897 164.14,112.943c45.656,-11.699 71.794,-63.615 58.382,-115.958c-5.957,-23.247 -26.527,-38.272 -46.86,-34.858Z" style="fill:#3a3146;"/></g><ellipse cx="396.868" cy="669.852" rx="20.505" ry="52.5" style="fill:#f2af0d;"/><ellipse cx="687.132" cy="669.852" rx="20.505" ry="52.587" style="fill:#f2af0d;"/><path d="M428.889,841.183c-9.773,-0.589 -70.949,-3.929 -103.168,2.709c-29.909,6.162 -156.884,71.175 -158.686,68.399c-1.803,-2.773 125.816,-73.711 156.567,-80.046c31.444,-6.477 89.388,-3.972 104.893,-3.15c-0.015,0.767 -0.023,1.535 -0.023,2.306c0,3.295 0.141,6.558 0.417,9.782Zm3.132,-38.031c-19.351,-3.3 -91.281,-15.066 -122.042,-13.082c-30.098,1.941 -137.295,44.222 -138.718,41.267c-1.424,-2.955 107.562,-51.2 138.845,-53.218c31.658,-2.041 105.73,9.92 125.629,13.27c-1.443,3.827 -2.686,7.752 -3.714,11.763Zm217.769,-7.457c21.904,-3.66 93.206,-15.007 124.103,-13.015c31.284,2.018 140.269,50.263 138.847,53.218c-1.425,2.955 -108.622,-39.327 -138.72,-41.268c-30.237,-1.949 -100.258,9.387 -121.009,12.907c-0.864,-4.03 -1.942,-7.982 -3.221,-11.842Zm5.716,37.961c15.505,-0.821 73.449,-3.327 104.891,3.15c30.751,6.335 158.37,77.272 156.569,80.047c-1.804,2.775 -128.778,-62.238 -158.688,-68.4c-32.813,-6.76 -95.657,-3.172 -103.653,-2.679c0.503,-3.979 0.801,-8.022 0.881,-12.118Zm-6.413,35.486c24.765,2.794 75.543,9.505 101.024,19.906c12.313,5.026 25.629,16.707 36.971,29.111c16.19,17.704 26.078,44.608 26.078,44.608c-0,-0 -21.228,-20.8 -36.654,-37.668c-9.736,-10.646 -20.848,-20.974 -31.417,-25.287c-25.843,-10.549 -78.862,-16.975 -100.739,-19.275c1.778,-3.692 3.361,-7.495 4.737,-11.395Zm-211.431,7.045c-22.949,2.465 -73.663,8.821 -98.757,19.064c-10.568,4.313 -21.682,14.642 -31.416,25.286c-15.426,16.869 -36.654,37.669 -36.654,37.669c-0,-0 9.886,-26.903 26.078,-44.609c11.342,-12.402 24.656,-24.084 36.969,-29.11c24.994,-10.202 74.325,-16.854 99.574,-19.742c1.201,3.908 2.607,7.726 4.206,11.442Z" style="fill:#d7d7d7;"/><path d="M542,1053.73c11.857,-7.896 35.572,-7.896 47.43,-2.416c11.858,5.48 11.858,16.44 -0,27.4c-8.3,8.22 -29.644,16.44 -47.43,21.92c-17.786,-5.48 -39.13,-13.7 -47.43,-21.92c-11.858,-10.96 -11.858,-21.92 -0,-27.4c11.857,-5.48 35.572,-5.48 47.43,2.416Z" style="fill:#d7d7d7;"/></svg>