<?xml version="1.0" encoding="UTF-8" standalone="no"?><!DOCTYPE svg PUBLIC "-//W3C//DTD SVG 1.1//EN" "http://www.w3.org/Graphics/SVG/1.1/DTD/svg11.dtd"><svg width="100%" height="100%" viewBox="0 0 1084 1667" version="1.1" xmlns="http://www.w3.org/2000/svg" xmlns:xlink="http://www.w3.org/1999/xlink" xml:space="preserve" xmlns:serif="http://www.serif.com/" style="fill-rule:evenodd;clip-rule:evenodd;stroke-linejoin:round;stroke-miterlimit:2;"><g><path d="M541.225,281.128c273.005,0 494.65,176.458 494.65,393.805c0,217.347 -221.645,356.805 -494.65,356.805c-273.006,0 -494.651,-139.458 -494.651,-356.805c-0,-217.347 221.645,-393.805 494.651,-393.805Z" style="fill:#6ec37a;"/><path d="M541.598,1001.12c162.097,0 293.675,133.317 293.675,359.976c0,226.658 -131.598,253.066 -293.675,253.066c-162.077,0 -293.676,-26.427 -293.676,-253.066c0,-226.64 131.599,-359.976 293.676,-359.976Z" style="fill:#6ec37a;fill-rule:nonzero;"/><path d="M50.574,728.936c0,-0 -23.087,-161.931 -4,-208.505c20.641,-50.392 127.897,-93.807 127.897,-93.807l185.457,131.016l-309.354,171.296Z" style="fill:#6ec37a;fill-rule:nonzero;"/><path d="M725.059,557.64l185.456,-131.016c0,0 107.233,43.415 127.898,93.807c19.086,46.574 -4.001,208.505 -4.001,208.505l-309.353,-171.296Z" style="fill:#6ec37a;fill-rule:nonzero;"/><circle cx="1012.77" cy="581.172" r="40.399" style="fill:#902ad4;"/><circle cx="99.351" cy="495.549" r="40.399" style="fill:#902ad4;"/><path d="M785.783,447.421c0,143.109 -108.923,259.101 -243.29,259.101c-134.367,0 -243.29,-116.014 -243.29,-259.101c-0,-76.055 180.335,-323.561 243.29,-323.561c83.984,-0 243.29,269.896 243.29,323.561Z" style="fill:#b6d76f;fill-rule:nonzero;"/><path d="M540.014,932.759c-7.011,-4.814 -8.794,-14.413 -3.98,-21.423c4.813,-7.011 14.413,-8.794 21.423,-3.98c0,-0 107.85,73.769 40.832,190.887c-31.063,54.285 -50.889,134.266 -45.105,204.677c3.683,44.832 17.656,85.851 47.173,112.583c65.525,59.34 163.515,65.087 235.528,13.814c61.306,-43.649 89.55,-126.728 54.492,-193.321c-25.622,-48.67 -85.417,-87.974 -146.199,-78.152c-48.345,7.813 -83.447,50.417 -84.904,99.367c-1.065,35.812 22.727,68.411 57.684,76.264c18.53,4.162 19.308,-25.494 13.225,-43.441c-56.309,-166.144 126.116,-81.378 69.356,31.862c-16.65,33.218 -54.043,50.513 -90.083,41.467c-48.787,-12.245 -82.48,-56.79 -80.984,-107.069c1.888,-63.415 47.65,-116.973 109.995,-128.731c75.26,-14.194 150.257,25.896 180.262,96.36c35.155,82.557 8.124,178.454 -64.971,230.497c-83.802,59.667 -197.834,52.978 -274.086,-16.076c-34.988,-31.685 -52.835,-79.761 -57.2,-132.901c-6.289,-76.546 15.301,-163.49 49.07,-222.504c52.684,-92.069 -31.528,-150.18 -31.528,-150.18Z" style="fill:#e477ac;"/></g></svg>