<?xml version="1.0" encoding="UTF-8" standalone="no"?><!DOCTYPE svg PUBLIC "-//W3C//DTD SVG 1.1//EN" "http://www.w3.org/Graphics/SVG/1.1/DTD/svg11.dtd"><svg width="100%" height="100%" viewBox="0 0 1084 1667" version="1.1" xmlns="http://www.w3.org/2000/svg" xmlns:xlink="http://www.w3.org/1999/xlink" xml:space="preserve" xmlns:serif="http://www.serif.com/" style="fill-rule:evenodd;clip-rule:evenodd;stroke-linejoin:round;stroke-miterlimit:2;"><g><path d="M542.001,240.058c276.341,0 471.244,140.365 471.244,381.496c-0,241.131 -204.289,431.15 -471.244,436.898c-266.956,5.748 -471.246,-195.767 -471.246,-436.898c0,-241.131 194.903,-381.496 471.246,-381.496Z" style="fill:#fbbf9f;"/><path d="M542.84,836.633c239.024,-0 433.045,169.089 433.045,456.566c-0,287.477 -194.051,320.97 -433.045,320.97c-238.992,-0 -433.043,-33.518 -433.043,-320.97c0,-287.452 194.051,-456.566 433.043,-456.566Z" style="fill:#fbbf9f;fill-rule:nonzero;"/></g><g><g><path d="M319.006,576.21l-168.774,-198.254c-0,0 -70.185,29.973 -98.004,87.919c-18.139,37.799 -8.779,144.739 -11.654,175.377c-23.622,51.116 -38.068,93.753 -35.852,128.688c2.566,40.483 24.717,70.622 36.508,91.621c10.583,18.828 31.183,30.577 54.717,37.809c53.78,16.525 122.893,9.474 122.893,9.474l100.166,-332.634Z" style="fill:#fbbf9f;fill-rule:nonzero;"/><path d="M764.994,577.294l168.773,-198.255c-0,0 70.184,29.973 98.004,87.92c18.139,37.799 8.779,144.739 11.654,175.376c23.623,51.117 38.069,93.753 35.853,128.689c-2.566,40.482 -24.717,70.621 -36.509,91.62c-10.583,18.829 -31.183,30.578 -54.717,37.81c-53.779,16.525 -122.893,9.474 -122.893,9.474l-100.165,-332.634Z" style="fill:#fbbf9f;fill-rule:nonzero;"/></g><path d="M604.478,1078.24c-0.001,97.993 -8.164,196.204 -27.045,232.123c-6.28,11.974 -29.995,3.275 -37.246,3.275c-7.251,0 -29.56,8.363 -35.86,-3.61c-18.861,-35.919 -24.805,-133.795 -24.805,-231.769c0,-81.661 0.634,-174.112 14.622,-216.62c8.38,-25.504 35.146,-21.105 46.043,-21.105c10.896,0 39.386,-6.194 47.608,17.772c14.463,42.152 16.682,136.674 16.682,219.953l0,-0.019Z" style="fill:#f7a59f;fill-rule:nonzero;"/><g><path d="M415.797,889.431c-2.041,75.981 17.553,77.302 -40.813,64.974c-36.989,-7.811 -80.714,-10.139 -73.958,-78.249c6.677,-67.302 10.223,-109.533 62.031,-109.533c25.915,0 -29.004,82.293 -12.025,104.72c16.978,22.427 65.657,-16.115 64.745,18.108l0.02,-0.02Z" style="fill:#fff;fill-rule:nonzero;"/><path d="M668.203,889.431c2.041,75.981 -17.554,77.302 40.813,64.974c36.989,-7.811 80.714,-10.139 73.957,-78.249c-6.677,-67.302 -10.222,-109.533 -62.032,-109.533c-25.914,0 29.005,82.293 12.026,104.72c-16.979,22.427 -65.657,-16.115 -64.745,18.108l-0.019,-0.02Z" style="fill:#fff;fill-rule:nonzero;"/></g><path d="M775.406,224.996c-0,70.181 57.845,264.569 -233.891,264.569c-291.736,0 -233.891,-194.388 -233.891,-264.569c0,-70.182 104.295,-94.996 233.479,-94.996c129.182,0 234.28,24.814 234.28,94.996l0.023,0Z" style="fill:#fbbf9f;fill-rule:nonzero;"/><g><ellipse cx="396.868" cy="669.852" rx="20.505" ry="52.587" style="fill:#3774ba;"/><ellipse cx="687.132" cy="669.852" rx="20.505" ry="52.587" style="fill:#3774ba;"/></g></g></svg>