<?xml version="1.0" encoding="UTF-8" standalone="no"?><!DOCTYPE svg PUBLIC "-//W3C//DTD SVG 1.1//EN" "http://www.w3.org/Graphics/SVG/1.1/DTD/svg11.dtd"><svg width="100%" height="100%" viewBox="0 0 1084 1667" version="1.1" xmlns="http://www.w3.org/2000/svg" xmlns:xlink="http://www.w3.org/1999/xlink" xml:space="preserve" xmlns:serif="http://www.serif.com/" style="fill-rule:evenodd;clip-rule:evenodd;stroke-linejoin:round;stroke-miterlimit:2;"><g><path d="M542.001,240.058c236.611,0 403.492,140.365 403.492,381.496c0,241.131 -174.918,431.15 -403.492,436.898c-228.575,5.748 -403.495,-195.767 -403.495,-436.898c0,-241.131 166.881,-381.496 403.495,-381.496Z" style="fill:#95b800;"/><path d="M542.841,1000.11c162.162,0 293.793,133.538 293.793,360.573c-0,227.035 -131.652,253.486 -293.794,253.486c-162.14,-0 -293.792,-26.471 -293.792,-253.486c0.001,-227.015 131.652,-360.573 293.793,-360.573Z" style="fill:#95b800;fill-rule:nonzero;"/></g><path d="M542,1614.17c-161.755,-0.092 -292.951,-26.863 -292.951,-253.486c-0,-157.878 63.673,-270.555 156.994,-324.543c-158.451,-58.447 -267.537,-224.164 -267.537,-414.586c0,-241.131 166.881,-381.496 403.494,-381.496l0,1374.11Z" style="fill:#468480;"/><g><g><ellipse cx="396.868" cy="669.852" rx="20.505" ry="52.587" style="fill:#95b800;"/><ellipse cx="687.132" cy="669.852" rx="20.505" ry="52.587" style="fill:#52777e;"/></g></g></svg>