<?xml version="1.0" encoding="UTF-8" standalone="no"?><!DOCTYPE svg PUBLIC "-//W3C//DTD SVG 1.1//EN" "http://www.w3.org/Graphics/SVG/1.1/DTD/svg11.dtd"><svg width="100%" height="100%" viewBox="0 0 1084 1667" version="1.1" xmlns="http://www.w3.org/2000/svg" xmlns:xlink="http://www.w3.org/1999/xlink" xml:space="preserve" xmlns:serif="http://www.serif.com/" style="fill-rule:evenodd;clip-rule:evenodd;stroke-linejoin:round;stroke-miterlimit:2;"><path d="M906.037,955.569c-62.967,44.837 -144.435,76.369 -236.981,83.43c-40.249,11.412 -83.037,17.561 -127.389,17.561c-236.474,0 -428.46,-174.797 -428.46,-390.099c0,-215.301 191.986,-390.098 428.46,-390.098c236.473,0 428.459,174.797 428.459,390.098l0,0.341l62.959,7.73c13.261,41.79 10.715,86.228 -4.906,129.205l-468.355,43.218l346.213,108.614Z" style="fill:#625f5c;"/><path d="M542.001,997.977c162.058,0 293.631,134.047 293.631,361.949c-0.001,227.902 -131.573,254.466 -293.632,254.466c-162.06,0 -293.632,-26.564 -293.632,-254.466c0,-227.902 131.573,-361.949 293.633,-361.949Z" style="fill:#625f5c;"/><path d="M556.389,401.735l-39.64,-35.339l-14.55,20.061l-90.219,-80.229c3.348,-45.991 44.602,-94.457 69.05,-141.109l23.073,28.213l36.819,-87.437l44.759,77.693l30.603,-20.666c27.488,46.37 68.393,97.61 69.316,146.683l-86.557,73.918l-11.661,-16.976l-30.993,35.188Z" style="fill:#30261c;"/><g><path d="M336.202,332.392c-151.668,-429.62 -319.097,-362.493 -231.048,-22.137c-12.136,18.511 -12.054,38.163 4.792,59.381c-0.606,41.631 9.235,62.6 34.218,53.621c36.06,25.235 54.748,45.667 70.733,65.351l101.324,-34.384l19.981,-121.832Z" style="fill:#625f5c;"/><path d="M747.131,332.392c151.669,-429.62 319.098,-362.493 231.048,-22.137c12.136,18.511 12.054,38.163 -4.792,59.381c0.607,41.631 -9.234,62.6 -34.218,53.621c-36.06,25.235 -54.748,45.667 -70.733,65.351l-101.323,-34.384l-19.982,-121.832Z" style="fill:#625f5c;"/></g><path d="M593.563,857.866c6.905,61.58 -49.705,35.226 -61.915,87.178c-10.734,45.67 147.21,118.339 138.782,-62.764c-16.331,-28.803 -42.282,-36.21 -76.867,-24.414Z" style="fill:#ceaaba;"/><g><ellipse cx="396.868" cy="669.852" rx="20.505" ry="52.587" style="fill:#74be92;"/><ellipse cx="687.132" cy="669.852" rx="20.505" ry="52.587" style="fill:#74be92;"/></g></svg>