<?xml version="1.0" encoding="UTF-8" standalone="no"?><!DOCTYPE svg PUBLIC "-//W3C//DTD SVG 1.1//EN" "http://www.w3.org/Graphics/SVG/1.1/DTD/svg11.dtd"><svg width="100%" height="100%" viewBox="0 0 1084 1667" version="1.1" xmlns="http://www.w3.org/2000/svg" xmlns:xlink="http://www.w3.org/1999/xlink" xml:space="preserve" xmlns:serif="http://www.serif.com/" style="fill-rule:evenodd;clip-rule:evenodd;stroke-linejoin:round;stroke-miterlimit:2;"><path d="M541.667,997.977c162.059,0 293.631,134.047 293.631,361.949c0,227.902 -131.572,254.466 -293.631,254.466c-162.06,0 -293.632,-26.564 -293.632,-254.466c0,-227.902 131.572,-361.949 293.632,-361.949Z" style="fill:#cfafa9;"/><path d="M920.307,483.843c31.799,54.496 49.819,116.656 49.819,182.618c0,215.302 -191.986,390.099 -428.459,390.099c-236.474,-0 -428.46,-174.797 -428.46,-390.099c0,-97.776 39.596,-187.199 104.972,-255.691l0.781,-206.07l129.063,113.742c58.172,-26.908 123.977,-42.079 193.644,-42.079c83.863,-0 162.132,21.984 228.226,59.964l149.356,-131.627l1.058,279.143Z" style="fill:#cfafa9;"/><ellipse cx="639.052" cy="821.297" rx="193.254" ry="145.437" style="fill:#d28677;"/><path d="M709.886,751.581c20.341,-0 36.855,30.845 36.855,68.838c-0,37.993 -16.514,68.838 -36.855,68.838c-20.341,-0 -36.855,-30.845 -36.855,-68.838c-0,-37.993 16.514,-68.838 36.855,-68.838Zm-141.667,-0c20.341,-0 36.855,30.845 36.855,68.838c0,37.993 -16.514,68.838 -36.855,68.838c-20.341,-0 -36.855,-30.845 -36.855,-68.838c-0,-37.993 16.514,-68.838 36.855,-68.838Z" style="fill:#644545;"/><ellipse cx="382.955" cy="639.712" rx="20.499" ry="52.785" style="fill:#644545;"/><ellipse cx="801.855" cy="639.712" rx="20.499" ry="52.785" style="fill:#644545;"/><path d="M248.564,1335.17c0.692,-16.049 2.06,-31.594 4.063,-46.622l85.765,9.42l-1.975,-207.178c8.948,-10.185 18.452,-19.577 28.454,-28.155c-0.481,21.626 1.179,55.76 12.552,90.804c16.421,50.599 36.971,58.433 36.971,58.433l298.474,-26.984c0,-0 9.999,-25.835 11.971,-64.289c0.969,-18.892 0.767,-37.058 0.163,-52.175c16.713,15.271 31.933,32.906 45.37,52.791l7.702,149.758l47.716,-12.157c3.597,18.111 6.219,37.067 7.788,56.838l-52.646,20.46l12.91,152.338c-0,0 -71.054,83.243 -205.098,84.004c-157.714,0.896 -235.511,-75.829 -235.511,-75.829l-9.534,-129.495l-95.135,-31.962Z" style="fill:#7494a3;"/><path d="M462.532,1270.69c22.123,-25.166 66.265,-35.534 112.936,-35.534c16.864,-0 32.447,1.353 46.312,4.27l3.439,-11.057l9.785,14.486c8.003,2.51 15.263,5.671 21.671,9.535l7.305,-13.736l10.969,29.569c8.697,11.039 13.486,25.131 13.486,42.696c0,0.741 -0.01,1.481 -0.029,2.219c13.289,-0.896 16.244,-4.513 20.304,7.821c10.076,30.604 -27.448,70.016 -53.96,58.782c-21.896,18.738 -52.637,30.402 -86.656,30.402c-66.419,0 -120.342,-44.461 -120.342,-99.224c0,-13.563 3.76,-25.055 10.426,-34.669c-0.498,-3.569 -1.52,-9.402 -3.093,-11.454c-2.329,-3.039 -8.842,-0.02 -10.524,-3.871c-1.832,-4.193 -0.467,-21.286 -0.467,-21.286c-0,0 1.286,13.543 3.82,16.788c2.534,3.245 8.821,-0.736 11.383,2.682c1.43,1.908 2.534,7.221 3.235,11.581Zm227.803,58.061c-2.036,0 -3.689,4.645 -3.689,10.365c0,5.721 1.653,10.365 3.689,10.365c2.036,0 3.688,-4.644 3.688,-10.365c0,-5.72 -1.652,-10.365 -3.688,-10.365Zm11.712,-0.062c-2.036,0 -3.688,4.645 -3.688,10.365c-0,5.721 1.652,10.365 3.688,10.365c2.036,0 3.689,-4.644 3.689,-10.365c-0,-5.72 -1.653,-10.365 -3.689,-10.365Zm-58.815,-48.564c-3.814,-0 -6.911,7.461 -6.911,16.65c0,9.19 3.097,16.651 6.911,16.651c3.815,-0 6.911,-7.461 6.911,-16.651c0,-9.189 -3.096,-16.65 -6.911,-16.65Zm33.038,-0.934c-3.814,0 -6.911,7.461 -6.911,16.651c0,9.189 3.097,16.65 6.911,16.65c3.815,0 6.911,-7.461 6.911,-16.65c0,-9.19 -3.096,-16.651 -6.911,-16.651Z" style="fill:#d7d7d7;"/></svg>