<?xml version="1.0" encoding="UTF-8" standalone="no"?><!DOCTYPE svg PUBLIC "-//W3C//DTD SVG 1.1//EN" "http://www.w3.org/Graphics/SVG/1.1/DTD/svg11.dtd"><svg width="100%" height="100%" viewBox="0 0 800 800" version="1.1" xmlns="http://www.w3.org/2000/svg" xmlns:xlink="http://www.w3.org/1999/xlink" xml:space="preserve" xmlns:serif="http://www.serif.com/" style="fill-rule:evenodd;clip-rule:evenodd;stroke-linejoin:round;stroke-miterlimit:2;"><g transform="matrix(12.8693,0,0,12.8693,-3430.47,-5017.33)"><g><path d="M307,418.7C308.3,427.9 300.7,430.1 293.5,428.1C285.8,425.9 280,420.6 280,411.3C280,402 287,391 293.5,394.5C300,398 296.4,402.8 297.5,408.1C298.6,413.4 306.3,414.1 307,418.8L307,418.7Z" style="fill:rgb(50,42,0);fill-rule:nonzero;"/><g transform="matrix(0.135716,-0.990748,0.990748,0.135716,-157.8,632.1)"><ellipse cx="283.4" cy="406.5" rx="1.7" ry="0.9" style="fill:rgb(255,239,230);"/></g></g><g><path d="M296.3,434.1C301.2,442.1 295.1,447 287.6,447.9C280.1,448.8 272.1,446.2 268.4,437.6C264.7,429.1 266.6,416.2 274,416.9C281.4,417.6 280,423.4 283.2,427.9C286.4,432.4 293.7,430 296.2,434.1L296.3,434.1Z" style="fill:rgb(50,42,0);fill-rule:nonzero;"/><g transform="matrix(0.959314,-0.282341,0.282341,0.959314,-110.8,93.5)"><ellipse cx="269.7" cy="431.9" rx="0.9" ry="1.7" style="fill:rgb(255,239,230);"/></g></g><g><path d="M309.7,411.7C315.5,404.3 322.4,408 326,414.4C329.9,421.2 330.1,429.1 323.4,435.6C316.7,442.2 303.8,445.2 301.7,438.2C299.6,431.2 305.6,430.3 308.7,425.8C310.4,423.3 306.8,415.5 309.7,411.7Z" style="fill:rgb(50,42,0);fill-rule:nonzero;"/><g transform="matrix(0.803857,-0.594823,0.594823,0.803857,-197.3,274.1)"><ellipse cx="317.5" cy="436.6" rx="1.7" ry="0.9" style="fill:rgb(255,239,230);"/></g></g></g></svg>