<?xml version="1.0" encoding="UTF-8" standalone="no"?><!DOCTYPE svg PUBLIC "-//W3C//DTD SVG 1.1//EN" "http://www.w3.org/Graphics/SVG/1.1/DTD/svg11.dtd"><svg width="100%" height="100%" viewBox="0 0 1920 1080" version="1.1" xmlns="http://www.w3.org/2000/svg" xmlns:xlink="http://www.w3.org/1999/xlink" xml:space="preserve" xmlns:serif="http://www.serif.com/" style="fill-rule:evenodd;clip-rule:evenodd;stroke-linejoin:round;stroke-miterlimit:2;"><rect x="-0" y="0" width="1920" height="1080" style="fill:#585f7e;"/><g><g><path d="M303.936,773.058c109.192,-68.601 264.326,-45.843 383.908,123.257c63.739,90.134 60.621,141.218 51.718,169.009c-14.987,46.783 -63.561,77.274 -126.578,111.702c-109.068,59.587 -221.652,110.453 -338.577,-34.602c-115.619,-143.432 -86.17,-296.678 29.529,-369.366Z" style="fill:#cfafa9;"/><path d="M262.181,1126.49c-6.357,-8.716 -13.576,-19.359 -20.717,-31.57c18.223,-9.798 40.832,-21.856 65.293,-34.63c-34.199,-42.303 -69.094,-86.495 -103.912,-132.391c1.393,-10.867 3.612,-21.537 6.514,-31.66c10.951,15.635 28.569,36.341 52.947,53.119c33.939,23.357 52.784,21.113 54.93,20.602c63.837,-49.915 129.195,-98.893 197.907,-146.91c-0.491,-1.927 -6.296,-22.621 -22.421,-47.833c-7.67,-11.993 -16.175,-23.9 -24.626,-34.913c18.635,3.149 37.939,8.627 57.481,16.81c26.006,33.163 52.274,66.246 77.883,98.409c9.226,-8.739 18.708,-17.64 27.882,-26.176c13.24,12.99 24.437,25.692 33.378,36.586c-8.874,10.797 -18.012,22.01 -27.026,33.166c28.019,33.056 56.937,67.3 85.817,101.992c-0.606,6.992 -6.636,42.836 -35.382,78.014c-10.24,12.531 -29.335,32.959 -64.234,51.959c-100.113,54.507 -188.277,50.951 -204.742,48.605c-23.736,-24.968 -48.602,-51.226 -73.512,-77.835c-29.905,8.532 -58.508,17.067 -83.46,24.656Z" style="fill:#7494a3;"/><path d="M380.542,986.021c2.925,-25.709 28.308,-52.101 61.948,-72.49c9.283,-5.626 21.518,-12.204 34.837,-16.796c-1.01,-2.908 -2.021,-5.815 -3.032,-8.722c4.692,1.825 9.384,3.649 14.076,5.474c4.621,-1.115 11.893,-2.547 20.036,-2.622c-0.54,-4.033 -1.08,-8.066 -1.62,-12.099c7.459,5.066 14.918,10.133 22.377,15.2c14.242,4.718 24.057,14.151 30.763,23.151c0.089,0.119 0.546,0.732 1.088,1.499c4.766,-3.112 7.476,-5.95 10.055,-6.269c2.071,-0.256 4.314,0.731 8.163,3.608c22.194,16.587 16.074,57.598 -8.378,60.46c-5.843,20.959 -21.324,40.823 -45.346,54.823c-45.99,26.802 -107.31,22.645 -135.122,-12.716c-4.888,-6.215 -9.957,-15.244 -10.124,-26.971c-0.372,-0.36 -5.341,-5.246 -7.927,-5.99c-3.112,-0.896 -6.287,3.94 -9.359,2.244c-2.992,-1.651 -9.371,-11.033 -10.971,-13.492c1.611,1.711 8.083,8.252 11.083,9.085c3.356,0.932 5.904,-4.429 9.369,-3.391c2.483,0.744 7.507,5.478 8.084,6.014Zm189.643,-57.685c-1.38,0.764 -0.352,4.448 2.601,8.399c2.934,3.926 6.418,6.3 7.804,5.538c1.383,-0.761 0.331,-4.458 -2.611,-8.403c-2.94,-3.943 -6.407,-6.302 -7.794,-5.534Zm8.219,-4.594c-1.381,0.759 -0.355,4.445 2.596,8.408c2.931,3.937 6.412,6.326 7.799,5.57c1.383,-0.755 0.333,-4.456 -2.606,-8.413c-2.937,-3.955 -6.403,-6.327 -7.789,-5.565Zm-65.72,-9.003c-2.619,1.516 -1.254,7.637 3.434,13.845c4.646,6.151 10.573,9.74 13.207,8.229c2.626,-1.506 1.202,-7.649 -3.461,-13.846c-4.656,-6.188 -10.543,-9.755 -13.18,-8.228Zm22.856,-13.995c-2.619,1.488 -1.268,7.615 3.411,13.868c4.633,6.193 10.552,9.842 13.187,8.361c2.627,-1.477 1.213,-7.631 -3.436,-13.871c-4.646,-6.234 -10.524,-9.857 -13.162,-8.358Z" style="fill:#d7d7d7;"/><path d="M544.78,329.338c36.397,37.439 61.415,83.25 73.65,133.792c21.931,90.598 1.027,189.426 -68.815,268.994c-49.486,56.38 -118.107,96.885 -193.19,119.472c-68.74,20.678 -140.172,25.522 -205.831,12.782c-119.289,-23.147 -205.173,-101.381 -232.699,-208.711c-19.908,-77.625 -6.633,-160.305 34.5,-232.142c-10.879,-54.128 -21.235,-111.882 -30.513,-172.967c41.427,25.443 81.642,48.537 119.693,69.407c43.424,-34.762 95.344,-60.814 152.953,-75.512c68.938,-17.588 138.413,-16.969 200.646,-0.529c37.13,-46.141 75.404,-91.717 115.119,-137.029c8.416,76.652 20.2,150.742 34.487,222.443Z" style="fill:#cfafa9;"/><path d="M344.377,538.993c88.191,-24.34 173.158,8.38 191.504,70.286c18.187,61.37 -35.962,127.197 -123.539,151.661c-87.481,24.437 -174.339,-2.026 -193.379,-63.969c-18.893,-61.47 36.9,-133.548 125.414,-157.978Z" style="fill:#d28677;"/><path d="M419.077,581.395c16.778,-4.463 37.152,15.658 45.935,44.728c8.741,28.93 2.741,55.946 -13.994,60.369c-16.638,4.397 -37.792,-15.227 -46.667,-44.264c-8.906,-29.136 -1.982,-56.388 14.726,-60.833Zm-116.43,32.343c16.629,-4.795 37.05,15.059 45.967,44.052c8.912,28.977 3.004,56.244 -13.59,61.107c-16.554,4.85 -37.665,-14.443 -46.646,-43.584c-8.978,-29.133 -2.339,-56.786 14.269,-61.575Z" style="fill:#644545;"/><path d="M132.492,589.026c16.252,-4.826 13.544,-48.021 19.585,-25.164c6.113,23.127 -7.621,33.899 -16.501,36.548c-9.243,2.758 -25.986,0.64 -32.006,-22.25c-6.034,-22.939 12.562,15.725 28.922,10.866Z" style="fill:#644545;"/><path d="M476.38,493.203c16.765,-4.197 15.035,-46.536 20.669,-23.95c5.68,22.773 -8.516,32.853 -17.752,35.162c-9.553,2.389 -26.688,-0.235 -32.375,-22.598c-5.718,-22.483 12.614,15.603 29.458,11.386Z" style="fill:#644545;"/></g></g><path d="M937.847,296.533c-4.306,6.745 -13.279,8.725 -20.024,4.419c-6.745,-4.307 -8.725,-13.28 -4.419,-20.025l150.9,-236.349c2.157,-3.379 5.617,-5.714 9.558,-6.45c3.941,-0.736 8.011,0.192 11.243,2.565l288.574,211.833c6.452,4.735 7.844,13.818 3.109,20.269c-4.736,6.451 -13.818,7.844 -20.269,3.108l-276.1,-202.676l-142.572,223.306Z"/><path d="M889.258,274.919l516.938,-28.358l28.283,175.914l-518.161,72.686l-27.06,-220.242Z" style="fill:#94a297;"/><g><g><path d="M986.419,455.289l-0.714,-1.49l-0.823,-1.467l-0.807,-0.998l-0.916,-0.973l-0.091,0.497l-0.242,0.373l-0.396,0.648l-0.439,0.499l-0.43,0.734l-0.387,0.884l-1.473,-1.081l-0.278,0.859l-0.43,0.736l-0.175,0.2l-0.37,-0.072l-1.36,-0.473l-1.209,-0.351l-0.488,-0.68l-0.53,-0.831l-0.872,-0.591l-0.309,0.55l-0.285,0.226l-0.176,0.201l-0.067,0.175l-0.438,0.102l-0.153,-0.123l-1.078,-1.102l-1.147,-0.929l-0.419,0.577l-0.419,0.577l-1.098,0.257l-1.318,-0.091l-1.251,-0.267l-1.077,-0.468l-0.967,-0.495l-0.362,-0.637l-0.46,-1.175l-0.483,-1.252l-0.274,-0.739l-1.675,-1.702l-1.745,-1.529l-0.278,0.466l-0.166,0.441l-0.134,1.158l-0.201,1.334l-0.066,0.176l-0.443,0.102l-0.155,-0.125l-0.996,-0.575l-0.997,-0.575l-0.976,-0.098l-0.91,-0.274l-0.855,-1.498l-0.924,-2.132l-0.29,-0.581l-0.268,-0.91l-0.212,-0.923l-0.168,-0.771l0.145,-0.518l0.3,-0.392l-1.225,0.277l-2.686,-5.074l-0.671,0.15l0.417,1.613l0.036,1.535l-0.324,0.316l-0.48,0.19l-0.413,0.012l-0.459,-0.14l-1.125,-2.593l-1.128,-2.597l-0.778,-1.62l-0.689,-1.315l-0.608,-0.437l-0.742,-0.081l-3.011,-10.143l-0.85,-0.637l-0.784,-0.816l-0.286,-0.76l-0.332,-0.915l-0.311,-1.248l-0.219,-0.94l-0.2,-1.685l0.006,-1.4l-0.452,-2.127l-0.338,-2.154l0.022,-0.334l0.088,-0.513l0.043,-0.668l-0.143,-1.702l-0.257,-1.68l-0.14,-0.879l-0.536,-3.028l-0.141,-0.88l-0.166,-1.785l-0.121,-1.63l0.123,-0.604l-0.083,-0.893l0.257,-1.376l0.258,-1.376l-0.096,-1.141l-0.141,-1.297l0.25,-0.381l0.204,-0.537l-0.003,-0.828l0.111,-0.851l0.462,-2.329l0.669,-2.038l0.321,0.269l0.435,0.246l0.389,0.09l0.571,-0.112l0.183,-0.201l0.306,-1.219l0.145,-1.354l0.514,-0.514l0.513,-0.514l0.261,-0.961l0.376,-0.984l0.594,-0.032l0.548,-0.188l0.102,-1.096l-0.219,-1.366l1.714,-0.742l1.369,-1.502l-0.069,-1.89l-0.457,-1.984l0.183,-0.2l0.388,0.092l0.834,0.588l0.605,0.63l0.502,1.724l0.866,0.497l0.455,1.565l-0.16,0.691l-0.251,0.378l-0.706,0.053l-0.866,-0.082l0.524,2.212l0.592,2.031l0.443,0.904l0.625,0.703l0.194,-0.367l0.102,-0.679l0.172,-1.27l0.285,-1.292l0.556,1.706l0.964,1.46l1.009,0.38l0.964,0.224l1.306,4.508l-0.454,0.911l-0.373,-0.255l-0.305,-0.433l-0.7,-1.176l-0.588,-1.2l-0.748,-0.512l-0.296,0.223l-0.227,0.044l0.125,0.634l0.169,0.789l1.358,2.199l-0.181,0.2l-0.295,0.222l-0.476,0.423l-0.013,1.399l0.169,1.199l-0.171,1.676l-0.058,1.653l-0.407,1.066l-0.702,0.06l-0.747,-0.096l1.041,3.564l-0.34,0.069l-0.497,-0.063l-1.188,-0.579l-1.076,-0.603l-0.181,0.201l-0.227,0.046l-0.022,0.333l0.091,0.31l0.94,1.369l1.098,1.499l-0.068,0.588l-0.271,0.302l-0.882,-0.148l-1.041,-0.279l-0.634,0.294l0.295,0.597l-0.032,1.32l0.08,1.297l0.182,0.618l0.95,0.788l0.68,2.316l0.171,2.011l0.283,1.986l0.949,3.233l0.091,1.124l0.136,1.278l0.361,2.452l0.542,3.063l0.224,0.766l1.951,-1.888l0.851,1.28l-0.358,0.404l-0.246,0.378l-0.18,0.202l-0.324,0.315l-0.123,0.596l0.089,0.306l0.292,0.587l1.231,-0.268l-0.023,0.33l0.09,0.305l-0.112,0.837l0.045,0.965l-0.067,0.177l0.089,0.306l0.157,0.128l0.692,0.335l0.581,0.359l-0.022,0.735l0.022,0.887l0.223,0.762l0.713,0.814l0.101,-0.67l0.301,-0.391l0.112,-0.024l0.178,-0.202l0.268,0.103l0.479,0.623l0.522,0.775l0.301,0.419l0.478,0.217l0.589,0.192l0.789,0.472l0.821,0.786l1.02,1.064l0.387,0.72l0.497,0.695l0.376,0.48l0.51,0.127l-0.054,-0.794l0.169,-0.843l0.554,-0.124l0.774,0.632l0.662,0.656l0.657,2.266l0.374,0.478l0.508,0.126l0.002,-0.804l0.114,-0.829l0.553,-0.125l1.972,0.921l1.926,0.768l0.99,0.177l0.946,0.026l0.407,-0.012l0.517,-0.037l0.55,-0.125l0.177,-0.2l0.816,-0.424l0.662,-0.549l1.759,-0.396l1.145,0.938l1.144,0.938l0.371,0.075l0.177,-0.199l0.664,-0.947l0.621,-1.096l0.715,-0.56l0.758,-0.409l1.703,0.253l1.17,-0.183l1.127,-0.333l0.854,0.76l0.702,0.635l0.945,0.263l0.86,-0.036l1.199,-0.27l0.922,-0.842l1.634,-0.368l0.773,0.696l0.731,0.546l1.23,-0.356l1.036,-0.629l-0.482,-1.312l-0.374,-1.338l0.026,-0.322l0.243,-0.37l0.507,-0.666l0.44,-0.494l1.847,-0.411l1.955,-0.436l0.643,-0.379l1.124,-0.723l1.048,-0.784l0.677,-0.464l1.57,-0.348l1.678,-0.371l0.459,-0.416l0.243,-0.368l0.175,-0.196l1.102,-0.164l1.06,-0.313l0.357,-0.785l0.426,-0.956l1.437,-1.022l1.829,-1.262l0.647,-0.141l0.404,0.225l0.336,0.396l0.704,1.958l0.931,2.375l0.275,0.798l0.234,0.651l-1.72,0.382l0.36,1.951l0.312,2.818l0.185,2.765l-0.022,1.798l-0.39,1.491l-0.712,2.187l-0.838,2.14l-0.703,1.174l-2.346,-0.238l-1.288,0.297l-0.86,0.198l-0.946,0.921l-1.361,1.488l-1.288,1.55l-0.872,0.985l-0.691,-1.874l-0.868,-1.678l-0.877,-0.267l-0.945,-0.096l-0.481,-0.281l-0.413,-0.454l-0.548,-0.109l-0.589,-0.257l-0.649,0.15l-0.241,0.37l-0.026,0.32l0.221,1.206l0.438,1.155l-0.46,-0.208l-0.394,-0.38l-0.634,-1.032l-0.526,-1.057l-0.748,-0.615l-1.793,1.831l1.408,5.021l-0.998,0.548l-0.234,1.627l-0.438,1.517l-0.52,1.223l-1.143,1.057l-1.186,0.91l-0.399,1.038l-0.432,0.103l-1.045,-0.223l-0.829,-0.275l-0.818,-0.436l-0.643,-0.636l-1.322,-2.212l-0.725,1.118Zm6.154,-5.233l-0.525,0.596l0.084,2.343l0.121,0.838l0.188,0.664l0.649,-0.153l-0.042,-1.171l-0.25,-1.909l-0.166,-0.591l-0.05,-0.382l-0.009,-0.235Zm-6.481,0.411l0.88,1.059l0.838,0.909l0.15,0.122l0.434,-0.102l0.067,-0.173l0.188,-0.36l0.037,-0.482l-0.042,-0.148l0.024,-0.322l-0.15,-0.122l-0.561,-0.343l-0.778,-0.292l-1.087,0.254Zm19.993,-8.884l-0.357,0.161l-0.316,0.307l-0.139,0.737l0.009,0.86l0.165,1.215l0.272,1.189l0.377,-0.087l0.336,-0.235l0.295,-0.381l0.039,-0.479l-0.681,-3.287Zm8.2,-0.944l-0.208,0.905l0.65,0.708l0.315,-0.93l-0.757,-0.683Zm-19.458,3.063l-0.246,0.766l0.62,0.566l0.247,-0.766l-0.621,-0.566Zm-5.413,-0.332l0.394,0.779l0.569,0.58l0.464,-0.818l0.313,-0.941l-0.059,-0.619l-0.167,-0.593l-0.556,0.285l-0.665,0.311l-0.293,1.016Zm14.395,-5.03l0.188,-0.357l0.147,-0.504l-0.205,-0.739l-0.13,1.6Zm11.134,-3.624l0.47,0.674l0.348,0.233l0.242,-0.367l0.094,-0.489l-0.08,-0.294l-0.013,-0.465l-0.094,-0.76l-0.752,0.17l-0.188,0.355l-0.04,0.477l0.013,0.466Zm-10.128,1.04l-0.227,0.837l0.636,0.64l0.336,-0.861l-0.745,-0.616Zm1.32,-1.868l-0.222,0.443l0.426,0.296l-0.204,-0.739Zm-24.015,4.649l-0.113,0.423l0.325,0.324l0.222,-0.448l-0.434,-0.299Zm3.177,-1.515l0.546,-0.124l-0.8,-0.772l0.254,0.896Zm-42.747,-25.778l0.418,0.403l0.531,0.378l0.451,-0.096l0.202,-0.534l0.089,-0.509l-1.877,-2.715l-0.122,1.009l0.081,1.293l0.227,0.771Zm8.959,-35.781l-0.055,-1.222l-0.212,-1.357l-0.226,-0.779l-0.553,-1.293l-0.578,-0.96l-1.135,-1.019l-1.295,-1.155l-0.626,-0.707l-0.512,-0.729l0.252,-0.378l0.205,-0.534l0.456,-0.086l0.592,0.383l0.318,0.27l0.5,0.896l0.522,0.56l0.626,-0.119l0.421,-0.409l-1.22,-4.224l1.59,1.351l1.706,-0.32l0.308,-0.388l0.036,-0.501l-0.188,-2.107l-0.37,-1.91l1.079,0.624l1.078,0.623l0.682,-0.127l0.686,-1.362l0.869,-1.56l0.345,-0.887l0.117,-0.845l0.003,-0.824l2.147,2.074l-1.474,-5.162l1.523,-0.112l1.237,-0.06l1.123,-0.04l0.158,0.136l0.203,0.292l0.315,0.271l0.602,-0.192l0.646,-0.035l0.615,1.119l0.659,1.274l0.964,1.298l0.943,0.81l0.452,-0.084l0.35,-1.701l-0.032,-1.796l-0.808,-0.754l-0.878,-0.578l-0.447,-0.739l-0.334,-0.761l6.109,-1.104l1.221,2.232l0.97,1.131l0.925,0.974l0.45,-0.083l-0.266,-1.583l0.071,-1.646l0.962,-0.582l1.074,-0.602l0.008,-0.817l0.121,-0.838l0.182,-0.196l0.381,0.095l0.758,0.597l0.801,0.753l0.562,-0.102l0.433,-0.566l0.476,-0.412l0.631,-0.276l1.164,4.183l0.569,0.14l0.724,0.275l0.353,0.423l0.422,0.247l0.448,-0.081l0.667,0.284l0.821,0.418l0.56,-0.103l0.685,1.414l0.727,1.567l0.596,2.155l-2.729,-0.952l-0.22,0.689l0.158,0.78l0.844,1.138l0.912,0.962l0.681,2.459l0.638,2.301l-0.129,0.59l-0.326,0.304l-0.642,-0.202l-0.573,-0.376l-1.183,0.386l-1.072,0.365l0.64,2.302l-0.642,-0.2l-1.544,-1.324l-0.429,0.567l-0.292,0.218l-0.18,0.196l-1.065,-0.445l-1.153,-0.753l-1.094,-2.226l-1.496,-1.342l-1.723,-1.302l-0.636,-0.37l-0.748,-0.348l-1.098,-0.121l-1.369,-0.233l-0.562,0.105l-0.488,0.581l-0.532,0.425l-0.628,-0.127l-0.605,-0.458l-0.91,1.395l-0.797,1.375l-0.864,1.143l-0.951,0.834l-1.03,0.767l-1.074,0.613l-0.431,0.573l-0.476,0.418l-1.051,0.282l-1.208,0.148l-0.42,0.408l-0.532,0.429l-0.127,0.598l-0.285,0.464l-0.318,0.553l-0.476,0.419l-1.057,1.515l-1.169,1.537l-0.512,0.919l-0.782,0.808l-0.387,0.732l-0.476,0.421l-0.181,0.199l-0.679,0.133l-0.385,-0.089l-0.316,-0.267l-0.407,-0.578l-0.404,-1.4Zm33.44,-15.499l-0.121,0.833l0.549,0.706l0.345,-0.873l-0.773,-0.666Zm-1.733,-4.541l-0.271,0.293l0.486,0.478l-0.215,-0.771Zm-16.184,2.173l-0.345,0.882l0.785,0.673l0.118,-0.84l-0.558,-0.715Zm-5.84,-2.53l0.301,0.848l0.346,1.004l0.857,0.498l0.566,-0.105l0.194,-0.364l0.081,-0.343l-0.662,-0.862l-0.845,-0.666l-0.384,-0.093l-0.454,0.083Zm16.432,-4.475l0.355,0.425l0.467,0.403l-0.26,-0.93l-0.779,-0.673l-0.026,0.33l0.243,0.445Z"/><path d="M1061.1,434.254l-0.859,0.955l-0.483,-1.866l-1.038,0.692l-0.377,-0.599l-0.415,-0.743l-0.628,0.143l-0.501,0.418l-0.464,0.562l-0.943,0.214l-0.24,0.36l-0.202,0.503l-0.022,0.767l-0.097,0.479l-0.03,0.311l-1.029,0.312l-1.03,0.312l-1.331,0.228l-1.016,0.156l-1.35,-0.685l-1.427,-0.974l0.57,2.164l-3.243,-0.022l-0.573,-2.169l-0.719,-0.603l-0.633,0.144l-0.749,0.554l-0.644,0.531l-0.197,0.736l-0.052,0.856l-0.096,0.483l-0.135,0.338l-0.633,0.145l-0.606,-0.168l-0.394,-0.217l-0.25,-0.097l-0.528,0.121l-0.601,0.907l-0.706,0.931l-1.058,0.243l-1.498,-0.348l-1.645,-0.47l-0.585,-2.18l0.202,-0.509l0.241,-0.364l-0.429,-1.6l-0.47,-0.28l-0.363,-0.304l-0.591,-0.098l-0.658,0.072l-0.352,-1.313l-0.14,-1.361l-0.188,-1.12l-0.291,-1.716l-0.325,-1.633l-0.183,-0.89l-0.826,-3.077l-0.828,-3.083l-0.226,-1.896l-0.265,-2.044l-0.5,-2.073l-0.739,-2.962l-0.218,-0.812l-0.431,-1.392l-0.451,-1.467l-0.278,-1.035l-0.738,-0.627l-0.63,-0.649l-0.188,-0.274l-0.227,-0.422l-0.052,-0.616l0.028,-0.319l-0.029,-1.169l-0.178,-1.296l-0.16,-0.594l-0.626,-0.419l-0.763,-0.077l-0.279,3.198l-0.541,0.113l-0.633,-0.652l-0.749,-0.236l-0.682,-0.407l-0.604,-2.233l0.186,-1.219l0.362,-1.412l0.306,-0.772l0.307,-0.771l0.138,-0.973l0.179,-0.824l0.164,-0.664l-1.693,-6.279l0.007,-2.528l-0.102,-2.508l-0.162,-0.601l-0.916,-1.48l-1.135,-1.439l-0.937,-2.194l-0.455,-1.26l-0.845,-2.059l-0.865,-2.138l-0.519,-1.491l-0.614,-2.272l0.33,-0.7l0.503,-1.131l0.448,-1.12l0.166,-0.668l-0.095,-0.779l-0.314,-0.738l1.09,0.831l1.075,0.354l0.406,-0.633l0.394,-1.109l0.071,-0.809l-0.039,-0.789l0.388,0.803l0.567,0.61l0.707,-0.371l0.556,-0.502l-0.261,-1.621l-0.453,-1.906l-0.826,-1.36l-1.088,-1.474l-0.163,-0.608l0.007,-2.555l-0.153,-1.649l-0.305,-1.783l0.539,-0.576l-0.127,-1.336l-0.196,-1.164l0.661,-0.119l0.164,0.611l0.151,0.133l0.63,0.845l0.369,0.732l1.264,0.411l1.453,0.695l0.659,-0.119l0.408,-0.631l0.676,-0.918l0.642,-0.832l0.264,-0.525l0.558,-0.498l0.448,-0.478l0.549,-0.098l1.153,0.669l0.934,0.707l0.564,0.614l0.604,0.765l0.632,0.442l0.662,0.118l0.347,-0.855l-0.4,-1.515l-0.021,-0.949l0.019,-0.798l0.289,-0.21l0.368,0.093l1.194,1.057l1.114,0.752l0.258,0.112l0.179,-0.19l0.486,-0.325l0.596,-0.344l0.734,-0.685l0.665,-0.514l1.2,-0.214l-0.383,0.938l-0.461,0.636l0.376,0.566l0.842,0.165l0.693,0.034l0.5,-0.484l0.422,-0.787l0.109,-0.019l0.178,-0.19l0.139,-0.34l-0.062,-1.332l-0.023,-1.181l0.07,-0.171l0.475,0.074l0.109,-0.019l0.296,0.263l0.336,0.415l0.657,-1.853l0.844,-1.57l0.288,-0.209l0.979,-0.171l0.365,0.093l0.926,0.942l0.855,1.111l1.125,1.061l1.124,1.059l0.22,-0.904l0.004,-0.866l-0.334,-0.413l-0.511,-0.224l0.418,-1.019l0.542,-0.095l0.949,0.384l1.017,0.214l1.083,-0.19l0.194,-0.349l0.116,-0.648l0.433,-0.076l3.299,3.183l3.411,-3.419l3.143,9.278l-2.153,2.571l-0.11,1.111l-0.394,1.319l-0.069,0.168l-0.429,0.079l-0.146,-0.13l-0.632,-0.274l-0.701,-0.106l-0.278,0.675l0.244,0.735l0.137,0.755l-0.062,0.635l-0.246,0.357l-0.518,0.174l-0.626,0.193l-0.663,0.044l-0.557,0.025l-1.351,-1.313l-1.596,-0.723l-1.051,-0.355l-0.558,1.12l-0.52,1.27l-0.539,0.099l-0.929,0.563l-1.646,0.853l-1.646,0.854l-0.969,0.416l-1.623,0.301l-0.887,0.951l-0.753,0.376l-1.187,0.458l-1.188,0.458l-0.685,0.207l-0.449,0.241l-0.789,0.463l-0.844,0.473l-0.503,0.253l-0.711,-0.103l-1.097,-0.267l-1.172,-0.333l-0.718,-0.339l-0.796,-3.013l-0.358,-0.487l-0.427,-0.317l-0.273,0.051l-0.342,0.222l1.277,4.822l-1.109,0.13l-1.15,-0.021l-0.407,-0.24l-0.338,-0.412l-0.105,1.761l-7.43,1.403l-0.466,0.406l-0.288,0.214l-0.179,0.192l0.447,1.663l0.429,0.315l0.32,0.335l1.011,0.125l0.75,0.015l0.888,3.315l0.149,0.129l0.546,-0.105l0.499,-0.491l0.39,-0.471l0.545,-0.105l0.536,0.293l0.318,0.334l1.041,3.904l0.604,0.119l0.683,0.419l0.16,0.599l0.078,1.797l0.148,1.625l0.43,0.545l0.579,0.672l0.41,0.469l0.37,0.32l0.198,0.747l-0.451,0.875l-0.302,1.003l0.794,2.982l-0.209,1.141l-0.277,1.311l0.397,1.488l0.921,-0.814l0.513,1.071l0.727,1.026l1.186,-0.241l1.018,-0.442l0.978,-0.59l0.024,-0.552l0.132,-0.574l0.234,-0.829l0.127,-0.807l0.299,0.487l0.367,0.316l1.721,-0.348l0.586,0.506l0.791,-0.004l0.215,-0.044l0.068,-0.169l0.469,-0.797l0.431,-0.944l0.175,-0.192l0.254,0.105l1.073,0.641l0.925,0.514l0.609,-0.045l0.57,-0.193l0.534,0.748l0.426,0.769l4.49,-0.909l0.148,-0.728l-0.036,-1.001l-0.767,-2.951l0.329,0.4l0.397,0.231l1.085,0.714l0.938,0.587l0.416,0.304l0.377,0.156l0.537,1.208l0.605,1.039l0.521,0.281l0.772,0.385l0.189,0.734l-0.209,0.274l-0.171,0.421l-0.038,0.935l-0.076,0.788l-0.516,-0.049l-0.449,-0.217l0.035,0.997l0.178,1.122l0.703,0.55l0.808,0.528l-0.452,0.633l-0.489,0.487l-0.725,0.227l-0.869,0.103l-0.873,0.952l-2.234,0.464l-0.988,0.514l-1.057,0.684l-0.858,0.798l-1.456,1.311l-1.456,1.312l-0.752,0.778l-1.078,0.614l-1.078,0.615l-1.569,1.107l-1.248,1.041l-0.408,1.018l0.02,0.928l0.098,1.221l0.142,1.599l0.035,1.622l-0.203,0.509l-0.097,0.486l0.088,0.756l0.273,1.026l0.612,1.881l0.664,0.165l0.702,0.311l2.175,1.842l0.463,0.053l0.319,-0.07l0.174,-0.192l0.589,-0.746l0.425,-0.093l0.805,0.287l1.469,0.68l1.466,0.678l0.947,0.408l0.624,0.247l0.556,0.415l0.708,0.996l0.534,1.186l0.228,-1.048l0.304,-0.757l1.18,-0.184l1.006,0.009l-0.054,-1.061l-0.86,-0.731l-1.034,-0.541l-0.997,-0.396l0.357,-0.769l0.54,-0.502l0.642,0.32l0.785,0.443l0.527,-0.116l0.573,-0.585l0.535,-0.73l0.716,2.755l0.392,0.22l0.564,0.03l0.248,-0.973l0.391,-0.851l1.053,-0.23l0.391,0.22l0.323,0.388l-0.17,0.42l-0.131,0.564l-0.147,0.72l-0.042,0.697l0.412,1.59l0.712,0.606l0.525,-0.117l0.203,-0.502l0.241,-0.359l-0.183,-1.562l-0.144,-1.419l0.499,-0.644l0.432,-0.477l-0.02,-1.37l-0.126,-1.348l4.83,-1.048l0.673,-2.128l4.4,-0.948l0.379,1.059l0.589,1.013l0.932,0.633l1.036,0.61l1.148,-0.249l0.333,0.231l0.37,0.374l0.399,1.579l0.836,0.045l0.871,0.188l1.382,2.87l0.666,0.684l0.768,0.66l0.339,-0.829l-1.718,-2.037l-0.145,-0.572l-0.214,-2.372l-0.138,-1.634l0.322,-0.902l0.321,-0.902l0.362,-0.305l0.502,-0.183l0.321,0.838l0.356,0.981l0.246,0.324l0.349,0.302l0.727,-0.157l0.296,-1.876l0.52,-2.076l0.585,-0.503l0.352,2.717l1.109,4.432l0.873,-1.094l0.594,0.849l0.085,2.088l-0.482,2.436l0.116,1.552l-0.023,1.432l-0.251,0.957l-0.541,1.322l-0.559,1.251l-0.304,0.744l0.179,0.711l1.134,-0.255l-0.386,3.236l-4.333,0.983l-0.699,-0.819l-0.73,-0.511l-2.07,0.469l-0.802,-0.572l-0.7,-0.596l-0.518,0.117l0.833,3.278l-1.072,0.094l-1.281,0.141l-1.564,-0.323l-1.952,-0.539l-0.333,-0.226l-0.266,-0.394l-0.217,-0.632l-0.149,-0.798l-0.913,-0.551l-0.612,-0.241l-0.509,-0.264l-0.626,0.141l0.178,1.552l0.037,1.431l-0.098,0.477l-0.134,0.333l-0.978,1.132l-0.805,0.942l-0.498,-0.645l-0.534,-0.788l-0.603,-0.622l-0.627,0.143Zm10.492,-1.626l0.519,-0.118l-0.389,-0.667l-0.494,-0.643l0.364,1.428Zm-35.466,5.025l-0.23,0.823l0.617,0.629l0.23,-0.823l-0.617,-0.629Zm40.886,-10.019l-0.234,0.806l0.595,0.619l0.234,-0.805l-0.595,-0.62Zm8.578,-1.921l0.487,0.641l-0.132,0.779l-0.693,-0.595l0.338,-0.825Zm-3.506,-7.038l0.339,-0.828l-0.682,1.204l0.343,-0.376Zm-7.471,1.643l0.338,-0.83l-0.036,-0.144l0.031,-0.309l-0.072,-0.287l-0.624,0.137l0.363,1.433Zm5.917,-1.302l0.235,-0.805l-0.594,-0.624l0.359,1.429Zm3.818,-7.011l-0.438,-0.659l-0.474,-0.803l-0.441,-1.112l-0.339,-1.135l2.215,-0.323l0.517,-0.336l0.38,-0.006l0.136,2.08l-0.809,0.476l0.003,0.451l0.246,0.55l1.352,0.611l0.987,0.464l0.538,0.41l-0.582,0.727l-0.478,0.705l0.071,0.285l-0.113,1.077l-0.22,0.649l-0.846,-0.116l-0.743,-0.139l-0.962,-3.856Zm-31.703,9.346l-0.214,0.89l0.629,0.703l0.109,-0.866l-0.524,-0.727Zm-20.669,4.571l-0.437,-0.368l-0.309,0.534l0.452,0.209l0.294,-0.375Zm56.782,-21.188l0.106,0.429l0.038,0.594l-0.065,0.616l0.003,0.451l-0.033,0.308l0.743,2.999l0.177,0.713l-0.305,0.968l-0.443,0.847l-0.491,-1.322l-0.858,-1.921l-0.859,-1.924l-0.562,-1.161l-0.249,-1.003l2.798,-0.594Zm-14.617,7.208l0.145,0.575l-0.521,0.112l-0.075,-0.514l0.451,-0.173Zm1.563,-0.338l0.72,0.678l-0.321,0.902l-0.512,-0.722l0.113,-0.858Zm-21.944,-19.088l0.739,0.697l-0.322,0.914l-0.633,-0.718l0.216,-0.893Zm-7.77,1.593l0.64,-0.131l-0.345,-1.324l-0.641,0.131l0.346,1.324Zm5.728,-9.063l-0.137,-0.746l-0.175,-0.895l1.511,0.859l1.296,0.9l0.792,1.772l0.685,1.792l-0.835,0.014l-0.979,-0.11l-0.493,-0.827l-0.349,-0.702l-0.791,-0.46l-0.525,-1.597Zm5.037,1.306l0.42,0.764l-0.006,0.849l-0.419,-0.763l0.005,-0.85Zm-0.982,-3.818l0.308,0.325l-0.119,0.409l-0.307,-0.324l0.118,-0.41Zm2.871,-0.573l0.419,0.765l-0.006,0.85l-0.737,-0.701l0.324,-0.914Zm-4.231,0.07l-0.426,0.085l-0.189,-0.736l0.615,0.651Zm-30.096,0.37l-0.214,0.908l0.653,0.736l0.214,-0.908l-0.653,-0.736Zm22.987,-27.95l0.751,0.722l-0.327,0.921l-0.535,-0.762l0.111,-0.881Zm-38.544,5.573l0.111,-1.299l0.374,-1.188l0.796,1.45l0.837,1.599l0.355,0.891l-0.962,-0.139l-0.865,-0.636l-0.646,-0.678Zm48.928,-10.754l0.88,-1.172l0.698,-1.45l0.3,-0.366l0.154,-0.495l0.168,-0.887l-0.047,-0.849l-0.984,-1.227l-0.733,-1.117l-0.373,-1.027l-0.665,0.04l1.855,-2.436l-1.988,-0.745l0.463,-0.394l0.532,-0.562l0.181,-1.282l0.327,-1.152l-0.202,-1.685l1.616,-0.279l0.151,0.599l-0.128,1.272l-0.02,1.253l0.98,0.766l0.43,-0.075l0.174,-0.421l0.137,-0.57l0.133,-0.803l0.065,-0.636l0.473,0.542l0.51,0.691l0.656,0.821l0.799,-0.607l0.692,-0.588l0.44,0.858l0.508,0.69l0.965,-0.169l1.007,-1.109l0.938,-0.94l1.99,0.818l1.917,0.985l-2.777,0.485l0.336,1.571l0.415,2.331l0.343,2.264l0.264,1.501l-0.063,0.863l-0.17,0.881l-0.305,-0.332l-0.343,-0.48l-0.331,-1.102l-0.263,-1.271l-0.654,-1.279l-0.586,-1.448l-0.563,-0.91l-0.633,-0.743l-0.321,0.057l0.05,1.312l-0.094,1.182l-0.485,1.406l-0.559,1.109l0.373,1.486l0.448,1.782l0.379,0.397l0.341,0.248l-0.329,0.912l-0.435,0.932l-0.427,0.077l-0.811,-0.783l-0.775,-0.636l-0.478,0.32l-0.334,0.448l-0.323,1.379l-0.216,1.359l-0.641,0.117l-0.76,-0.793l-1.124,0.205l-1.017,0.186l-0.574,-0.051l-0.756,-0.329l-0.435,-0.388l-0.366,-0.557Zm-13.23,3.354l0.44,0.39l0.402,0.24l0.257,-0.753l-0.035,-1.013l-0.803,-0.48l-0.247,0.359l-0.139,0.339l0.047,0.619l0.078,0.299Zm-33.831,1.461l-0.054,-0.63l-0.013,-0.477l1.43,1.016l1.428,1.015l0.637,1.079l0.525,1.098l0.326,1.214l-0.439,0.081l-0.151,-0.131l-0.287,-0.424l-0.438,-0.557l-0.548,-0.536l-0.59,-0.689l-1.441,-1.49l-0.152,-0.132l-0.233,-0.437Zm11.582,2.8l0.207,-0.515l0.168,-0.666l-0.363,-1.362l-0.429,-0.318l-0.469,-0.469l0.886,3.33Zm38.705,-13.026l0.4,0.474l0.507,0.454l0.16,-1.585l0.191,-1.903l-0.15,-0.596l-0.94,-0.613l-0.106,1.577l-0.175,1.745l0.113,0.447Zm6.637,-1.186l0.739,0.722l-0.329,0.912l-0.632,-0.74l0.222,-0.894Zm-46.337,7.881l-0.242,-0.91l-0.659,0.119l0.901,0.791Zm35.803,-8.338l-0.082,0.561l0.31,0.335l0.208,-0.505l-0.436,-0.391Zm10.937,-1.943l0.758,0.797l-0.311,0.986l-0.437,-0.853l-0.01,-0.93Zm-43.64,6.381l-0.367,0.782l0.729,0.583l0.257,-0.761l-0.619,-0.604Zm15.436,-3.873l0.374,0.564l0.443,0.394l0.27,-1.151l-0.157,-0.603l-0.063,-0.462l-0.023,-0.311l-0.653,0.116l-0.228,0.435l-0.08,0.566l0.117,0.452Zm3.908,-0.696l-0.349,-0.252l-0.193,0.349l0.334,0.413l0.208,-0.51Zm3.135,-1.028l-0.132,0.809l0.518,0.693l0.348,-0.847l-0.734,-0.655Zm-25.616,0.268l0.301,0.266l-0.099,0.496l-0.5,-0.151l0.298,-0.611Z"/><path d="M1157.27,423.722l-0.51,1.407l-0.462,-0.901l-0.668,-0.209l-0.653,-0.14l-0.287,-0.582l1.182,-0.266l-0.092,-0.41l-0.238,-0.593l-0.207,-0.457l0.172,-0.614l1.084,-0.242l-0.709,-0.848l-0.851,-0.098l-0.764,0.746l0.212,1.391l-2.159,-0.597l-3.085,-1.908l-2.877,-2.328l-1.55,-1.977l-3.051,0.38l-0.008,0.874l-0.207,0.917l-0.2,0.044l-0.46,-0.407l-0.605,-1.03l-0.671,-1.089l-0.659,-0.583l-0.67,0.511l-0.369,0.445l-0.232,-0.095l-1.574,-0.894l-2.786,-2.24l-2.945,-2.436l-1.936,-1.49l-1.745,-0.212l-1.042,-0.144l-0.504,-0.112l-2.705,-1.556l-2.726,-2.742l-2.617,-2.925l-2.236,-2.424l-1.512,-1.393l-1.191,-1.166l-0.903,-1.526l-0.783,-2.597l-0.034,-0.142l0.239,-0.348l0.274,-0.653l-0.957,-1.073l-1.094,-2.094l-0.154,-2.662l0.669,-1.931l0.875,-1.746l0.431,-2.257l2.196,-1.857l2.058,-1.976l0.859,-1.589l0.122,-0.846l0.532,-0.702l2.021,-0.991l0.547,0.044l0.717,0.084l0.815,0.961l0.398,-1.271l0.81,-2.022l0.777,-1.94l0.431,-0.903l1.518,-0.142l1.179,-0.672l-0.297,-1.733l1.37,-1.229l1.37,-1.228l-0.012,-0.742l-0.081,-0.581l0.397,-0.82l0.98,-1.525l1.118,-1.624l0.776,-1.261l0.194,-1.005l0.573,-1.446l0.555,-1.295l0.312,-0.727l0.183,-1.524l0.592,-1.599l0.27,0.249l1.138,2.177l0.204,-0.037l0.586,-0.926l0.014,-1.566l-0.098,-0.429l-1.209,-1.793l-1.732,-0.808l-0.346,0.584l-0.177,0.854l-0.512,0.092l-0.376,-4.417l-0.066,-0.287l-0.865,1.351l-1.033,1.082l-1.484,-3.18l-0.412,0.073l-0.015,2.251l-0.29,2.449l-2.726,-2.736l-3.052,-1.336l-1.793,0.62l-0.149,2.586l0.103,-0.018l-0.565,-0.577l0.054,-0.687l-3.036,0.392l-0.138,-0.126l-0.379,-0.235l-0.241,-0.107l-0.174,0.182l-0.208,0.49l-0.174,0.182l-0.275,-0.253l-1.154,-1.683l-1.225,-1.976l-0.261,0.727l-0.523,1.228l-0.695,1.184l-0.746,0.738l-0.829,-3.034l-1.595,-2.601l-0.124,1.768l0.086,1.73l0.399,0.763l0.329,0.927l0.207,0.417l-0.035,0.31l-0.26,0.501l-0.4,0.375l-0.571,-1.945l-0.781,-1.91l-0.087,-0.592l-0.365,-0.391l-0.313,0.056l0.104,0.893l0.034,1.512l-0.192,1.477l-0.573,0.785l-0.244,-0.108l-0.592,-1.109l-0.313,0.284l-0.383,0.449l0.506,1.2l0.539,1.345l-1.044,-0.495l-1.079,-0.641l-0.314,-0.172l-0.418,-0.153l-0.593,-0.197l-0.484,2.977l-2.93,0.53l-0.348,0.368l0.864,4.255l-0.391,4.024l-0.348,0.368l-0.209,0.039l-0.494,-2.492l-0.244,-0.107l-0.454,-0.068l-0.345,1.281l0.143,1.494l1.174,2.364l1.172,2.359c-1.623,0.17 -1.464,1.887 -1.244,2.965l-0.417,0.079l0.282,1.614l0.761,-1.358l1.446,2.147l1.235,2.182l-0.033,0.762l-0.206,0.719l-0.275,0.885l0.142,1.709l0.556,1.626l-1.005,-1.01l-0.242,-0.104l-0.173,0.185l-0.448,0.843l0.139,0.124l0.628,2.366l0.938,2.302l1.401,1.753l1.845,0.459l0.226,2.283l-0.238,1.699l-0.274,1.331l0.089,1.483l0.069,0.285l0.533,0.641l0.499,0.498l0.723,2.996l0.243,3.015l0.003,2.913l1.267,1.675l1.162,1.693l0.034,0.365l0.069,0.507l0.324,1.568l0.581,3.074l0.494,3.162l0.238,1.655l0.136,0.564l0.883,0.327l0.78,0.793l-0.051,0.678l-0.288,0.359l-0.204,0.711l0.203,1.732l0.068,0.281l0.17,-1.073l0.542,-0.415l0.338,1.627l0.236,1.648l-0.61,2.352l-1.387,2.23l-0.659,2.364l-0.76,1.057l-1.473,-0.111l-1.407,-0.275l-1.404,-6.654l-0.545,-0.473l-1.557,-3.3l-2.205,-7.048l-1.995,-7.503l-0.909,-4.608l-0.971,-1.976l-1.638,-4.251l-1.891,-5.497l-1.831,-5.683l-1.537,-4.7l-0.797,-2.578l-0.232,-0.943l-0.463,-1.659l-0.463,-1.661l-0.233,-0.945l-0.287,-1.393l-0.469,-2.35l-0.398,-2.29l-0.218,-1.334l-0.144,-0.584l-1.836,-4.553l-1.421,-4.645l0.206,-0.959l0.669,0.032l-0.618,-2.959l2.713,-0.183l0.345,-1.29l-3.311,0.443l0.255,-1.43l1.027,-2.336l-0.037,-0.377l0.14,-0.102l1.311,0.842l0.491,-3.622l0.81,-3.679l0.77,-1.364l1.551,-0.423l0.917,0.148l1.128,0.111l0.897,-0.156l0.436,-1.15l-0.636,-0.58l-0.917,-0.379l1.106,-1.112l0.789,-1.057l0.794,0.554l1.041,1.355l1.076,1.499l0.932,1.139l0.19,-1.486l-0.093,-2.664l0.1,-2.545l0.63,-1.256l0.397,5.75l0.255,5.611c0.05,0.295 0.531,3.111 2.522,2.758l-0.423,-3.127l-0.284,-3.002l-0.77,-0.019l-0.038,-2.209l0.734,-1.044l0.718,-0.658l-0.019,-1.22l0.928,0.223l0.823,-0.217l-0.491,-2.055l-0.701,0.731l-0.282,-1.864l0.315,-1.2l1.612,0.339l1.715,0.779l0.21,-0.036l0.175,-0.182l0.228,-0.649l0.297,-0.814l0.21,-0.035l0.14,0.129l0.732,1.935l0.506,0.524l0.541,-0.016l0.907,0.151l0.784,0.551l0.817,0.698l0.941,-0.617l0.282,-1.568l-0.013,-1.899l0.09,-1.461l2.673,2.59l0.971,0.443l-0.384,0.672l-0.28,0.654l0.346,0.548l0.815,0.013l0.5,0.976l-0.625,0.106l0.049,0.901l0.431,0.684l0.644,-0.717l0.816,-0.442l0.415,-0.072l-0.77,2.251l-0.77,2.252l0.069,0.29l0.394,0.99l0.428,1.134l-1.142,0.2l0.341,1.452l0.999,1.032l0.401,-1.052l0.677,-0.798l0.603,0.271l0.533,0.435l-0.982,-4.659l1.518,0.491l1.511,1.397l1.302,1.429l0.995,0.578l-0.372,-1.138l0.881,-0.606l0.093,-1.22l-0.93,0.162l-1.356,-0.97l-1.27,-1.289l-0.738,-1.081l1.382,-0.086l0.072,-0.617l-0.306,-0.853l-0.411,-0.836l-0.618,-0.801l2.015,-2.005l0.064,0.971l-0.074,0.843l0.101,0.436l1.029,1.182l1.279,-0.52l0.389,-1.574l-0.067,-0.29l-0.187,-0.572l-0.289,-0.554l-0.272,-0.709l1.153,0.333l0.718,1.01l0.527,1.115l0.614,0.799l1.579,0.332l1.435,1.107l-0.365,0.513l0.115,0.732l0.266,1.155l0.508,0.812l1.007,-1.674l0.294,-2.451l2.866,5.05l1.756,5.817l0.773,1.056l1.065,0.705l1.012,0.712l0.65,1.223l0.063,0.509l-0.026,0.823l-0.194,0.778l-0.477,0.235l-1.075,-1.22l-0.7,-1.438l-0.119,1.809l3.094,2.86l0.13,0.57l0.134,0.124l-0.43,2.304l-0.999,1.667l1.328,0.942l0.849,1.176l-0.073,0.606l-1.28,-0.503l-1.318,-0.201l-0.032,-0.142l-0.554,1.289l-0.082,1.498l-0.493,0.166l-0.626,0.043l-0.448,0.826l-0.415,0.967l-0.037,0.304l0.399,0.815l0.566,1.079l0.11,2.793l-0.263,3.01l-1.026,-0.543l-0.897,0.024l-0.837,0.975l0.135,2.196l0.167,2.335l-0.502,1.503l-1.335,-6.702l-0.387,-0.297l-0.562,0.33l0.249,0.62l0.283,0.762l-0.207,0.484l-4.007,0.626l1.452,1.204l1.075,1.423l-1.464,1.027l0.12,2.35l-1.373,-2.699l-0.166,-0.71l0.766,-0.372l0.799,-0.23l-1.135,-0.299l-1.07,-0.015l-0.306,0.059l-0.684,0.728l0.365,1.564l1.039,2.395l1.105,2.229l-0.036,0.303l-1.02,0.647l-1.222,0.243l-1.505,-0.964l-1.405,-0.985l0.682,2.911l0.961,1.367l0.923,4.854l-2.028,-0.924l-0.528,-3.158l-0.63,0.497l-0.664,0.356l-0.841,-2.21l-0.185,-0.558l-0.356,-0.375l1.244,-0.396l-0.112,-1.615l-2.898,0.425l0.2,1.301l0.167,1.159l0.133,1.015l0.369,1.563l0.843,1.763l1.321,1.07l1.505,0.956l1.468,1.257l1.46,-1.037l0.926,0.773l0.683,1.56l2.769,-0.418l0.871,0.78l0.866,1.222l0.273,1.857l0.171,1.877l0.606,-0.125l-0.02,-1.908l0.586,-2.033l0.217,0.25l0.047,0.431l0.097,0.422l0.112,0.712l0.044,0.872l-0.036,0.302l0.877,1.507l1.466,1.088l1.511,1.296l0.916,2.149l0.159,0.917l0.058,0.938l0.842,-0.909l1.106,-0.671l0.233,0.097l0.1,-0.021l0.426,0.713l0.458,0.851l0.3,-0.063l0.168,-0.182l-0.706,-2.623l1.306,-0.712l0.45,-0.094l0.482,0.044l0.457,0.852l0.624,0.67l1.045,-1.385l0.974,3.36l0.824,0.407l1.214,-0.403l2.138,0.925l0.162,0.256l-0.037,0.297l-0.102,0.239l-0.201,0.261l0.978,-0.281l0.94,0.017l0.261,0.234l0.193,0.393l0.297,-0.063l0.26,-0.924l0.359,-0.944l0.397,-0.084l-0.124,0.604l-0.223,0.626l0.341,0.362l0.279,0.085l0.236,-0.339l0.334,-0.361l1.526,0.326l1.146,1.415l-1.777,0.163l-2.009,0.069l0.093,0.413l1.86,1.118l1.39,1.576l1.323,1.514l1.687,1.073l0.587,-1.996l-0.194,-2.26l-0.369,-0.496l-0.332,-0.793l1.109,0.338l0.843,2.623l0.712,2.503l-0.007,0.432l0.061,0.273l-0.457,0.961l-0.266,1.349l0.273,2.378l0.37,2.353l-0.491,0.109l-0.601,-0.154l-0.73,-0.268l-0.298,0.281l0.156,0.467l1.053,1.485l1.058,5.197l-0.398,0.519l-0.87,0.482l-0.968,0.505l0.214,0.952l-0.616,-0.218l-1.148,-0.526l-1.23,-0.653l-0.955,-0.572l-0.559,-0.878l-0.437,-0.332Zm2.991,0.903l-0.236,0.555l0.383,0.557l0.206,-0.69l-0.353,-0.422Zm1.561,-4.074l0.393,-0.087l-0.515,-0.458l0.122,0.545Zm-10.596,-1.088l0.27,-0.637l-0.395,0.088l0.125,0.549Zm3.075,-1.547l-0.302,0.499l0.353,0.642l0.27,-0.637l-0.321,-0.504Zm-3.967,-0.998l0.397,-0.087l-0.058,-0.71l-0.396,0.088l0.057,0.709Zm12.533,-2.761l-0.093,0.737l0.436,0.334l0.222,-0.622l-0.565,-0.449Zm-0.356,-0.209l-0.123,0.601l0.269,0.514l0.192,-0.759l-0.338,-0.356Zm-55.975,11.25l0.425,0.867l0.695,0.214l0.203,-0.046l0.169,-0.851l0.067,-0.829l-0.068,-0.281l-1.087,-0.941l-0.542,0.639l0.138,1.228Zm41.426,-11.373l1.208,1.182l-0.283,-1.24l-0.925,0.058Zm9.563,-1.371l0.888,-0.194l-0.466,-0.69l-0.57,-0.236l-0.167,0.18l0.315,0.94Zm-12.952,-0.208l-0.172,0.618l0.059,0.713l0.027,0.574l0.28,-1.512l-0.163,-0.255l-0.031,-0.138Zm-2.197,0.915l0.399,-0.087l-0.096,-0.415l-0.399,0.087l0.096,0.415Zm-33.03,7.71l-0.22,0.641l0.39,0.505l0.118,-0.618l-0.288,-0.528Zm-1.9,-0.764l-0.084,0.537l0.323,0.447l0.186,-0.56l-0.425,-0.424Zm28.029,-9.085l-0.119,0.391l0.346,0.582l0.187,-0.552l-0.414,-0.421Zm2.805,-0.609l-0.168,0.182l0.264,0.235c0,-0 0.184,-0.113 0.168,-0.183c-0.016,-0.069 -0.264,-0.234 -0.264,-0.234Zm19.652,-3.523l-0.161,-0.254l-0.136,0.318l0.26,0.232l0.037,-0.296Zm-23.676,2.057l-0.065,-0.278l-0.237,0.343l0.166,0.257l0.136,-0.322Zm-1.526,-11.549l-0.062,-0.722l-0.303,0.063l0.365,0.659Zm1.18,-0.835l-0.086,0.312l0.148,0.409l0.154,-0.472l-0.216,-0.249Zm-4.512,-3.917l0.438,0.056l-0.361,-1.547l-0.438,-0.057l0.361,1.548Zm1.857,-0.679l0.303,-0.062l-0.131,-0.562l-0.303,0.062l0.131,0.562Zm-5.382,-2.583l0.307,-0.507l-0.572,-0.622l0.265,1.129Zm-24.316,0.656l0.686,-1.19l-0.86,0.025l0.174,1.165Zm20.639,-4.055l-0.205,0.487l0.472,0.646l0.172,-0.628l-0.439,-0.505Zm-23.786,-0.868l0.815,1.792l1.363,0.475l-2.178,-2.267Zm20.257,-0.497l-0.032,-0.589l-0.409,0.083l0.441,0.506Zm6.422,-0.851l0.274,-0.648l-0.407,0.082l0.133,0.566Zm-24.165,-0.362l0.76,0.9l-0.243,-1.004l-0.517,0.104Zm16.669,-4.231l-0.171,0.183l0.272,0.244l0.137,-0.325l-0.238,-0.102Zm-2.797,-1.833l0.785,0.591l0.036,-0.754l-0.821,0.163Zm3.932,-1.076l-0.292,0.58l0.322,0.458l0.19,-0.56l-0.22,-0.478Zm1.409,-3.111l-0.086,0.316l0.15,0.865l0.185,0.783l0.152,0.194l-0.03,-1.038l-0.371,-1.12Zm-3.898,1.661l-0.069,0.163l0.17,0.265l0.138,-0.326l-0.239,-0.102Zm5.093,-2.044l0.166,1.16l0.712,0.754l0.069,-0.163l0.159,-1.371l0.431,-1.127l0.238,0.103l0.729,0.602l0.304,0.387l0.238,0.102l0.663,-0.13l-1.025,-2.33l-2.058,-0.792l-0.482,1.138l-0.144,1.667Zm5.133,-5.017l-0.266,-1.14l-0.48,0.688l0.746,0.452Zm-29.173,1.579l0.332,0.92l0.297,0.774l0.347,0.084l0.173,-0.185l-0.454,-1.197l-0.835,-0.974l0.14,0.578Zm37.049,-6.654l0.349,0.823l0.45,0.804l0.291,-0.352l-0.047,-0.436l-0.449,-1.026l-0.958,-0.931l0.066,0.285l0.2,0.407l0.098,0.426Zm-6.157,1.917l-0.099,-0.427l-0.442,-0.065l0.541,0.492Zm2.775,-3.205l-0.499,0.838l0.006,1.634l1.733,-0.331l-0.38,-1.413l-0.86,-0.728Zm-33.742,5.837l-0.173,0.185l0.07,0.289l0.242,-0.349l-0.139,-0.125Zm-6.736,-3.877l0.563,0.958l-0.144,-1.037l-0.419,0.079Zm4.292,0.553l0.521,-0.099l-0.141,-0.581l-0.522,0.099l0.142,0.581Zm40.694,-10.196l0.264,0.917l0.638,0.698l0.171,-0.18l0.31,-0.503l0.374,-0.218l-0.648,-3.297l-0.858,1.125l-0.251,1.458Zm1.896,-3.322l0.746,0.012l-0.26,-1.141l-0.849,0.007l0.363,1.122Zm-3.181,-1.351l0.438,0.516l0.237,0.105l0.102,-0.018l-0.978,-1.013l0.168,0.267l0.033,0.143Zm3.492,-2.868l1.717,1.472l-1.606,-2.385l-0.155,0.252l-0.123,0.394l0.167,0.267Zm-45.842,6.11l0.909,-0.32l-0.18,-1.187l-0.909,0.319l0.18,1.188Zm-5.481,-1.747l0.534,1.28l0.881,0.451l-0.503,-2.051l-0.912,0.32Zm6.838,-0.333l0.789,0.542l0.647,-0.042l-0.177,-0.73l-1.259,0.23Zm1.176,-4.181l0.651,1.103l1.138,0.403l0.505,-0.625l0.818,-1.366l0.713,-1.576l0.189,-1.254l-0.63,-0.802l-0.751,0.744l-1.082,0.957l-1.029,1.177l-0.522,1.239Zm38.194,-6.836l0.668,1.75l1.392,0.721l0.135,0.125l-0.901,-2.302l-0.869,-2.163l-0.238,-0.108l-0.349,0.81l0.162,1.167Zm3.424,2.377l-0.236,-0.331l-0.206,0.261l0.286,0.321l0.156,-0.251Zm-36.484,2.619l0.349,-0.595l-0.072,-0.977l-0.228,-0.721l-0.717,-0.482l0.668,2.775Zm-7,-0.88l0.424,0.841l0.632,0.345l-0.215,-1.337l-0.841,0.151Zm36.842,-3.694l0.206,-0.037l0.604,-0.631l0.394,-0.145l-0.579,-0.421l-0.479,0.009l-0.308,0.055l0.162,1.17Zm1.545,-0.724l-0.157,0.477l0.319,0.692l0.194,-0.783l-0.356,-0.386Zm-13.405,1.479l-0.172,-0.272l-0.243,0.345l0.293,0.099l0.122,-0.172Zm14.432,-5.852l1.161,0.172l0.438,0.746l0.317,0.916l0.829,0.826l-0.947,-5.069l-1.391,0.691l-0.407,1.718Zm-8.149,2.781l-0.054,0.461l0.426,0.677l0.124,-0.624l-0.496,-0.514Zm3.037,-2.186l0.088,2.237l0.24,0.107l0.468,-0.757l0.196,-1.01l-0.204,-0.415l-0.376,-0.235l-0.239,-0.108l-0.173,0.181Zm3.526,0.882l0.378,-0.216l-0.644,-0.937l0.266,1.153Zm-43.54,3.733l-0.14,0.332l0.32,0.404l-0.003,-0.46l-0.177,-0.276Zm34.2,-4.651l-0.572,0.552l-0.297,0.806l1.206,0.09l-0.337,-1.448Zm5.607,-5.039l1.284,0.68l0.644,1.166l0.438,1.2l0.766,0.767l0.319,-1.406l-1.484,-3.648l-0.103,0.017l-0.479,-0.218l-0.761,0.657l-0.624,0.785Zm-33.238,7.304l0.422,-0.074l-0.534,-2.204l-0.422,0.074l0.534,2.204Zm17.881,-5.104l0.516,2.185l1.386,0.819l-0.206,-0.873l-0.413,-1.519l-0.656,-1.403l-1.006,-0.813l0.294,0.784l0.085,0.82Zm-19.677,4.04l-0.157,0.258l0.3,0.33l0.122,-0.404l-0.265,-0.184Zm15.431,-2.239l0.313,0.402l0.348,0.547l0.209,-0.037l0.139,0.128l-0.937,-3.485l-0.141,1.241l0.069,1.204Zm18.315,-1.672l-0.039,0.759l0.41,0.379l0.245,-0.568l-0.616,-0.57Zm-36.143,3.103l0.055,0.452l0.302,0.561l-0.144,-0.589l-0.213,-0.424Zm12.245,-1.982l0.123,0.97l0.682,0.567l0.279,-0.887l0.034,-0.997l-1.118,0.347Zm31.331,-3.758l-0.323,-0.244l-0.089,0.315l0.324,0.244l0.088,-0.315Zm-27.908,0.726l1.012,1.501l0.174,-0.639l-1.186,-0.862Zm7.388,-2.333l-0.748,0.508l-0.056,1.604l0.87,-0.681l-0.066,-1.431Zm13.739,-0.837l-0.21,0.488l0.444,0.526l0.226,-0.415l-0.46,-0.599Zm-21.3,0.151l0.314,0.861l0.593,0.661l-0.104,-1.812l-0.803,0.29Zm5.231,0.477l-0.036,0.538l0.451,0.759l0.072,-0.848l-0.487,-0.449Zm-6.945,-2.169l-0.263,0.502l0.438,0.689l0.122,-0.631l-0.297,-0.56Zm9.319,-1.123l-0.21,0.263l0.243,0.339l0.175,-0.409l-0.208,-0.193Z"/><path d="M1225.07,408.67l-0.514,1.355l-0.422,-0.873l-0.633,-0.207l-0.619,-0.141l-0.262,-0.564l1.132,-0.248l-0.08,-0.397l-0.215,-0.575l-0.188,-0.443l0.177,-0.592l1.038,-0.226l-0.659,-0.825l-0.809,-0.101l-0.744,0.715l0.174,1.346l-2.045,-0.593l-2.903,-1.868l-2.696,-2.27l-1.437,-1.922l-2.917,0.344l-0.025,0.844l-0.216,0.884l-0.191,0.041l-0.431,-0.396l-0.556,-1l-0.618,-1.057l-0.617,-0.568l-0.648,0.488l-0.361,0.427l-0.22,-0.093l-1.482,-0.876l-2.611,-2.184l-2.758,-2.376l-1.816,-1.453l-1.66,-0.218l-0.99,-0.147l-0.478,-0.112l-2.548,-1.524l-2.544,-2.668l-2.436,-2.844l-2.083,-2.357l-1.414,-1.357l-1.112,-1.135l-0.829,-1.48l-0.694,-2.514l-0.03,-0.137l0.235,-0.334l0.275,-0.628l-0.89,-1.044l-1.001,-2.029l-0.093,-2.571l0.678,-1.859l0.87,-1.681l0.456,-2.175l2.132,-1.776l2.003,-1.893l0.851,-1.527l0.134,-0.817l0.522,-0.673l1.947,-0.942l0.52,0.046l0.682,0.087l0.758,0.933l0.405,-1.224l0.813,-1.946l0.78,-1.867l0.429,-0.869l1.45,-0.125l1.138,-0.641l-0.248,-1.674l1.331,-1.177l1.331,-1.175l0.003,-0.717l-0.065,-0.561l0.395,-0.789l0.966,-1.465l1.098,-1.559l0.764,-1.212l0.206,-0.968l0.576,-1.392l0.555,-1.245l0.312,-0.701l0.205,-1.469l0.596,-1.538l0.253,0.242l1.041,2.108l0.195,-0.034l0.577,-0.889l0.045,-1.511l-0.085,-0.415l-1.116,-1.739l-1.634,-0.792l-0.341,0.562l-0.187,0.822l-0.49,0.085l-0.268,-4.264l-0.057,-0.278l-0.852,1.297l-1.007,1.038l-1.35,-3.08l-0.394,0.067l-0.06,2.173l-0.326,2.361l-2.542,-2.66l-2.882,-1.31l-1.722,0.585l-0.195,2.494l0.099,-0.017l-0.528,-0.56l0.066,-0.662l-2.902,0.356l-0.129,-0.123l-0.356,-0.228l-0.228,-0.106l-0.169,0.174l-0.209,0.472l-0.169,0.174l-0.258,-0.246l-1.066,-1.632l-1.127,-1.915l-0.264,0.7l-0.523,1.181l-0.687,1.137l-0.726,0.707l-0.728,-2.933l-1.469,-2.521l-0.153,1.705l0.046,1.67l0.365,0.739l0.295,0.896l0.189,0.405l-0.04,0.298l-0.258,0.482l-0.389,0.358l-0.505,-1.88l-0.706,-1.848l-0.07,-0.572l-0.34,-0.38l-0.3,0.052l0.081,0.862l0.002,1.459l-0.213,1.424l-0.563,0.754l-0.23,-0.106l-0.542,-1.075l-0.304,0.272l-0.374,0.43l0.457,1.162l0.487,1.301l-0.985,-0.485l-1.017,-0.626l-0.295,-0.168l-0.396,-0.15l-0.561,-0.195l-0.523,2.869l-2.804,0.491l-0.339,0.352l0.737,4.112l-0.456,3.88l-0.339,0.353l-0.2,0.036l-0.42,-2.408l-0.231,-0.105l-0.431,-0.069l-0.356,1.233l0.107,1.443l1.071,2.29l1.069,2.285c-1.554,0.153 -1.433,1.815 -1.247,2.852l-0.399,0.074l0.236,1.559l0.753,-1.304l1.336,2.082l1.133,2.114l-0.047,0.736l-0.212,0.693l-0.28,0.851l0.1,1.651l0.498,1.574l-0.938,-0.983l-0.229,-0.101l-0.169,0.177l-0.444,0.81l0.13,0.12l0.551,2.289l0.847,2.229l1.301,1.703l1.749,0.456l0.169,2.206l-0.262,1.639l-0.288,1.283l0.054,1.431l0.06,0.277l0.496,0.623l0.465,0.484l0.629,2.897l0.17,2.914l-0.056,2.813l1.173,1.626l1.074,1.643l0.025,0.353l0.055,0.49l0.278,1.518l0.49,2.973l0.407,3.057l0.193,1.6l0.119,0.546l0.835,0.322l0.728,0.772l-0.063,0.654l-0.282,0.345l-0.209,0.685l0.159,1.675l0.059,0.272l0.183,-1.036l0.526,-0.396l0.289,1.574l0.192,1.593l-0.63,2.267l-1.368,2.144l-0.677,2.278l-0.748,1.016l-1.402,-0.119l-1.337,-0.276l-1.202,-6.438l-0.511,-0.461l-1.418,-3.199l-1.958,-6.824l-1.749,-7.259l-0.773,-4.457l-0.886,-1.915l-1.475,-4.116l-1.691,-5.321l-1.63,-5.499l-1.369,-4.548l-0.708,-2.494l-0.202,-0.911l-0.407,-1.605l-0.408,-1.607l-0.202,-0.914l-0.246,-1.345l-0.399,-2.272l-0.333,-2.213l-0.181,-1.288l-0.125,-0.565l-1.658,-4.407l-1.259,-4.492l0.215,-0.923l0.638,0.035l-0.528,-2.859l2.59,-0.158l0.356,-1.242l-3.167,0.404l0.273,-1.377l1.027,-2.247l-0.028,-0.365l0.136,-0.097l1.233,0.822l0.543,-3.49l0.848,-3.544l0.762,-1.311l1.487,-0.397l0.872,0.149l1.073,0.116l0.858,-0.144l0.44,-1.106l-0.595,-0.565l-0.867,-0.372l1.078,-1.065l0.774,-1.014l0.745,0.541l0.966,1.314l0.994,1.453l0.866,1.106l0.212,-1.433l-0.035,-2.569l0.148,-2.455l0.626,-1.207l0.261,5.549l0.129,5.415c0.041,0.282 0.442,3.005 2.348,2.679l-0.34,-3.02l-0.209,-2.899l-0.734,-0.023l0.009,-2.132l0.721,-1.001l0.698,-0.63l0.007,-1.177l0.881,0.222l0.788,-0.204l-0.426,-1.986l-0.683,0.7l-0.23,-1.799l0.324,-1.156l1.53,0.338l1.619,0.764l0.201,-0.033l0.171,-0.175l0.23,-0.624l0.3,-0.783l0.201,-0.032l0.131,0.125l0.658,1.872l0.472,0.509l0.516,-0.012l0.861,0.152l0.736,0.537l0.765,0.679l0.91,-0.589l0.3,-1.51l0.026,-1.832l0.116,-1.408l2.495,2.517l0.917,0.433l-0.38,0.646l-0.28,0.629l0.319,0.531l0.777,0.018l0.456,0.945l-0.597,0.099l0.028,0.869l0.397,0.662l0.628,-0.686l0.787,-0.422l0.398,-0.065l-0.781,2.166l-0.779,2.166l0.059,0.281l0.356,0.958l0.385,1.097l-1.093,0.185l0.296,1.403l0.931,1.003l0.404,-1.012l0.661,-0.765l0.569,0.266l0.5,0.423l-0.842,-4.502l1.437,0.485l1.413,1.357l1.212,1.389l0.936,0.565l-0.331,-1.102l0.852,-0.578l0.113,-1.176l-0.89,0.149l-1.273,-0.945l-1.184,-1.252l-0.681,-1.048l1.319,-0.074l0.081,-0.594l-0.275,-0.826l-0.374,-0.809l-0.573,-0.777l1.961,-1.92l0.041,0.937l-0.087,0.813l0.088,0.421l0.956,1.148l1.23,-0.493l0.402,-1.516l-0.058,-0.28l-0.166,-0.553l-0.265,-0.537l-0.245,-0.685l1.093,0.329l0.664,0.979l0.479,1.08l0.569,0.775l1.499,0.331l1.344,1.078l-0.357,0.493l0.094,0.706l0.23,1.117l0.468,0.787l0.993,-1.608l0.33,-2.363l2.63,4.892l1.555,5.626l0.716,1.024l1,0.688l0.951,0.695l0.594,1.184l0.05,0.492l-0.041,0.793l-0.201,0.75l-0.46,0.223l-0.999,-1.184l-0.638,-1.393l-0.151,1.744l2.891,2.783l0.112,0.551l0.126,0.121l-0.457,2.22l-0.985,1.602l1.246,0.918l0.786,1.142l-0.083,0.584l-1.209,-0.495l-1.252,-0.203l-0.028,-0.138l-0.554,1.241l-0.108,1.445l-0.473,0.157l-0.598,0.037l-0.444,0.793l-0.415,0.932l-0.041,0.293l0.364,0.789l0.517,1.045l0.049,2.697l-0.312,2.904l-0.967,-0.531l-0.855,0.016l-0.817,0.936l0.083,2.12l0.112,2.256l-0.508,1.448l-1.137,-6.481l-0.364,-0.289l-0.542,0.315l0.226,0.6l0.253,0.737l-0.207,0.467l-3.832,0.574l1.359,1.173l0.996,1.382l-1.416,0.981l0.067,2.269l-1.255,-2.615l-0.143,-0.687l0.738,-0.354l0.766,-0.215l-1.076,-0.297l-1.019,-0.023l-0.293,0.055l-0.667,0.698l0.316,1.512l0.941,2.32l1.009,2.16l-0.041,0.293l-0.985,0.617l-1.17,0.225l-1.415,-0.941l-1.32,-0.962l0.592,2.816l0.888,1.327l0.782,4.693l-1.915,-0.907l-0.44,-3.053l-0.611,0.476l-0.64,0.339l-0.757,-2.14l-0.165,-0.541l-0.331,-0.365l1.193,-0.373l-0.074,-1.559l-2.771,0.388l0.165,1.258l0.135,1.12l0.106,0.981l0.32,1.512l0.768,1.708l1.238,1.043l1.416,0.934l1.373,1.225l1.414,-0.991l0.866,0.753l0.62,1.512l2.648,-0.384l0.815,0.76l0.801,1.186l0.222,1.796l0.125,1.814l0.58,-0.117l0.02,-1.842l0.6,-1.959l0.202,0.243l0.036,0.417l0.084,0.407l0.093,0.688l0.024,0.844l-0.041,0.29l0.806,1.462l1.375,1.062l1.414,1.263l0.83,2.083l0.133,0.886l0.036,0.907l0.821,-0.872l1.069,-0.64l0.219,0.095l0.096,-0.019l0.392,0.692l0.419,0.825l0.287,-0.059l0.164,-0.174l-0.62,-2.539l1.259,-0.678l0.432,-0.087l0.458,0.046l0.418,0.826l0.582,0.652l1.024,-1.33l0.861,3.253l0.777,0.399l1.165,-0.38l2.02,0.909l0.149,0.248l-0.041,0.288l-0.102,0.23l-0.198,0.25l0.938,-0.264l0.896,0.023l0.244,0.228l0.176,0.382l0.285,-0.059l0.266,-0.891l0.361,-0.909l0.38,-0.079l-0.13,0.584l-0.225,0.603l0.318,0.351l0.264,0.085l0.231,-0.326l0.326,-0.346l1.448,0.326l1.064,1.375l-1.698,0.145l-1.916,0.051l0.081,0.401l1.75,1.093l1.294,1.533l1.23,1.473l1.586,1.049l0.6,-1.924l-0.14,-2.185l-0.341,-0.482l-0.301,-0.768l1.05,0.335l0.751,2.54l0.628,2.423l-0.015,0.418l0.052,0.265l-0.454,0.924l-0.281,1.302l0.212,2.299l0.306,2.277l-0.47,0.102l-0.57,-0.153l-0.69,-0.265l-0.29,0.269l0.139,0.453l0.974,1.443l0.904,5.03l-0.39,0.498l-0.839,0.46l-0.932,0.48l0.184,0.922l-0.582,-0.215l-1.084,-0.518l-1.16,-0.639l-0.898,-0.561l-0.516,-0.852l-0.41,-0.325Zm2.834,0.896l-0.237,0.534l0.354,0.542l0.21,-0.666l-0.327,-0.41Zm1.57,-3.925l0.376,-0.082l-0.482,-0.447l0.106,0.529Zm-10.08,-1.132l0.271,-0.614l-0.379,0.082l0.108,0.532Zm2.963,-1.472l-0.298,0.48l0.323,0.623l0.271,-0.613l-0.296,-0.49Zm-3.761,-0.994l0.38,-0.082l-0.041,-0.686l-0.379,0.082l0.04,0.686Zm12.002,-2.574l-0.103,0.712l0.408,0.327l0.224,-0.6l-0.529,-0.439Zm-0.335,-0.204l-0.13,0.58l0.247,0.499l0.197,-0.732l-0.314,-0.347Zm-53.601,10.444l0.388,0.841l0.658,0.212l0.195,-0.043l0.178,-0.821l0.081,-0.8l-0.059,-0.272l-1.017,-0.918l-0.53,0.614l0.106,1.187Zm39.735,-10.673l1.128,1.151l-0.245,-1.2l-0.883,0.049Zm9.143,-1.252l0.851,-0.181l-0.43,-0.67l-0.54,-0.232l-0.162,0.173l0.281,0.91Zm-12.342,-0.299l-0.177,0.596l0.042,0.689l0.015,0.555l0.297,-1.459l-0.15,-0.247l-0.027,-0.134Zm-2.113,0.868l0.382,-0.081l-0.083,-0.402l-0.382,0.081l0.083,0.402Zm-31.654,7.198l-0.223,0.617l0.362,0.491l0.125,-0.596l-0.264,-0.512Zm-1.797,-0.753l-0.091,0.518l0.299,0.435l0.189,-0.54l-0.397,-0.413Zm26.915,-8.564l-0.122,0.377l0.318,0.565l0.19,-0.532l-0.386,-0.41Zm2.686,-0.567l-0.163,0.175l0.247,0.228l0.164,-0.174l-0.248,-0.229Zm18.805,-3.256l-0.148,-0.246l-0.136,0.306l0.243,0.226l0.041,-0.286Zm-22.612,1.81l-0.056,-0.27l-0.232,0.331l0.152,0.249l0.136,-0.31Zm-1.22,-11.167l-0.045,-0.697l-0.289,0.059l0.334,0.638Zm1.142,-0.797l-0.088,0.301l0.132,0.396l0.157,-0.455l-0.201,-0.242Zm-4.222,-3.817l0.416,0.058l-0.313,-1.496l-0.416,-0.059l0.313,1.497Zm1.784,-0.641l0.29,-0.058l-0.113,-0.544l-0.291,0.058l0.114,0.544Zm-5.079,-2.534l0.303,-0.487l-0.533,-0.606l0.23,1.093Zm-23.2,0.454l0.678,-1.144l-0.821,0.018l0.143,1.126Zm19.764,-3.763l-0.206,0.469l0.437,0.627l0.177,-0.606l-0.408,-0.49Zm-22.666,-1.013l0.742,1.736l1.289,0.469l-2.031,-2.205Zm19.328,-0.331l-0.018,-0.569l-0.392,0.077l0.41,0.492Zm6.14,-0.775l0.275,-0.623l-0.39,0.076l0.115,0.547Zm-23.035,-0.526l0.707,0.874l-0.212,-0.97l-0.495,0.096Zm15.982,-3.963l-0.167,0.175l0.255,0.238l0.137,-0.313l-0.225,-0.1Zm-2.629,-1.79l0.736,0.576l0.05,-0.727l-0.786,0.151Zm3.77,-1.01l-0.29,0.557l0.298,0.445l0.192,-0.539l-0.2,-0.463Zm1.407,-2.993l-0.088,0.304l0.125,0.836l0.16,0.758l0.142,0.188l-0.008,-1.002l-0.331,-1.084Zm-3.75,1.575l-0.069,0.157l0.157,0.257l0.137,-0.314l-0.225,-0.1Zm4.898,-1.936l0.134,1.121l0.663,0.733l0.069,-0.157l0.18,-1.322l0.434,-1.085l0.224,0.101l0.683,0.586l0.282,0.376l0.225,0.1l0.635,-0.121l-0.93,-2.256l-1.946,-0.779l-0.483,1.094l-0.17,1.609Zm4.994,-4.806l-0.23,-1.102l-0.472,0.66l0.702,0.442Zm-27.847,1.313l0.298,0.89l0.267,0.75l0.329,0.083l0.169,-0.177l-0.409,-1.159l-0.776,-0.946l0.122,0.559Zm35.458,-6.155l0.316,0.797l0.413,0.779l0.284,-0.338l-0.036,-0.421l-0.407,-0.994l-0.894,-0.905l0.057,0.275l0.182,0.395l0.085,0.412Zm-5.907,1.806l-0.087,-0.413l-0.419,-0.066l0.506,0.479Zm2.709,-3.074l-0.492,0.805l-0.028,1.578l1.659,-0.307l-0.333,-1.367l-0.806,-0.709Zm-32.289,5.391l-0.169,0.177l0.061,0.28l0.238,-0.336l-0.13,-0.121Zm-6.345,-3.79l0.518,0.928l-0.117,-1.002l-0.401,0.074Zm4.082,0.564l0.5,-0.092l-0.123,-0.561l-0.5,0.092l0.123,0.561Zm39.005,-9.548l0.233,0.887l0.594,0.678l0.167,-0.173l0.305,-0.483l0.362,-0.208l-0.552,-3.186l-0.841,1.079l-0.268,1.406Zm1.874,-3.193l0.711,0.017l-0.225,-1.103l-0.809,0l0.323,1.086Zm-3.004,-1.326l0.407,0.5l0.223,0.104l0.098,-0.018l-0.911,-0.984l0.154,0.259l0.029,0.139Zm3.386,-2.744l1.606,1.433l-1.482,-2.313l-0.153,0.242l-0.125,0.379l0.154,0.259Zm-43.827,5.57l0.873,-0.302l-0.147,-1.147l-0.874,0.301l0.148,1.148Zm-5.192,-1.725l0.484,1.239l0.83,0.441l-0.437,-1.982l-0.877,0.302Zm6.528,-0.272l0.742,0.528l0.617,-0.036l-0.154,-0.705l-1.205,0.213Zm1.208,-4.026l0.597,1.068l1.077,0.398l0.494,-0.599l0.808,-1.313l0.712,-1.516l0.207,-1.208l-0.585,-0.778l-0.731,0.713l-1.051,0.915l-1.006,1.128l-0.522,1.192Zm36.549,-6.325l0.602,1.693l1.312,0.706l0.126,0.122l-0.812,-2.229l-0.785,-2.093l-0.225,-0.106l-0.348,0.779l0.13,1.128Zm3.215,2.317l-0.217,-0.32l-0.203,0.25l0.267,0.312l0.153,-0.242Zm-34.831,2.269l0.344,-0.572l-0.048,-0.943l-0.203,-0.697l-0.674,-0.47l0.581,2.682Zm-6.658,-0.899l0.387,0.815l0.596,0.337l-0.177,-1.291l-0.806,0.139Zm35.199,-3.303l0.197,-0.034l0.588,-0.605l0.379,-0.137l-0.543,-0.411l-0.457,0.006l-0.295,0.051l0.131,1.13Zm1.488,-0.687l-0.16,0.459l0.29,0.669l0.201,-0.753l-0.331,-0.375Zm-12.809,1.331l-0.158,-0.263l-0.238,0.331l0.277,0.098l0.119,-0.166Zm13.875,-5.543l1.104,0.173l0.402,0.723l0.283,0.887l0.774,0.802l-0.8,-4.898l-1.34,0.657l-0.423,1.656Zm-7.823,2.625l-0.061,0.445l0.393,0.655l0.13,-0.6l-0.462,-0.5Zm2.939,-2.088l0.039,2.159l0.226,0.106l0.462,-0.728l0.207,-0.973l-0.185,-0.402l-0.354,-0.229l-0.226,-0.106l-0.169,0.173Zm3.343,0.876l0.365,-0.206l-0.595,-0.908l0.23,1.114Zm-41.586,3.294l-0.139,0.319l0.296,0.392l0.007,-0.444l-0.164,-0.267Zm32.702,-4.245l-0.556,0.528l-0.299,0.776l1.148,0.095l-0.293,-1.399Zm5.447,-4.823l1.21,0.666l0.59,1.129l0.393,1.161l0.715,0.745l0.332,-1.354l-1.34,-3.53l-0.098,0.016l-0.453,-0.214l-0.739,0.628l-0.61,0.753Zm-31.835,6.812l0.403,-0.068l-0.464,-2.13l-0.403,0.068l0.464,2.13Zm17.152,-4.797l0.448,2.112l1.304,0.799l-0.179,-0.843l-0.362,-1.469l-0.597,-1.358l-0.943,-0.791l0.265,0.758l0.064,0.792Zm-18.843,3.759l-0.155,0.247l0.279,0.321l0.124,-0.389l-0.248,-0.179Zm14.759,-2.051l0.29,0.389l0.32,0.531l0.2,-0.034l0.13,0.124l-0.822,-3.369l-0.159,1.196l0.041,1.163Zm17.492,-1.485l-0.052,0.732l0.383,0.369l0.244,-0.547l-0.575,-0.554Zm-34.52,2.74l0.043,0.435l0.276,0.544l-0.125,-0.57l-0.194,-0.409Zm11.716,-1.826l0.098,0.936l0.638,0.552l0.284,-0.853l0.053,-0.962l-1.073,0.327Zm29.942,-3.406l-0.303,-0.238l-0.091,0.304l0.303,0.237l0.091,-0.303Zm-26.617,0.505l0.934,1.455l0.18,-0.616l-1.114,-0.839Zm7.091,-2.199l-0.724,0.484l-0.085,1.547l0.843,-0.651l-0.034,-1.38Zm13.112,-0.711l-0.21,0.469l0.413,0.511l0.224,-0.399l-0.427,-0.581Zm-20.307,-0.004l0.282,0.833l0.552,0.641l-0.062,-1.748l-0.772,0.274Zm4.978,0.497l-0.045,0.519l0.415,0.735l0.085,-0.818l-0.455,-0.436Zm-6.577,-2.142l-0.26,0.484l0.403,0.667l0.129,-0.608l-0.272,-0.543Zm8.907,-1.017l-0.205,0.253l0.224,0.328l0.175,-0.394l-0.194,-0.187Z"/><path d="M1287.47,386.907l0.498,-0.37l-0.092,-0.515l-0.635,-0.402l-0.725,0.151l-0.16,-0.367l-0.273,-0.478l-0.446,-0.911l-0.354,-0.93l-1.738,-2.858l-0.711,-1.331l-0.311,-0.675l-0.574,-1.093l-0.53,-1.102l-0.357,-0.668l-0.485,-1.114l-0.763,-1.868l-0.823,-1.927l-0.592,-1.436l-0.441,-0.859l-0.325,-0.747l-0.292,-0.822l-0.383,-0.804l-0.072,-0.393l-0.265,-0.151l-0.289,-0.282l-0.362,-0.946l-0.271,-0.964l-0.191,-1.048l-0.742,-0.671l-0.835,-0.654l-0.892,-0.44l-0.753,-0.195l-1.071,0.682l-0.979,0.665l-0.555,0.107l-0.396,-0.332l-0.514,-0.446l-0.741,0.143l-0.505,0.643l-0.529,0.511l-0.73,0.21l-0.916,0.245l-1.114,0.216l-0.675,-0.007l-0.746,-0.129l-0.654,-0.147l-0.738,0.691l-0.919,0.246l-1.037,0.133l-0.475,0.298l-0.569,0.316l-0.78,0.22l-0.713,0.07l-1.419,0.687l-1.351,0.539l-0.612,-0.156l-0.73,-0.27l-0.281,0.054l-0.342,0.755l-1.217,0.238l-0.521,0.583l-0.401,0.698l-0.036,0.834l0.084,0.947l-0.213,-0.096l-0.535,-0.514l-0.324,-0.419l-0.208,-0.579l0.005,-0.483l-0.743,0.697l-0.477,-0.458l-0.29,-0.496l-0.316,-0.628l-0.512,0.376l0.196,0.514l-0.017,0.418l-0.043,0.284l-0.231,0.321l-0.701,1.173l-0.794,1.192l0.102,0.532l0.342,0.76l0.316,0.627l0.102,0.531l-0.452,1.192l0.008,2.065l-0.213,-0.095l-0.478,-0.455l-0.256,-1.327l-2.37,-2.151l-0.565,0.112l-0.205,0.456l-0.024,1.386l0.071,1.368l-0.068,0.911l0.053,1.025l0.214,0.095l0.162,-0.171l0.149,-0.237l0.218,-0.389l0.196,-1.005l0.289,-1.024l0.317,0.626l0.223,0.646l-0.217,1.147l-0.217,1.146l0.334,1.724l0.437,2.252l0.576,1.464l0.575,1.462l0.205,1.057l-0.851,0.382l-0.757,0.363l-0.506,0.654l-0.506,0.655l-0.283,-1.454l-0.136,0.303l-0.161,0.172l-0.094,0.019l-0.324,0.342l-0.255,0.191l-0.002,1.238l0.065,1.087l0.49,-0.24l0.54,0.024l0.626,0.213l0.49,0.515l-0.254,0.946l-0.399,0.701l-0.076,1.114l-0.194,1.001l-0.542,1.212l-0.842,0.179l-1.034,-0.055l-1.129,-0.036l-0.549,0.185l-0.575,0.054l-0.312,-0.347l-0.339,-0.478l-0.598,-3.041l-0.538,-0.99l-0.632,-0.972l-0.366,-1.856l0.037,-1.804l0.078,-0.846l-0.041,-0.959l0.445,-0.229l0.214,0.094l0.189,-0.039l0.463,0.112l0.369,0.132l0.047,-1.254l-0.046,-1.234l-0.706,-1.101l0.228,-1.084l0.323,-1.103l-0.285,-0.704l-0.501,-0.799l-0.336,-0.21l-0.241,-0.229l-0.157,-0.8l0.136,-0.305l0.257,-0.19l0.549,-0.456l0.454,-0.438l-0.209,-1.067l-0.47,-0.392l-0.375,-0.411l-0.147,-0.248l-0.053,-0.267l0.016,-0.42l-0.115,-1.088l-0.021,-1.108l0.037,-0.563l0.105,-0.716l0.786,0.749l0.88,0.73l0.757,-0.15l-0.081,-1.163l0.041,-1.049l0.179,-0.591l0.317,-0.895l-0.272,-1.892l-0.434,-1.723l0.343,-0.762l0.124,-0.371l0.192,-0.524l0.18,-0.591l-0.52,-1.153l-0.455,-0.819l-0.386,-0.971l-0.184,-0.941l0.242,0.233l0.312,0.08l0.916,0.662l0.794,0.546l0.569,-0.109l0.275,-0.608l0.395,-0.493l-0.342,-1.257l-0.153,-1.294l0.007,-0.976l-0.035,-0.69l-0.174,-0.386l-0.536,-0.736l0.854,-0.159l0.31,-0.685l0.215,-0.668l0.011,-1.466l-0.015,-1.601l0.042,-1.055l0.232,-1.089l0.138,-0.305l0.043,-0.287l1.262,1.444l0.457,-1.199l-1.094,-5.668l0.467,-0.643l0.485,0.473l0.472,1.173l0.402,1.323l0.389,2.022l0.483,0.47l0.474,-0.086l0.087,-0.573l-0.009,-0.556l-0.151,-1.297l-0.341,-1.264l0.423,-0.355l0.328,-0.338l0.397,-0.489l-0.103,-0.54l-0.539,-0.253l-0.514,-0.117l-0.195,-0.245l-0.289,-0.228l-0.813,-0.903l-0.693,-0.786l-0.485,-0.474l-0.314,-1.625l0.104,-0.228l0.199,-0.246l0.546,-1.006l0.641,-1.022l0.255,-0.465l0.039,-0.567l0.165,-0.169l0.233,-0.32l0.022,-0.915l0.048,-0.779l-0.083,-0.686l-0.056,-0.551l0.52,-0.37l0.694,-0.75l0.433,-0.565l-0.779,-4.075l0.182,-0.593l0.669,-0.112l0.599,0.04l-0.468,-2.449l0.687,-0.536l0.421,-0.631l0.179,-0.873l-0.372,-0.921l-0.2,-0.529l0.487,-0.291l0.461,-0.427l0.048,-0.781l0.214,-0.949l-0.103,-0.545l-0.273,-0.659l-0.46,-1.121l-0.364,-1.137l-0.178,-0.676l0.201,-1.018l0.297,-1.034l0.862,-0.138l-0.008,-0.562l0.184,-0.593l0.532,-0.577l0.41,-0.699l0.366,-0.41l0.315,-0.684l0.554,1.109l0.694,0.805l0.816,0.151l0.713,-0.394l5.8,2.16l0.351,0.573l0.446,0.558l0.145,0.256l0.215,0.105l0.867,-0.07l0.746,-0.19l0.145,0.256l0.334,0.226l0.12,0.12l-0.461,0.144l-0.316,0.4l-0.257,0.46l-0.041,0.565l-0.264,0.95l-0.193,0.798l0.091,0.753l0.116,0.887l0.261,1.142l0.21,0.871l0.317,0.922l0.412,0.906l0.503,0.611l0.85,-0.141l0.519,1.233l0.782,1.604l0.576,1.012l0.371,0.7l0.49,0.817l0.263,0.371l0.469,1.235l0.637,1.62l0.172,0.937l0.749,2.494l0.118,0.118l0.261,0.368l0.379,0.486l0.456,1.436l0.456,1.435l0.532,0.801l0.508,0.666l0.559,3.061l0.284,0.499l0.352,0.348l0.985,0.921l0.984,0.919l0.072,0.397l-0.833,0.699l0.169,0.928l0.329,0.488l0.422,0.47l0.467,0.462l1.034,1.997l0.209,0.098l0.326,0.213l0.442,0.328l0.472,1.55l0.564,1.53l0.73,0.341l0.914,0.306l0.211,0.641l0.026,0.675l0.556,0.439l0.277,-0.051l0.289,0.285l0.197,0.302l-0.275,0.324l-0.608,0.589l-0.608,0.59l-0.275,0.324l0.003,0.543l0.047,0.262l0.14,0.245l1.041,1.024l0.602,0.699l0.18,-0.847l0.296,-0.734l0.125,-0.363l0.562,-0.581l0.237,1.852l-0.113,0.428l-0.021,0.411l0.117,0.654l0.186,0.506l0.254,0.358l0.352,1.961l0.761,1.069l0.623,1.365l0.689,0.675l0.164,0.912l0.633,1.426l0.793,1.796l-0.316,1.408l-0.315,1.407l1.116,-0.625l0.731,0.929l0.799,0.781l0.41,0.186l0.114,0.111l0.181,-0.036l0.205,0.093l0.469,1.314l0.672,1.405l0.421,0.784l0.284,0.545l0.341,1.134l0.568,1.621l0.511,1.563l0.261,0.947l0.227,1.019l0.113,0.91l0.226,0.486l0.294,0.338l0.181,1.027l-0.992,1.005l-0.969,1.134l-0.045,0.542l-0.157,0.432l-0.575,0.453l-0.508,0.307l-0.316,0.332l-0.429,0.224l-0.317,-0.2l-0.476,-0.567l-0.703,-0.786l-0.138,-0.772Zm-47.467,7.672l0.468,-0.099l-0.103,-0.528l-0.468,0.099l0.103,0.528Zm-0.568,-2.904l0.443,-0.231l0.271,-0.607l0.017,-0.416l-0.172,-0.377l-0.026,-0.132l-0.491,-0.517l-0.56,-0.365l0.518,2.645Zm0.887,-4.451l-0.204,0.455l0.359,0.339l0.204,-0.456l-0.359,-0.338Zm3.932,-6.864l0.034,-0.832l0.068,-0.152l0.043,-0.284l0.494,-0.719l0.52,-0.587l0.452,-0.435l1.107,-0.567l-0.06,0.699l-0.204,0.454l-0.592,0.464l-0.498,0.444l-0.673,0.55l-0.367,0.624l0.128,0.662l0.724,1.228l-0.468,0.096l-0.183,-0.444l-0.209,-0.577l-0.145,-0.245l-0.171,-0.379Zm-1.423,-9.368l0.239,-1.291l-0.214,-0.096l-0.308,-0.078l0.283,1.465Zm-2.432,0.066l0.124,-0.37l0.192,-0.523l-0.052,-0.266l-0.472,0.093l0.208,1.066Zm5.51,-3.849l-0.179,0.588l0.384,0.477l0.086,-0.569l-0.291,-0.496Zm-5.765,0.021l0.361,0.345l0.404,0.06l0.188,-0.037l-0.103,-0.534l-0.85,0.166Zm13.441,-2.62l0.374,-0.073l-0.101,-0.53l-0.374,0.072l0.101,0.531Zm-14.299,-1.792l0.043,-0.286l0.137,-0.304l0.042,-0.286l-0.172,-0.384l-0.216,-0.097l-0.147,-0.25l0.313,1.607Zm-0.969,-2.455l-0.193,0.524l0.376,0.415l0.287,-0.542l-0.47,-0.397Zm27.228,-4.635l-0.352,-0.344l-0.206,0.45l0.558,-0.106Zm5.754,-1.089l-0.211,-0.369l-0.16,0.439l0.371,-0.07Zm-0.314,-1.715l-0.169,0.647l0.386,0.541l0.17,-0.646l-0.387,-0.542Zm-11.345,0.627l-0.1,0.5l0.274,0.43l0.38,-0.553l-0.554,-0.377Zm0.486,-0.504l0.33,0.213l0.398,0.063l0.364,0.137l0.457,0.12l0.585,0.028l1.212,-0.228l1.583,-0.298l0.975,-0.457l1.161,-0.492l1.21,0.047l1.116,0.064l0.835,-0.157l-0.3,-1.378l-0.487,-1.345l-0.791,-1.428l-1.071,-1.378l-0.377,-0.479l-0.563,-0.445l-0.51,-0.936l-0.604,-0.92l-0.415,-0.68l-0.229,-0.715l-0.602,-0.647l-0.51,-0.665l-0.5,-0.874l-0.883,-1.633l-1.016,-1.82l-0.803,-1.446l-0.853,-1.717l-1.024,-2.105l-0.314,-0.638l-0.339,-0.773l-0.289,-0.504l-0.194,-0.522l-0.441,-1.312l-0.415,-1.179l-0.409,-0.625l-0.36,-0.355l-0.176,-0.944l-0.433,-0.483l-0.501,-0.332l-0.215,-0.102l-0.069,0.151l-0.116,1.203l-0.022,1.188l0.127,0.674l0.744,0.845l0.117,0.884l0.186,0.732l0.196,0.521l0.29,0.506l0.327,1.747l0.352,1.88l-0.581,-0.244l-0.676,-0.228l-0.566,0.1l0.101,0.537l0.17,0.386l0.575,0.731l0.481,0.746l-0.282,0.05l-1.9,-0.772l-0.377,0.067l-0.138,0.302l-0.044,0.286l-0.472,0.083l-0.385,-0.487l-0.196,-0.521l-1.229,0.218l0.684,1.547l1.876,0.637l0.304,1.61l0.387,0.762l0.55,0.594l-0.276,0.603l0.008,1.591l-0.181,1.625l-0.275,0.604l-0.113,0.435l-0.125,0.369l-0.056,0.218l-0.084,0.845l-0.015,0.694l-0.383,-0.482l-0.274,-1.195l-0.181,-1.213l-0.349,-0.56l-0.393,-0.275l-0.242,0.529l-0.335,0.547l-0.052,0.494l0.041,0.478l0.033,0.686l0.228,1.205l0.225,0.927l0.198,0.793l0.275,1.194l0.369,1.175l0.373,-2.142l0.376,-0.07l0.182,0.45l0.207,0.583l-0.139,1.061l-0.071,0.911l0.126,0.667l0.569,0.444l0.451,0.329l3.558,-0.669l0.237,0.231l0.305,0.08l0.349,-0.203l0.418,-0.354Zm-8.301,-0.787l-0.112,0.435l0.43,2.268l0.3,-0.471l-0.001,-1.035l0.023,-0.903l-0.264,-0.365l-0.238,-0.232l-0.138,0.303Zm-4.572,0.579l0.282,0.709l0.496,0.807l0.24,0.232l0.214,0.098l1.506,-0.283l0.112,-0.436l0.125,-0.37l0.03,-0.351l-0.087,-1.229l-0.113,-1.364l0.318,-0.89l-0.305,-1.606l-0.364,-0.626l-0.389,-0.761l-0.385,-0.484l-0.039,0.563l-0.254,0.463l-0.779,1.808l-0.993,1.711l0.385,2.009Zm-5.861,1.099l-0.439,0.778l-0.137,0.304l0.757,-0.142l-0.181,-0.94Zm5.358,-6.279l0.473,-0.087l-0.12,-0.117l-0.051,-0.269l-0.481,-0.467l0.179,0.94Zm5.537,-16.151l0.397,-0.487l-0.473,0.083l0.076,0.404Zm-5.039,-0.234l-0.182,0.591l0.388,0.49l0.182,-0.59l-0.388,-0.491Zm-3.346,-0.534l-0.181,0.592l0.389,0.491l0.087,-0.575l-0.295,-0.508Zm3.66,-15.898l-0.077,-0.408l-0.573,0.094l0.65,0.314Z"/><path d="M1309.65,379.003l-0.018,-0.92l0.093,-0.81l-0.185,-0.82l-0.097,-0.838l0.162,-1.221l-0.388,-2.829l-0.39,-2.834l0.223,0.221l0.622,0.935l0.111,0.11l0.246,-0.182l0.271,-0.583l-0.998,-1.522l-0.087,-0.512l0.261,-0.913l0.173,-0.894l-0.286,-1.137l-0.337,0.199l-0.269,0.052l-0.313,-0.204l-0.245,-0.35l0.317,-0.592l0.295,-0.721l-0.284,-1.67l-0.267,-0.48l-0.246,-0.351l-0.57,-0.621l-0.458,-0.51l-0.357,-0.729l-0.177,-0.765l0.54,-0.104l-0.251,-1.749l-0.23,-1.622l-0.444,-1.783l-0.601,-2.156l-0.391,-0.929l-0.324,-1.076l-0.111,-0.648l0.3,-1.795l0.323,-1.665l-0.111,-0.649l-0.904,-0.371l-0.54,-0.973l-0.112,-0.651l-0.097,-1.391l-0.029,-1.538l-0.156,-0.913l-0.328,-0.545l-0.237,-0.563l-0.109,-1.46l0.004,-1.346l-0.165,-2.058l-0.31,-3.18l-0.253,-3.128l-0.222,-2.123l0.161,-0.433l0.024,-0.68l-0.658,-1.647l-0.089,-1.068l-1.282,0.217l0.001,-0.542l0.243,-1.058l0.173,-0.368l0.344,-0.193l0.39,-0.472l0.139,-0.565l0.025,-0.682l-0.068,-0.395l-0.412,-0.203l-0.434,-0.335l-1.307,-0.462l-0.918,-0.391l-1.747,0.289l-1.75,0.29l-0.738,0.667l-0.714,0.8l-0.461,-0.468l-0.554,-0.999l-0.532,-0.595l-0.508,-0.462l-0.37,0.061l-0.242,0.245l-0.104,0.495l0,0.547l0.116,0.663l-0.115,-0.117l-0.208,-0.102l-0.718,-0.564l-0.672,-0.846l-0.858,-1.09l-0.837,-0.958l-0.244,-0.302l-0.221,-0.17l-1.114,0.183l-0.279,-0.229l-0.303,-0.362l-0.14,-0.252l0.046,-0.282l0.359,-0.401l0.29,-0.253l-0.071,-0.4l-0.024,-0.408l-0,-0.275l-0.106,-0.326l-0.129,-0.46l-0.094,-0.534l-0.468,-1.024l-0.165,-0.661l-0.188,-0.795l-0.142,-0.803l-0.002,-0.55l-0.025,-0.96l-0.003,-0.826l-0.331,-1.876l0.069,-0.149l0.163,-0.163l0.14,-0.298l0.947,0.747l0.945,0.746l0.349,-0.192l0.163,-0.163l-0.542,-3.082l1.265,3.93l0.838,-0.132l0.347,-0.741l-0.492,-2.81l2.512,0.159l0.094,0.534l-0.174,0.92l0.012,0.89l0.65,0.447l0.302,0.089l0.789,0.151l0.88,0.135l0.093,0.533l-0.186,1.125l-0.162,1.258l-0.046,0.281l0.115,0.665l0.139,0.252l0.833,0.413l0.462,-0.074l0.694,-0.657l0.693,-0.657l0.278,-0.591l0.255,-0.723l-0.115,-0.665l-0.554,-1.006l0.221,-0.924l0.313,-0.938l-0.161,-0.659l-0.046,-0.54l0.498,-0.42l0.521,-0.286l0.498,-0.693l0.521,-0.559l0.462,-0.072l0.717,-0.247l0.334,0.017l0.427,0.002l0.462,-0.071l0.46,0.475l0.449,0.135l0.379,0.282l0.408,2.391l0.229,0.236l0.321,0.222l0.165,-1.251l0.336,-0.802l0.29,-0.522l0.413,0.208l0.435,0.341l0.828,-0.128l0.991,-0.834l0.561,0.253l0.469,0.267l0.619,0.039l0.71,0.026l0.108,1.205l0.153,1.468l-0.3,0.454l-0.458,0.072l0.866,5.148l0.28,-1.127l0.507,-0.894l0.394,-1.01l0.225,-1.458l0.042,-1.429l0.036,-0.344l0.106,-0.491l0.117,-0.425l0.138,-0.293l0.202,0.646l0.224,0.778l0.432,0.339l0.508,-0.892l0.507,-0.892l0.161,-0.16l0.113,0.117l0.629,1.526l0.657,0.573l0.729,-0.115l0.68,0.433l0.701,0.565l0.36,0.483l0.177,0.511l0.05,-0.547l0.141,-0.562l-0.109,-0.657l0.141,-0.562l0.119,-0.693l0.392,0.68l0.531,0.389l0.906,0.127l0.794,0.01l0.038,0.801l-0.095,0.554l-0.005,0.539l0.192,1.449l0.282,1.434l-0.04,0.611l-0.145,1.098l-0.134,1.163l-0.029,0.676l0.28,1.7l0.709,1.492l0.04,0.53l0.131,0.514l0.256,0.427l0.303,0.151l0.111,0.115l0.452,-0.075l0.069,-0.145l0.143,-0.827l0.031,-0.942l0.318,-0.32l0.409,-0.335l0.106,-1.624l-0.237,-1.167l-0.216,-1.037l-0.723,0.117l0.438,-1.01l0.439,-1.009l-0.112,-0.117l-0.107,-0.653l-0.34,0.188l-0.25,0.174l-0.315,-0.218l-0.224,-0.233l-0.922,-0.524l-0.172,-1.048l0.298,-0.451l0.411,-0.334l0.815,-0.129l0.496,0.19l0.426,0.336l0.307,1.025l0.327,1.155l0.553,3.395l0.416,1.138l0.626,1.569l0.669,1.561l0.439,0.996l0.328,-0.255l0.308,-0.384l0.227,-0.304l0.117,-0.42l-0.611,-3.774l0.276,-0.579l0.159,-0.159l0.202,0.101l0.835,0.599l1.479,1.161l0.239,0.628l0.308,0.483l0.078,1.053l0.986,-0.162l0.243,1.225l0.4,1.064l0.417,0.596l0.575,0.436l0.503,0.846l0.46,0.586l0.453,2.841l0.007,1.192l-0.014,1.061l0.254,1.016l0.11,0.114l0.178,-0.031l0.137,-0.288l0.117,-0.417l0.445,-0.076l0.318,1.136l0.406,1.12l0.707,1.001l0.795,0.984l-0.274,0.575l0.306,1.068l0.395,1.051l0.057,0.648l0.125,0.505l0.436,0.45l0.197,0.097l0.157,-0.159l0.131,-0.615l0.041,-0.6l-0.304,-1.065l-0.394,-1.052l0.354,-0.061l0.716,0.205l0.538,0.236l1.392,1.335l-0.294,1.891l-0.313,1.762l0.161,1.022l0.454,0.575l0.188,0.623l0.036,0.518l0.016,0.39l-0.136,0.286l-0.048,0.271l-0.068,0.144l0.24,1.529l0.361,0.851l0.272,0.867l0.06,0.382l-0.002,0.85l-0.091,0.867l-0.082,0.341l-0.17,0.358l-0.192,-0.357l-0.26,-0.214l-0.332,0.192l-0.244,0.175l0.66,4.192l-0.403,0.597l-0.316,0.581l-0.144,0.811l0.053,0.904l-0.19,0.231l-0.17,0.358l-0.583,0.893l-1.11,5.559l-0.871,-0.355l-0.312,1.169l-0.4,1.185l-0.271,0.574l0.243,0.671l0.311,0.526l0.06,0.379l-0.115,0.413l-0.135,0.287l-0.44,0.086l-1.304,-0.79l-0.068,0.143l-0.034,0.92l0.075,1.029l0.432,0.437l0.372,0.057l0.013,0.649l-0.203,0.431l-0.291,0.447l-0.31,0.322l-0.223,0.304l-0.135,0.288l-0.355,1.177l-0.355,1.177l-0.472,1.005l-0.385,0.989l-0.182,0.557l-0.229,0.827l-0.135,0.287l-0.155,0.161l-0.196,-0.09l-0.623,-1.048l-0.352,0.07l0.008,1.172l-0.08,1.188l-0.27,0.575l-0.218,0.891l-0.239,0.764l-0.387,-0.703l-0.65,-0.65l-0.321,0.26l-0.301,0.387l-0.303,0.648l-0.324,0.522l-0.248,-0.406l-0.269,-0.532l-0.435,-0.434l-0.446,0.612l-0.141,0.811l-0.295,0.974l-0.425,0.739l-0.534,0.631l-0.369,-0.577l-0.259,-0.47l-0.239,-0.343l-0.13,-0.235l-0.441,0.09l-0.205,0.695l-0.314,0.587l-0.566,0.442l-0.477,0.424l-0.979,0.986l-0.979,0.985l-0.068,0.145l-0.176,0.037l-0.198,-0.091l-0.27,-0.795l-0.426,-0.633l-1.168,-0.416l-0.22,-0.217l-0.308,-0.2l-0.11,-0.108l-0.156,0.163l-0.089,0.018l-1.225,4.187l-0.445,0.354l-0.623,0.391l-0.333,0.201l-0.799,0.165l-0.288,-0.071l-0.974,-0.324l-0.73,-0.506l-0.531,-0.417l-0.259,-1.526l-0.644,-0.262l-0.623,-0.136l-0.443,-0.436Zm11.456,-1.819l0.354,-0.072l-0.084,-0.507l-0.27,0.579Zm-9.46,-4.918l0.395,0.976l0.331,0.593l0.42,0.574l0.398,0.446l-0.646,-3.825l-0.532,-0.421l-0.179,0.035l-0.274,1.111l0.087,0.511Zm-0.772,2.531l0.357,-0.072l-0.108,-0.638l-0.249,0.71Zm4.89,-5.992l0.612,1.458l0.236,1.138l0.126,1.027l0.441,0.437l0.183,-0.826l-0.015,-0.917l-0.362,-2.165l-0.221,-0.219l-0.309,-0.202l-0.378,-0.057l-0.267,0.053l-0.111,-0.11l0.065,0.383Zm13.19,-1.05l0.353,-0.07l-0.186,-1.139l-0.353,0.07l0.186,1.139Zm-15.801,1.966l0.271,-0.582l-0.443,-0.44l-0.271,0.582l0.443,0.44Zm4.898,-3.741l0.956,1.325l1,1.051l0.199,0.091l0.177,-0.035l0.068,-0.145l0.226,-0.57l0.315,-0.588l1.154,-0.229l0.093,-0.544l0.072,-0.67l0.691,-0.531l0.649,-0.784l0.354,-0.069l0.318,0.265l0.298,0.138l0.708,-0.139l0.104,-0.479l-0.026,-0.717l0.802,-0.681l0.505,-0.82l0.396,-0.93l0.396,0.185l0.374,0.059l0.629,-0.058l0.609,-0.183l0.5,0.557l0.568,0.412l-0.556,-3.427l0.683,-0.001l0.663,-0.128l0.366,-0.267l0.346,-0.394l-0.001,-1.701l0.135,-0.288l0.245,-0.178l0.335,-0.457l0.357,-0.33l0.766,-1.455l1.012,-1.632l0.339,-0.719l0.292,-0.448l0.088,-1.719l0.157,-1.863l-0.081,-1.361l0.007,-1.379l0.188,-0.821l0.255,-0.966l0.16,-0.423l0.18,-0.295l0.313,-0.32l0.422,-0.208l0.286,-0.774l0.218,-0.63l-0.243,-1.531l-0.218,-0.224l-0.129,-0.239l-0.108,-0.112l-0.205,0.431l-0.048,0.272l-0.14,0.551l-0.119,0.678l-0.354,0.064l-0.228,-0.287l-0.337,-0.398l-0.327,-0.336l-0.037,-0.519l0.119,-0.679l-0.081,-0.511l-0.791,-0.384l-0.239,-0.352l-0.219,-0.225l-0.659,-1.265l-0.592,-1.411l-0.568,-0.691l-0.501,-0.836l-0.295,-0.41l-0.227,-0.555l-0.765,-1.056l-0.726,-0.799l-0.337,-0.67l-0.228,-0.556l-0.578,-2.154l-0.511,-2.302l-0.421,-0.326l-0.298,0.715l-0.409,0.602l-0.269,0.046l-0.363,-0.535l-0.274,-0.552l-0.654,0.512l-0.84,-1.187l-0.862,-1.319l-0.423,-0.328l-0.627,-0.16l-0.649,-0.29l-0.495,-1.319l-0.335,-1.481l-0.66,0.78l-0.681,0.65l-0.362,0.061l0.132,-0.892l-0.049,-0.862l-0.448,-0.46l-0.183,0.298l-0.092,0.284l-0.174,0.631l-0.196,0.502l-0.112,-0.115l-0.245,-0.36l-0.625,-0.968l-0.199,-0.637l-0.108,-0.652l-0.09,0.015l-0.069,0.145l-0.349,1.266l-0.275,0.583l-0.168,-0.173l-0.19,-0.304l-0.085,-0.791l-0.197,-0.906l-0.269,-0.493l-0.38,-0.608l-0.312,-0.755l-0.403,-0.74l-0.364,0.06l-0.661,0.513l-0.454,0.075l-0.154,1.035l-0.289,0.788l-0.251,0.177l-0.363,0.06l-0.408,-0.201l-0.248,-0.363l0.223,-1.182l0.223,-1.182l0.096,-0.825l0.004,-0.81l0.277,-0.584l0.118,-0.694l0.048,-0.547l0.048,-0.278l-0.135,-0.248l-0.022,-0.131l-0.384,-0.613l-0.522,-0.32l-1.429,3.204l0.264,1.576l-0.587,1.244l-0.678,1.26l-0.353,0.126l-0.467,0.01l-0.276,0.586l0.288,1.706l0.288,1.705l0.456,-0.347l0.275,-0.316l0.204,0.101l0.091,-0.016l0.113,0.116l0.044,0.262l-0.347,1.271l-0.46,1.155l0.088,0.524l0.536,-0.428l0.558,-0.297l0.306,0.15l0.236,0.296l0.269,0.761l0.289,0.891l0.526,1.186l0.322,1.085l0.111,0.384l0.133,0.513l-0.003,0.537l0.044,0.261l-0.387,0.469l-0.297,0.454l-0.319,0.324l-0.274,0.585l0.109,0.651l0.247,0.359l0.203,0.098l0.34,-0.194l0.297,-0.454l0.256,-1.25l0.156,0.374l0.065,0.391l0.062,0.927l-0.39,1.005l-0.48,1.022l0.35,2.08l0.56,0.569l0.134,0.243l-0.068,0.146l-0.094,0.551l-0.227,0.308l-0.405,-0.195l-0.539,-0.438l0.131,0.779l0.715,1.208l0.555,1.369l0.219,1.028l0.151,1.173l0.223,0.226l0.314,0.21l0.482,0.112l0.325,0.273l0.086,0.517l0.112,0.113l-0.047,0.275l0.043,0.258l-0.165,1.229l-0.165,1.228l0.399,0.724l0.579,0.69l1.289,7.717l-0.182,0.564l-0.072,0.676l0.307,0.735l0.397,0.718l0.471,1.165l0.338,0.925l0.192,1.152l-0.057,0.209l-0.125,0.354l-0.093,0.546l0.426,2.555l0.319,1.913Zm-2.943,1.109l-0.114,0.419l0.221,0.22l0.124,-0.355l-0.231,-0.284Zm7.917,-2.09l-0.26,0.643l0.449,0.502l0.26,-0.642l-0.449,-0.503Zm10.957,-2.675l-0.182,0.558l0.345,0.454l0.182,-0.558l-0.345,-0.454Zm-5.916,-0.019l-0.172,0.623l0.358,0.519l0.172,-0.622l-0.358,-0.52Zm-21.065,-12.494l-0.114,0.421l-0.137,0.293l0.018,1.197l0.086,1.051l0.631,-0.12l0.273,-0.584l0.055,-2.41l-0.812,0.152Zm2.2,1.453l-0.178,-0.233l-0.272,0.318l0.45,-0.085Zm26.743,-6.182l-0.214,0.367l0.315,0.269l-0.101,-0.636Zm-22.163,2.531l0.449,-0.084l-0.108,-0.645l-0.341,0.729Zm19.465,-19.417l-0.284,0.513l0.428,0.387l0.106,-0.481l-0.25,-0.419Zm-3.239,-2.479l-0.364,0.593l-0.164,0.691l-0.064,0.74l0.005,0.595l0.525,-0.158l0.435,-0.142l0.254,-0.706l-0.166,-1.031l-0.461,-0.582Zm4.546,0.931l0.356,-0.062l-0.082,-0.514l-0.356,0.062l0.082,0.514Zm-30.815,-0.933l-0.264,0.652l0.465,0.526l0.264,-0.652l-0.465,-0.526Zm22.321,-4.499l0.365,-0.594l-0.449,0.076l0.084,0.518Zm0.087,-4.009l0.234,1.159l0.324,1.144l0.198,0.365l0.266,0.221l0.137,-0.289l0.117,-0.419l0.17,-1.226l-0.398,-0.466l-0.509,-0.58l-0.539,0.091Zm-4.866,-0.92l0.112,0.115l0.509,0.85l0.467,0.59l0.112,0.115l0.18,-0.031l0.068,-0.145l0.111,-1.02l-0,-1.136l-0.014,-0.933l0.077,-0.948l-0.361,0.06l-0.116,0.42l-0.228,0.305l-0.318,0.321l-0.456,0.611l-0.117,0.42l-0.069,0.146l0.043,0.26Zm8.994,-3.763l-0.172,0.361l-0.082,0.346l-0.031,0.671l0.039,0.526l0.538,-0.09l-0.292,-1.814Zm-28.337,5.391l0.457,-0.077l-0.112,-0.658l-0.458,0.076l0.113,0.659Zm17.208,-5.022l0.155,0.376l0.411,0.803l0.591,0.773l-0.189,-1.71l-0.195,-0.906l-0.174,-0.776l-0.447,-0.463l-0.276,0.582l-0.026,0.407l0.15,0.914Zm-15.945,3.05l-0.276,0.588l0.456,0.465l0.276,-0.587l-0.456,-0.466Zm-0.305,-4.555l-0.004,1.085l0.02,0.945l-0.002,0.814l0.112,0.658l0.414,-0.61l0.208,-0.712l-0.008,-1.15l-0.099,-1.135l-0.641,0.105Zm11.942,-0.338l-0.163,0.699l0.014,1.209l0.454,-0.075l-0.305,-1.833Zm13.284,-2.171l-0.128,0.354l0.233,0.296l-0.105,-0.65Zm-29.427,3.878l-0.196,0.508l0.355,0.417l0.197,-0.508l-0.356,-0.417Zm18.61,-4.262l0.643,1.642l0.203,0.101l0.159,-0.16l0.076,-0.952l0.097,-0.822l0.156,-1.033l0.289,-0.786l0.048,-0.276l-0.134,-0.248l-0.47,-0.596l-0.363,0.058l-0.322,0.59l-0.301,0.721l-0.116,0.422l-0.073,0.685l0.108,0.654Zm-20.287,3.858l0.368,-0.06l-0.091,-0.529l-0.277,0.589Zm16.832,-2.757l-0.087,-0.525l-0.455,0.074l0.542,0.451Zm-6.92,-0.493l-0.277,0.587l0.455,0.467l0.185,-0.572l-0.363,-0.482Zm-11.682,0.68l-0.082,0.627l0.288,0.566l0.266,-0.657l-0.472,-0.536Zm-5.546,0.905l0.463,-0.076l-0.116,-0.665l-0.463,0.076l0.116,0.665Zm24.417,-3.965l0.364,-0.059l-0.109,-0.657l-0.255,0.716Zm2.064,-2.758l-0.229,0.306l0.338,0.35l0.116,-0.422l-0.225,-0.234Zm1.99,-2.068l-0.138,0.292l-0.117,0.422l0.363,-0.058l0.173,-0.364l0.083,-0.349l-0.364,0.057Zm-6.29,-1.3l-0.232,0.578l-0.301,0.724l0.088,0.527l0.369,-0.6l0.186,-0.57l0.047,-0.278l-0.135,-0.249l-0.022,-0.132Zm-4.586,-1.583l-0.278,0.586l0.456,0.472l0.094,-0.558l-0.272,-0.5Zm-0.548,-0.458l-0.266,0.653l0.467,0.538l0.266,-0.653l-0.467,-0.538Zm-20.146,3.167l-0.327,-0.223l-0.139,0.297l0.233,0.238l0.233,-0.312Z"/><path d="M1368.46,360.471l-0.63,0.506l-0.146,0.794l-0.061,0.777l-0.373,0.456l-0.256,0.05l-0.845,-0.343l-0.268,0.563l0.092,0.62l2.408,2.577l0.073,0.495l0.068,0.749l-0.293,0.694l-0.842,-0.339l-0.898,-0.711l-0.025,-0.759l0.146,-0.794l-1.604,0.766l0.02,1.016l0.234,0.973l-0.877,0.622l-2.008,-1.319l-1.137,-3.735l-0.562,-4.308l-0.279,-3.025l-1.179,0.421l-0.835,0.354l-0.192,-0.091l-0.311,-0.583l-0.292,-0.458l-0.61,0.376l-0.505,0.483l-0.433,0.084l-0.254,-0.208l-0.274,-0.334l-1.609,-6.142l-1.511,-6.059l0.315,-1.16l0.257,-1.539l-0.775,-1.545l-0.777,-1.548l-0.151,-2.444l0.442,-0.925l0.695,-0.45l0.501,-1.131l-1.283,-3.679l-1.053,-3.339l0.063,-1.056l0.551,-0.226l-0.508,-3.311l0.439,-0.076l0.674,0.277l0.653,0.149l-0.097,-0.637l-1.142,-1.57l-1.164,-1.701l0.665,-1.554l0.567,0.166l0.45,0.579l0.537,0.564l0.83,0.121l0.386,-0.131l0.473,-0.145l-1.102,-1.318l-1.016,-1.336l-0.127,-0.241l-0.059,-0.383l0.078,-1.259l0.465,-0.798l0.475,-0.734l0.197,-1.082l-0.268,-3.828l0.025,-0.727l0.289,-0.178l0.526,-2.187l0.667,-0.37l0.647,-0.497l-0.621,-0.821l-1.024,-0.494l1.227,-1.445l0.468,-1.981l0.263,-2.146l0.543,-1.796l0.974,-1.335l1.154,-1.033l1.062,-1.346l0.56,-1.993l1.507,0.43l0.641,-0.228l0.389,-0.716l-0.057,-0.386l-0.536,-0.576l0.867,-1.445l1.719,-1.767l1.844,-1.521l1.244,-0.708l0.581,-0.019l0.668,-0.033l0.419,1.643l0.381,1.384l0.338,0.473l0.3,0.217l0.82,-0.515l0.439,-0.98l0.264,-0.955l0.382,-0.449l1.584,1.074l1.494,1.083l0.634,-0.551l0.159,-1.066l0.106,-1.125l0.494,-0.594l0.262,-0.038l0.525,0.249l0.351,0.274l-0.112,1.71l0.403,0.331l0.49,0.318l0.421,0.458l-0.62,1.263l0.698,1.781l1.247,0.656l0.502,-0.206l1.039,-0.481l1.039,-0.48l0.173,-0.026l0.794,1.24l1.273,2.782l1.202,2.914l0.583,1.65l-0.25,0.104l-0.075,0.72l0.253,0.862l0.32,0.723l0.616,-1.256l1.955,1.751l2.037,2.372l1.747,2.538l1.18,2.238l0.46,0.499l0.545,0.486l-0.008,0.575l-0.127,0.978l-0.17,0.984l-0.051,0.582l0.851,2.724l1.087,2.234l1.016,2.368l0.725,3.109l-0.862,0.655l-0.677,-0.201l-0.762,-0.186l-0.38,0.7l-0.229,1.498l-0.126,1.606l0.009,1.013l0.659,-0.876l0.575,-1.493l1.099,0.442l0.776,0.624l0.017,0.124l-0.051,0.262l-1.511,1.276l-0.33,1.702l-0.236,1.749l-1.182,1.159l0.296,0.579l0.211,0.594l0.203,1.164l0.204,3.371l0.101,1.054l0.505,-0.092l-1.045,-1.954l0.388,-0.323l0.808,-0.714l0.767,-0.706l0.345,-0.314l-0.412,-0.494l-0.497,-0.478l-0.211,-0.594l-0.312,-0.702l-0.084,-0.617l0.27,-0.553l0.826,1.305l0.277,2.032l0.21,2.169l0.52,1.605l0.705,0.438l0.722,0.56l0.083,0.613l-0.135,0.276l-0.151,0.153l-0.067,0.138l-0.411,-0.49l-0.512,0.031l-0.672,0.753l0.831,0.727l0.293,1.202l0.082,1.555l-0.219,1.86l-0.629,1.373l-1.081,-0.047l0.662,1.694l0.46,1.48l-0.377,0.699l-0.854,1.291l-0.979,1.315l-0.754,0.772l0.437,3.173l-0.971,-0.186l-0.588,-1.14l0.086,2.177l-0.265,2.119l-0.822,-0.34l-0.101,-0.106l-0.033,-0.244l0.232,-2.051l-0.774,-1.23l-0.252,0.049l0.104,1.988l-0.113,2.593l-0.306,2.441l-0.558,1.551l-0.636,0.691l-0.602,0.621l-0.401,0.832l0.037,1.183l-3.608,0.727l-1.273,1.387l-0.169,0.034l-0.482,-0.656l-0.417,-0.796l-1.405,2.296l-1.321,2.281l-0.509,-0.525l0.135,-1.475l0.619,-1.132l0.627,-1.071l0.163,-1.291l-0.724,-1.115l-1.296,-0.245l-0.271,-0.072l-0.152,0.156l-0.392,0.899l-0.035,1.269l0.135,1.233l0.097,0.674l-0.996,0.328l-1.358,-0.356l-1.359,-0.357l-0.477,0.918l-0.258,1.821l-0.733,1.855l-1.884,1.145l-0.491,-2.746l-0.814,-2.557l-0.765,-0.733l-0.785,-0.858l-0.797,-3.907l-0.58,-4.216Zm8.266,12.17l0.418,0.482l-0.258,0.621l-0.418,-0.482l0.258,-0.621Zm0.505,-7.934l0.932,-0.185l-1.022,-0.43l0.09,0.615Zm-5.936,-1.103l-0.225,-0.337l-0.201,0.421l0.426,-0.084Zm-6.77,-6.453l-0.22,2.665l-0.183,2.912l1.022,-0.84l0.464,-1.624l0.108,-1.938l-0.112,-1.64l-1.143,-1.443l-1.569,-0.724l0.396,1.462l0.514,0.478l0.467,0.165l0.256,0.527Zm0.48,-14.588l1.746,4.299l3.997,5.258l4.227,4.282l2.566,1.406l3.362,1.243l3.376,-0.408l1.447,-1.417l0.48,-2.742l0.268,-3.018l0.897,-2.254l0.279,-7.895l1.565,-0.605l1.648,-0.619l-0.355,-4.111l-0.391,-4.367l-0.17,0.03l-0.71,1.143l-0.537,2.38l-0.434,2.488l-0.505,1.36l-0.292,-1.151l-0.005,-1.585l-0.034,-0.247l0.05,-0.263l0.597,-1.949l0.597,-1.948l-0.417,-0.497l-0.561,0.036l-0.528,-0.033l-0.334,-0.831l0.173,-1.558l0.773,-0.709l0.789,-0.584l0.227,-1.185l-3.065,0.538l-0.173,-0.608l0.271,-0.557l0.391,-0.323l-0.718,-5.11l0.792,-0.583l0.57,-0.928l-0.609,-0.599l-0.736,-0.259l-0.661,-0.336l-0.38,-0.832l-0.228,-1.306l-0.264,-1.559l-1.115,0.187l-1.222,-3.973l-1.055,-4.012l-0.503,-0.435l-0.053,-0.378l0.243,-2.943l0.679,-2.368l-1.205,-0.714l-1.65,-0.71l-1.548,-0.599l-0.879,-0.251l-0.467,0.462l-0.205,0.422l-0.105,-0.113l-0.952,-0.435l-0.883,-0.576l-0.143,-0.368l0.302,-1.607l-0.074,-0.509l-0.797,0.644l-0.939,-0.635l-1.157,-1.516l-0.139,-0.956l-0.036,-1.169l-0.212,-1.143l-0.577,-0.893l-0.262,0.04l-0.88,1.637l-1.076,3.955l-1.071,5.194l-0.918,5.298l-0.577,4.262l-0.038,2.153l-1.059,0.696l-1.12,1.488l1.846,0.992l-1.303,1.454l-1.629,0.469l0.734,0.722l0.994,0.676l0.609,1.39l0.608,1.388l-1.131,0.194l0.166,0.815l0.235,1.58l0.08,1.736l-0.212,1.267l1.35,9.065l1.534,3.456l0.877,3.824l0.055,0.374l-1.01,-0.84l-1.091,-0.184Zm-6.209,18.908l-0.158,0.416l-0.273,-0.331l0.197,-0.167l0.234,0.082Zm10.592,-2.456l0.342,-0.067l-0.073,-0.495l-0.269,0.562Zm24.832,-5.321l0.737,-0.895l-0.168,-0.281l-0.252,-0.266l-0.504,0.097l0.187,1.345Zm-21.516,2.766l-0.157,0.73l0.356,0.631l0.327,-0.763l-0.526,-0.598Zm-15.965,2.587l0.202,0.154l-0.126,0.346l-0.22,-0.279l0.144,-0.221Zm4.741,-2.717l0.611,0.524l0.621,0.008l-0.112,-0.748l-1.12,0.216Zm36.577,-9.767l1.022,-0.695l1.256,-0.235l-0.712,0.76l-1.064,0.702l-0.502,-0.532Zm-39.638,7.144l0.519,-0.1l-0.095,-0.625l-0.424,0.725Zm36.062,-7.477l-0.16,-0.221l-0.176,0.285l0.244,0.205l0.092,-0.269Zm-37.503,0.918l0.193,0.093l0.086,-0.016l0.571,3.761l0.433,-0.082l0.587,-0.24l0.851,-0.547l0.671,-1.157l-0.297,-0.201l-0.192,-0.093l-0.471,-0.169l-0.489,-0.294l-0.099,-0.949l-0.186,-0.932l-0.538,-0.61l-1.092,-1.024l-1.05,-1.033l-0.478,-0.494l-0.038,-0.252l0.049,-0.268l0.174,-0.615l0.088,-0.598l-0.188,-0.354l-0.343,-0.197l-0.261,0.048l-0.393,0.655l0.12,1.08l0.548,3.004l0.74,3.093l0.333,-1.031l0.671,-0.578Zm34.705,-11.759l-0.169,0.347l-0.379,0.702l-0.337,0.694l-0.109,0.463l1.558,1.232l0.297,0.893l0.415,1.439l0.449,1.367l0.312,0.698l0.195,0.468l0.244,0.207l0.303,-0.309l0.1,-0.522l-0.051,-0.369l-0.337,-0.567l-0.219,-0.338l-0.119,-0.23l-0.085,-0.615l0.068,-0.138l0.151,-0.154l0.202,-0.416l0.034,-0.384l-0.356,-1.008l-0.685,-1.516l-0.796,-1.372l-0.686,-0.572Zm-33.145,7.336l0.711,0.579l0.703,-0.065l-0.285,-1.303l-0.712,-0.58l-0.173,0.032l-0.209,0.685l-0.035,0.652Zm1.432,-6.466l0.454,1.534l0.359,0.904l0.607,-0.111l-0.364,-2.13l-1.169,-0.953l0.113,0.756Zm-2.61,1.637l-0.243,0.757l0.453,0.629l0.243,-0.756l-0.453,-0.63Zm-2.089,0.38l0.252,-0.695l-0.425,-0.441l-0.359,0.584l0.532,0.552Zm37.472,-7.129l0.432,0.619l0.516,-0.029l0.169,-0.03l0.152,-0.154l-0.846,-0.482l-0.423,0.076Zm-30.528,5.223l0.145,-0.219l0.127,-0.346l-0.004,-1.808l-0.09,-1.794l-0.221,-0.284l-0.481,-0.238l-0.155,0.157l0.679,4.532Zm36.22,-8.51l1.163,-0.962l0.933,1.16l0.342,1.893l-0.68,-0.257l-0.487,-0.733l-0.53,-0.727l-0.741,-0.374Zm-39.078,6.697l-0.348,0.063l0.443,0.568l-0.095,-0.631Zm34.939,-6.6l-0.084,0.649l0.255,0.588l0.337,-0.693l-0.508,-0.544Zm-1.523,0.269l0.118,-0.401l0.22,-0.292l-0.069,-0.496l-0.288,-0.203l-0.204,-0.218l0.223,1.61Zm-32.863,1.698l1.184,1.345l-0.378,-2.524l-0.799,0.335l-0.007,0.844Zm33.621,-5.636l-0.229,-0.088l-0.28,0.176l0.391,0.313l0.118,-0.401Zm-4.639,-0.211l0.869,0.612l-0.104,-0.745l-0.765,0.133Zm2.125,-0.369l0.254,-0.68l-0.34,0.059l0.086,0.621Zm2.392,-2.193l-0.093,0.587l0.247,0.529l0.347,-0.631l-0.501,-0.485Zm-41.423,6.421l0.526,-0.092l-0.209,-1.072l-0.609,-0.743l0.292,1.907Zm8.388,-1.466l-0.318,-0.334l-0.204,0.425l0.386,0.192l0.136,-0.283Zm35.087,-5.816l-0.102,-0.744l-0.934,-1.111l-0.492,0.211l1.528,1.644Zm-6.716,-0.758l-0.263,0.619l0.419,0.502l0.177,-0.604l-0.333,-0.517Zm-31.028,3.786l0.9,0.625l-0.114,-0.761l-0.786,0.136Zm30.005,-9.232l0.293,0.846l0.601,1.176l0.754,1.022l0.751,0.382l0.46,-0.141l0.203,-0.736l-0.768,-0.508l0.185,-1.18l2.454,0.735l0.315,-0.245l0.11,-0.464l-0.862,-1.512l-1.424,-0.528l-0.256,0.043l-0.212,0.355l-0.128,0.34l-0.136,-0.041l-0.222,-0.027l-0.155,-0.485l0.17,-0.347l0.153,-0.473l-0.035,-0.25l-0.874,-1.261l-1.335,-0.163l0.113,0.813l0.046,0.952l-0.152,0.793l-0.049,0.904Zm8.84,2.208l-0.204,-0.22l-0.135,0.277l0.339,-0.057Zm-2.122,-0.913l0.425,-0.072l-0.578,-1.048l0.153,1.12Zm-7.483,0.112l-0.349,0.635l0.506,0.489l0.092,-0.59l-0.249,-0.534Zm8.637,-4.378l0.408,0.441l-0.272,0.554l-0.323,-0.455l0.187,-0.54Zm-4.635,-1.403l0.341,-0.056l0.221,-0.611l0.051,-0.584l-0.613,1.251Zm-9.337,-5.28l-0.255,0.686l0.434,0.574l0.169,-0.671l-0.348,-0.589Zm6.378,-1.54l-0.084,0.655l0.258,0.6l0.342,-0.696l-0.516,-0.559Zm-34.815,5.374l0.441,-0.072l-0.098,-0.641l-0.441,0.072l0.098,0.641Zm3.847,-7.969l1.017,2.265l1.484,1.792l-0.033,-0.518l-0.052,-0.646l-0.828,-2.226l-1.588,-0.667Zm-4.756,3.78l0.078,0.514l-0.442,0.071l-0.078,-0.514l0.442,-0.071Zm24.606,-5.609l0.027,1.42l-0.585,0.87l-0.104,-1.344l0.489,-0.919l0.173,-0.027Zm4.602,-1.241l0.777,-0.122l-0.866,-0.51l-0.779,0.122l0.868,0.51Zm-29.03,3.269l0.452,0.586l-0.256,0.699l-0.275,-0.614l0.079,-0.671Zm27.464,-4.964l-0.17,0.673l0.35,0.593l0.342,-0.701l-0.522,-0.565Zm-0.437,-0.58l-0.137,0.28l0.227,0.354l0.119,-0.407l-0.209,-0.227Zm-5.139,-1.801l0.547,1.021l0.872,0.19l0.174,-0.027l-1.593,-1.184Zm6.031,-0.02l0.776,-0.767l-0.006,-1.295l-1.04,0.159l0.27,1.903Zm-9.171,-1.973l1.311,2.275l0.16,-0.741l0.036,-0.982l-0.712,-0.608l-0.795,0.056Zm-4.831,-3.057l-0.463,1.118l0.157,1.678l0.438,-0.067l0.063,-2.628l-0.195,-0.101Zm5.348,-0.153l-0.248,0.756l0.451,0.649l0.248,-0.755l-0.451,-0.65Zm-5.537,-8.479l0.45,0.001l0.455,0.656l-1.144,0.167l-0.113,-0.772l0.352,-0.052Z"/></g></g></svg>