<?xml version="1.0" encoding="UTF-8" standalone="no"?><!DOCTYPE svg PUBLIC "-//W3C//DTD SVG 1.1//EN" "http://www.w3.org/Graphics/SVG/1.1/DTD/svg11.dtd"><svg width="100%" height="100%" viewBox="0 0 1920 1080" version="1.1" xmlns="http://www.w3.org/2000/svg" xmlns:xlink="http://www.w3.org/1999/xlink" xml:space="preserve" xmlns:serif="http://www.serif.com/" style="fill-rule:evenodd;clip-rule:evenodd;stroke-linejoin:round;stroke-miterlimit:2;"><rect x="-55.518" y="-40.179" width="2006.2" height="1150.84" style="fill:#a8c5d3;"/><path d="M1640.63,482.307c1.04,-7.935 8.327,-13.532 16.262,-12.492c7.935,1.04 13.532,8.327 12.492,16.262l-89.794,684.905c-1.04,7.935 -8.327,13.532 -16.262,12.492c-7.935,-1.04 -13.532,-8.327 -12.492,-16.262l89.794,-684.905Z" style="fill:#484848;"/><path d="M1029.62,461.633c1.04,-7.935 8.327,-13.533 16.262,-12.492c7.935,1.04 13.532,8.327 12.492,16.261l-89.794,684.905c-1.04,7.935 -8.327,13.533 -16.262,12.492c-7.935,-1.04 -13.532,-8.326 -12.492,-16.261l89.794,-684.905Z" style="fill:#484848;"/><path d="M1677.33,492.769c62.216,-195.565 16.452,-382.262 -232.713,-552.255l-1470.15,22.921l-58.422,826.596l3.981,40.683l118.782,-20.847l2.016,-58.887c0.114,-3.339 2.423,-6.2 5.663,-7.016c3.239,-0.816 6.628,0.609 8.311,3.495l32.894,56.408l85.451,-18.452l13.446,-66.265c0.63,-3.104 3.141,-5.478 6.276,-5.932c3.134,-0.453 6.216,1.111 7.7,3.909l30.934,58.333l105.676,-21.3l7.749,-57.442c0.434,-3.209 2.878,-5.779 6.062,-6.371c3.184,-0.592 6.389,0.927 7.947,3.766l28.991,52.842l103.084,-21.385l6.707,-59.185c0.379,-3.345 2.941,-6.028 6.265,-6.561c3.325,-0.532 6.597,1.215 8.002,4.275l25.552,55.612l72.421,-15.219l7.585,-52.748c0.469,-3.26 3.009,-5.832 6.263,-6.342c3.253,-0.51 6.459,1.163 7.902,4.123l22.902,46.971l97.946,-18.811l9.506,-49.091c0.607,-3.135 3.133,-5.542 6.293,-5.998c3.161,-0.455 6.264,1.141 7.731,3.978l22.869,44.21l108.828,-19.926l11.1,-52.505c0.66,-3.122 3.224,-5.485 6.389,-5.888c3.166,-0.404 6.24,1.24 7.663,4.096l22.548,45.281l82.28,-17.614l8.225,-50.125c0.541,-3.301 3.203,-5.844 6.525,-6.235c3.322,-0.39 6.502,1.467 7.794,4.552l18.934,45.212l57.98,-12.958l9.176,-48.49c0.603,-3.185 3.185,-5.623 6.399,-6.042c3.215,-0.419 6.336,1.275 7.735,4.199l21.546,45.011l68.674,-14.165l2.452,-50.759c0.162,-3.353 2.533,-6.191 5.804,-6.946c3.272,-0.755 6.646,0.756 8.262,3.699l24.867,45.296l72.18,-15.011l7.71,-50.148c0.523,-3.403 3.296,-6.012 6.724,-6.329c3.428,-0.316 6.631,1.742 7.768,4.991l16.258,46.453l60.015,-10.841l2.407,-54.881c0.156,-3.545 2.774,-6.496 6.275,-7.072c3.501,-0.576 6.927,1.38 8.21,4.688l19.535,50.364l56.712,-11.845l3.089,-49.88c0.213,-3.433 2.733,-6.281 6.114,-6.91c3.381,-0.629 6.757,1.122 8.19,4.249l22.013,48.034l48.273,-10.022l4.662,-59.925c0.276,-3.545 3.004,-6.41 6.531,-6.858c3.528,-0.449 6.886,1.642 8.04,5.006l14.491,42.229Z" style="fill:#ef945e;"/><g><g><g><g><g><path d="M661.302,266.383c-15.66,-32.386 -71.292,-61.251 -76.523,-72.021c-8.319,-17.13 -19.092,-34.973 -28.132,-49.329c-39.696,-63.038 -76.064,-115.738 -126.942,-101.942c-51.552,13.979 -1.092,66.579 39.221,133.878c5.875,9.809 11.381,19.441 13.502,23.152c-12.156,-10.495 -26.037,-21.43 -37.326,-30.214c-31.783,-24.73 -65.372,-51.642 -93.436,-63.79c-22.871,-9.899 -41.679,-10.289 -56.442,5.119c-34.028,35.512 26.747,71.792 85.258,120.5c12.561,10.458 25.082,21.203 35.72,29.986c-42.026,51.856 -41.858,131.75 -5.968,182.919c13.139,18.731 37.886,43.786 83.034,39.612c33.541,-3.101 70.215,-21.705 102.892,-48.671c42.49,-35.064 71.301,-78.556 70.035,-120.201c-0.274,-9.024 0.686,-37.46 -4.893,-48.998Z" style="fill:#bac1df;"/><path d="M374.252,280.176c11.21,-18.247 24.174,-24.639 41.544,-21.349c17.804,3.372 38.097,16.49 59.749,28.755c42.354,23.99 75.14,42.994 47.667,79.559c-28.632,38.107 -58.86,17.348 -97.505,-5.954c-39.569,-23.86 -77.78,-38.157 -51.455,-81.011Z" style="fill:#8f98bc;"/><path d="M598.386,316.805c-4.055,-20.144 -8.88,-42.724 -15.705,-61.414c-9.642,3.356 -20.909,7.541 -31.72,11.347c-55.977,19.701 -98.325,34.46 -88.502,72.125c6.81,26.109 41.744,20.679 51.737,18.728c20.174,-3.937 53.998,-27.388 84.19,-40.786Z" style="fill:#bac1df;"/><path d="M350.591,358.456c8.728,-15.817 19.119,-21.804 33.077,-20.275c14.892,1.631 32.235,11.632 51.027,20.861c35.896,17.629 64.527,31.638 43.151,63.283c-22.139,32.774 -48.69,17.557 -81.908,0.494c-32.21,-16.544 -62.244,-26.068 -48.354,-58.272c0.69,-1.599 1.7,-3.721 3.007,-6.091Z" style="fill:#8f98bc;"/></g><path d="M605.461,590.273l-0.064,0.087c-5.481,7.355 -11.954,14.167 -20.27,19.066c-5.634,3.32 -14.387,6.774 -27.085,9.003c-15.577,2.745 -31.153,5.49 -46.729,8.235c-9.244,1.636 -17.009,-3.923 -16.853,-12.095c0.371,-20.142 3.859,-32.341 5.993,-41.783c23.643,-104.615 32.232,-199.726 28.415,-287.115c-0.398,-8.991 6.969,-17.137 16.657,-18.216c9.747,-1.087 19.495,-2.173 29.242,-3.26c23.334,-2.601 38.678,-1.176 46.726,2.107c8.822,3.598 16.137,9.864 21.264,19.134c-0.147,-6.495 -0.346,-11.913 -0.385,-12.948c-0.321,-8.708 6.825,-16.595 16.155,-17.636c20.793,-2.322 41.585,-4.643 62.378,-6.965c9.036,-1.009 16.762,4.959 17.023,13.479c0.561,18.437 0.583,38.481 -0.116,59.507c-0.295,8.804 -7.991,17.037 -16.998,18.291c-2.734,0.381 -5.467,0.761 -8.201,1.141c-0.4,8.247 -0.956,17.387 -1.599,26.102c2.207,-0.324 4.415,-0.648 6.622,-0.972c8.991,-1.32 15.802,4.886 14.979,14.003c-1.685,18.666 -4.023,39.056 -7.089,60.421c-1.349,9.388 -9.912,18.334 -18.93,19.898c-2.211,0.383 -4.421,0.766 -6.632,1.149c-1.876,11.868 -4.134,24.963 -6.556,37.82c3.561,-0.654 7.121,-1.308 10.682,-1.963c9.015,-1.656 14.92,4.767 12.964,14.477c-4.187,20.772 -9.295,43.616 -15.32,67.682c-0.228,0.908 -1.456,6.878 -7.81,12.276c-0.922,0.783 -5.373,4.611 -11.608,5.679c-20.99,3.617 -41.979,7.235 -62.969,10.853c-9.072,1.574 -15.971,-3.844 -14.823,-11.76c0.418,-2.88 0.854,-5.242 0.937,-5.697Z" style="fill:#efcb52;"/><path d="M863.46,556.559c-3.706,3.966 -8.274,6.856 -12.602,7.781c-10.244,2.188 -20.489,4.375 -30.734,6.563c-2.381,0.508 -4.373,0.349 -5.824,-0.086c-2.266,1.391 -4.556,2.301 -6.557,2.727c-7.376,1.572 -14.753,3.144 -22.129,4.716c-2.496,0.532 -4.621,0.35 -6.197,-0.181c-2.424,1.54 -4.882,2.54 -7.035,2.998c-11.366,2.419 -11.359,2.442 -15.786,3.191c-5.198,0.876 -10.396,1.752 -15.594,2.628c-4.833,0.817 -8.617,-0.372 -10.773,-2.629c-1.516,-1.587 -2.537,-5.697 -1.216,-10.998c25.434,-102.393 41.375,-209.809 38.445,-315.343c-0.241,-8.387 6.652,-15.981 15.585,-16.979c15.485,-1.73 30.97,-3.459 46.455,-5.189c3.182,-0.356 6.272,0.23 8.745,1.44c2.445,-1.818 5.466,-3.027 8.525,-3.369c15.235,-1.701 30.47,-3.403 45.705,-5.104c4.4,-0.492 8.463,0.811 11.33,3.247c2.732,-3.109 6.659,-5.256 10.974,-5.738c11.407,-1.273 22.815,-2.546 34.222,-3.819c4.299,-0.48 8.27,0.797 11.067,3.19c2.684,-3.051 6.533,-5.154 10.753,-5.625c11.159,-1.245 22.318,-2.489 33.477,-3.734c8.114,-0.905 14.946,4.543 15.04,12.322c0.853,74.995 -8.351,148.946 -20.385,213.544c1.79,-0.334 3.579,-0.668 5.369,-1.002c1.012,-0.189 1.82,-0.22 1.979,-0.226c15.223,-63.543 29.049,-138.721 32.951,-215.474c0.375,-7.386 6.574,-13.793 14.262,-14.649c15.561,-1.733 31.122,-3.465 46.683,-5.198c7.402,-0.823 13.779,3.93 14.334,11.005c1.051,13.475 1.855,28.541 2.232,44.325c0.695,-15.648 0.947,-30.526 0.873,-43.768c-0.043,-7.46 6.11,-14.181 13.882,-15.046c8.738,-0.971 17.476,-1.942 26.213,-2.913c3.28,-0.364 6.421,0.434 8.772,1.973c2.395,-2.151 5.501,-3.558 8.636,-3.906c8.572,-0.951 17.145,-1.903 25.717,-2.854c3.874,-0.43 7.418,0.746 9.893,2.933c2.453,-2.777 5.949,-4.69 9.735,-5.11c16.656,-1.844 33.313,-3.689 49.969,-5.534c7.205,-0.797 13.223,4.143 13.192,11.189l-0.009,1.628c2.112,-3.552 4.463,-6.645 6.796,-9.182c6.101,-6.634 14.617,-12.42 26.816,-13.741c11.984,-1.298 21.268,2.116 28.292,8.186c8.356,7.221 11.854,16.19 13.296,24.046c0.893,4.87 1.129,10.693 1.184,12.057c1.266,-11.737 2.243,-23.032 2.925,-32.9c0.451,-6.511 5.925,-12.147 12.551,-12.876c13.445,-1.479 26.889,-2.957 40.333,-4.436c6.398,-0.702 11.813,3.515 12.174,9.746c4.538,79.359 -4.519,165.394 -19.741,248.767c-0.69,3.765 -2.785,8.027 -5.865,11.522c-3.095,3.511 -6.823,5.838 -10.059,6.544c-9.458,2.062 -18.916,4.125 -28.374,6.187c-2.574,0.561 -4.622,0.091 -5.999,-0.772c-2.434,1.957 -4.955,3.16 -7.104,3.628c-9.766,2.128 -19.533,4.256 -29.3,6.384c-3.536,0.771 -6.463,-0.269 -8.096,-2.688c-0.814,-1.205 -1.391,-2.913 -1.476,-4.981l-1.927,2.201c-9.984,11.12 -20.522,18.137 -31.386,20.522c-12.758,2.801 -20.842,-1.66 -25.854,-10.267c-1.021,-1.754 -2.031,-3.899 -2.838,-6.154l-0.621,2.618c-1.997,8.391 -9.631,16.556 -16.887,18.133c-17.382,3.774 -34.763,7.548 -52.145,11.322c-3.923,0.851 -6.934,-0.341 -8.63,-2.743c-3.272,3.601 -7.293,6.197 -11.074,7.016c-9.024,1.956 -18.048,3.911 -27.071,5.866c-3.161,0.685 -5.696,0.022 -7.353,-1.252c-2.917,2.53 -6.089,4.163 -8.869,4.765c-8.772,1.897 -17.543,3.795 -26.315,5.693c-2.554,0.552 -4.64,0.233 -6.109,-0.435c-2.441,1.735 -4.928,2.82 -7.042,3.277c-10.94,2.363 -21.88,4.726 -32.821,7.088c-2.964,0.64 -5.343,0.141 -6.956,-0.816c-2.76,2.16 -5.668,3.54 -8.199,4.086c-11.297,2.434 -22.594,4.869 -33.891,7.303c-2.326,0.501 -4.345,0.313 -5.847,-0.236c-2.308,1.524 -4.639,2.493 -6.663,2.929c-17.955,3.859 -35.91,7.718 -53.865,11.577c-4.366,0.937 -7.721,-0.343 -9.614,-2.938c-3.623,3.9 -8.09,6.736 -12.316,7.642c-11.468,2.456 -22.937,4.913 -34.405,7.369c-4.465,0.956 -7.895,-0.344 -9.829,-2.983Z" style="fill:#efcb52;"/><path d="M546.371,283.641c9.734,-1.13 19.469,-2.26 29.204,-3.39c3.037,-0.353 28.032,-3.256 38.011,0.852c1.321,0.543 10.045,4.134 15.243,15.526c5.267,11.546 6.118,23.924 6.279,26.271c1.433,20.849 -1.17,55.055 -1.53,59.779c-0.721,9.444 -4.284,56.086 -14.794,115.195c-0.925,5.191 -7.344,41.236 -14.374,62.107c-0.804,2.386 -5.912,17.546 -12.218,25.627c-6.281,8.051 -11.92,11.213 -13.011,11.825c-1.6,0.897 -7.083,3.971 -20.438,6.224c-15.818,2.681 -31.635,5.361 -47.453,8.042c1.312,-36.222 42.198,-160.595 35.081,-328.058Zm39.589,48.482c-1.758,103.154 -21.251,195.061 -26.246,218.397c1.019,-0.193 8.407,-1.592 11.971,-9.803c4.321,-9.957 9.354,-38.967 9.975,-42.545c11.429,-65.977 14.4,-117.821 15.003,-128.338c0.125,-2.191 1.142,-20.035 0.556,-27.574c-0.292,-3.753 -1.192,-6.75 -2.706,-8.455c-2.229,-2.511 -7.867,-1.772 -8.553,-1.682Zm73.268,-61.596c20.766,-2.417 41.533,-4.834 62.3,-7.251c0.151,4.772 0.927,29.391 -0.059,59.795c-8.229,1.106 -16.459,2.212 -24.689,3.319c-0.15,4.751 -0.916,29.058 -3.578,59.018c7.695,-1.165 15.389,-2.33 23.084,-3.495c-0.442,4.919 -2.685,29.885 -7.105,60.703c-7.703,1.298 -15.405,2.596 -23.107,3.893c-0.856,5.957 -5.152,35.857 -12.661,72.957c9.083,-1.711 18.167,-3.422 27.25,-5.134c-1.123,5.557 -6.763,33.481 -15.437,68.005c-7.189,1.487 -63.116,10.7 -64.16,10.874c3.268,-19.792 43.835,-160.574 38.162,-322.684Zm233.667,-27.222c2.463,127.001 -24.126,247.829 -37.71,303.702c-10.225,2.134 -20.449,4.268 -30.673,6.402c5.319,-21.757 27.537,-112.887 35.187,-212.478c-13.788,101.569 -41.33,194.152 -47.543,215.054c-7.361,1.533 -14.722,3.066 -22.083,4.599c4.336,-23.045 20.725,-111.253 22.108,-208.075c-7.848,99.026 -29.929,188.979 -35.311,210.822c-10.539,2.189 -21.077,4.379 -31.616,6.569c15.273,-61.684 41.813,-183.514 38.337,-313.854c15.467,-1.803 30.934,-3.605 46.401,-5.408c0.501,4.793 3.041,29.072 3.71,60.929c0.138,6.068 0.839,37.042 -1.212,75.897c1.183,-6.993 12.167,-69.953 14.752,-138.837c15.217,-1.774 30.435,-3.548 45.653,-5.322Zm56.464,-6.582c1.977,126.138 -25.162,247.522 -37.446,298.416c-11.447,2.396 -22.894,4.792 -34.341,7.189c13.42,-55.364 39.86,-175.636 37.603,-301.62c11.394,-1.329 22.789,-2.657 34.184,-3.985Zm55.239,-6.438c1.304,106.353 -19.217,209.241 -23.468,230.725l20.096,-3.85c-1.005,5.056 -6.056,30.479 -13.651,62.095c-17.924,3.765 -35.848,7.53 -53.772,11.295c12.15,-50.461 39.135,-171.267 37.353,-296.368c11.147,-1.299 22.295,-2.598 33.442,-3.897Zm95.805,-11.155c9.393,120.315 -11.405,240.641 -18.6,280.265c-10.923,2.305 -21.847,4.611 -32.77,6.916c5.856,-27.703 9.758,-50.041 10.53,-54.46l-11.549,2.241c-1.067,4.506 -6.452,27.247 -14.113,55.41c-11.279,2.375 -22.557,4.75 -33.836,7.126c11.571,-39.884 47.007,-165.086 53.699,-292.07c15.546,-1.809 31.092,-3.619 46.639,-5.428Zm-32.063,180.236c1.079,-9.262 7.417,-63.714 8.646,-117.987c-5.906,49.306 -17.812,110.559 -19.635,119.937c-0,0 10.989,-1.95 10.989,-1.95Zm132.631,-191.925c-0.024,120.691 -29.415,244.534 -36.528,274.472c-9.012,1.908 -18.023,3.817 -27.034,5.725c8.287,-67.775 9.257,-118.685 9.456,-129.14c-1.586,10.984 -9.114,63.128 -25.654,132.567c-8.759,1.852 -17.518,3.704 -26.277,5.556c8.201,-34.454 37.254,-158.19 36.76,-281.131c8.73,-1.015 17.46,-2.03 26.19,-3.044c1.417,8.973 8.694,55.036 9.837,116.74c7.655,-62.851 7.572,-109.168 7.555,-118.761c8.565,-0.995 17.13,-1.989 25.695,-2.984Zm19.611,-2.276c16.643,-1.929 33.286,-3.858 49.929,-5.788c-0.015,3.984 -0.091,24.103 -1.682,49.658l-19.804,2.683c-0.245,3.982 -1.478,24.048 -4.273,49.343l18.524,-2.852c-0.46,4.126 -2.775,24.86 -6.828,50.937l-18.532,3.193c-0.773,4.99 -4.636,29.9 -10.943,61.35c7.269,-1.406 14.538,-2.811 21.807,-4.217c-0.935,4.65 -5.63,27.991 -12.585,57.221c-17.358,3.683 -34.717,7.366 -52.075,11.05c6.958,-29.29 36.299,-152.731 36.462,-272.578Zm124.938,58.684c-8.86,1.288 -17.721,2.577 -26.581,3.865l1.543,-18.661c0.094,-1.285 0.922,-12.64 0.022,-16.265c-0.639,-2.573 -1.999,-3.213 -3.244,-3.05c-1.762,0.229 -3.183,2.123 -4.201,5.243c-1.359,4.164 -1.916,9.798 -2.262,14.643c-0.107,1.487 -0.922,12.874 -0.041,18.815c0.846,6.178 5.981,13.521 6.605,14.414c1.738,2.499 16.005,23.015 18.464,40.086c2.569,17.842 -3.95,51.82 -4.756,56.022c-0.719,3.747 -5.388,28.08 -11.7,43.853c-5.857,14.637 -14.678,24.462 -16.106,26.051c-10.26,11.428 -19.13,13.332 -20.864,13.704c-1.4,0.3 -11.64,2.498 -17.287,-7.069c-0.813,-1.377 -5.606,-9.496 -4.422,-26.452c1.021,-14.618 6.456,-44.334 7.143,-48.089l3.171,-17.995c9.019,-1.608 18.038,-3.217 27.057,-4.826l-6.076,33.271c-0.299,1.533 -3.097,15.903 -2.911,19.841c0.163,3.433 1.789,3.945 3.085,3.687c2.099,-0.417 4.075,-3.285 5.485,-6.529c0.504,-1.158 2.643,-6.077 4.793,-17.023c0.458,-2.336 4.653,-23.694 3.16,-31.032c-1.559,-7.293 -8.692,-20.495 -9.539,-22.064c-0.906,-1.699 -8.588,-16.118 -10.829,-22.439c-0.48,-1.353 -2.446,-6.897 -3.282,-20.198c-0.765,-12.172 0.716,-30.832 0.926,-33.475c0.277,-3.494 2.445,-30.829 5.689,-42.534c0.615,-2.219 3.742,-13.508 11.082,-21.489c1.304,-1.419 7.365,-8.01 17.71,-9.185c1.538,-0.175 11.309,-1.284 19.092,5.554c0.965,0.848 7.834,6.884 9.92,18.427c2.36,13.073 0.299,37.786 0.03,41.014l-0.876,9.885Zm70.263,-81.25c6.187,109.209 -15.624,226.623 -19.923,250.119c-9.446,2.013 -18.893,4.026 -28.34,6.039c5.285,-24.952 8.873,-44.907 9.585,-48.866l-9.997,1.958c-0.966,4.032 -5.829,24.332 -12.675,49.695c-9.755,2.077 -19.51,4.154 -29.264,6.231c6.479,-22.577 42.239,-145.58 50.309,-260.531c13.435,-1.548 26.87,-3.097 40.305,-4.645Zm-30.481,160.279c1.048,-8.26 7.305,-57.596 9.245,-105.237c-5.751,42.552 -17.068,98.558 -18.761,106.938c-0,-0 9.516,-1.701 9.516,-1.701Z" style="fill:#df5353;"/><path d="M617.521,504.794c-4.796,25.658 -9.734,45.162 -13.111,55.187c-0.726,2.152 -5.911,17.544 -12.218,25.627c-3.277,4.2 -7.564,8.77 -13.011,11.825c-6.297,3.53 -15.166,5.334 -20.438,6.224c-15.818,2.681 -31.635,5.361 -47.453,8.042c0.682,-18.612 3.863,-29.356 6.796,-42.372c3.74,-16.6 7.13,-33.144 9.978,-48.428c12.99,-2.335 25.98,-4.669 38.969,-7.003c-2.136,11.542 -4.66,24.224 -7.319,36.624c3.604,-0.683 8.899,-2.725 11.971,-9.803c1.72,-3.964 4.389,-13.532 7.463,-29.002c12.791,-2.307 25.582,-4.614 38.373,-6.921Zm60.838,-11.008c-1.469,8.045 -3.227,17.194 -4.946,25.68c9.083,-1.711 18.167,-3.422 27.25,-5.134c-4.217,20.877 -9.363,43.83 -15.437,68.005c-9.551,1.976 -9.583,1.786 -64.16,10.874c1.611,-9.723 4.081,-17.226 10.34,-45.705c3.543,-16.117 6.759,-32.15 9.47,-46.933c12.494,-2.262 24.988,-4.525 37.483,-6.787Zm118.059,-21.484c-4.781,26.373 -11.14,56.95 -19.548,91.029c-10.539,2.189 -21.077,4.379 -31.616,6.569c8.522,-34.342 14.965,-65.203 19.807,-91.876c10.452,-1.907 20.905,-3.815 31.357,-5.722Zm40.044,-7.32c-6.251,26.539 -14.229,57.108 -24.306,91.003c-7.361,1.533 -14.722,3.066 -22.083,4.599c6.404,-33.947 10.86,-64.078 13.958,-89.672c10.81,-1.977 21.621,-3.954 32.431,-5.93Zm37.677,-6.903c-4.621,25.514 -10.781,55.393 -18.954,88.928c-10.225,2.134 -20.449,4.268 -30.673,6.402c8.255,-33.721 14.492,-63.872 19.18,-89.751c10.149,-1.86 20.298,-3.719 30.447,-5.579Zm56.334,-10.347c-4.582,25.28 -10.635,54.652 -18.56,87.407c-11.447,2.396 -22.894,4.792 -34.341,7.189c5.457,-22.456 12.445,-53.265 18.796,-88.328c11.368,-2.089 22.737,-4.179 34.105,-6.268Zm55.109,-10.149c-2.11,11.629 -4.08,21.556 -4.452,23.427c6.699,-1.283 13.397,-2.567 20.096,-3.85c-3.751,18.876 -8.313,39.874 -13.651,62.095c-17.924,3.765 -35.848,7.53 -53.772,11.295c7.869,-32.601 13.874,-61.778 18.416,-86.819c11.121,-2.049 22.242,-4.099 33.363,-6.148Zm245.562,-45.496c-1.985,10.708 -3.825,19.876 -4.171,21.602c7.269,-1.406 14.538,-2.811 21.807,-4.217c-3.45,17.155 -7.666,36.549 -12.585,57.221c-17.358,3.683 -34.717,7.366 -52.075,11.05c4.651,-19.544 11.03,-47.828 16.991,-80.072c10.011,-1.861 20.022,-3.723 30.033,-5.584Zm176.365,-32.861c-3.92,29.75 -8.424,55.915 -11.649,73.492c-9.446,2.013 -18.893,4.026 -28.34,6.039c3.719,-17.555 6.943,-34.169 9.585,-48.866c-3.332,0.652 -6.665,1.305 -9.997,1.958c-3.582,14.953 -7.858,31.851 -12.675,49.695c-9.755,2.077 -19.51,4.154 -29.264,6.231c5.371,-18.734 12.885,-45.988 20.291,-76.978c20.683,-3.857 41.366,-7.714 62.049,-11.571Zm-75.388,14.058c-0.081,0.455 -0.498,2.79 -1.052,5.677c-3.678,19.17 -7.806,34.123 -11.7,43.853c-3.984,9.956 -9.478,18.669 -16.106,26.051c-4.62,5.146 -11.88,11.776 -20.864,13.704c-6.522,1.399 -12.975,0.235 -17.287,-7.069c-4.691,-7.946 -4.976,-18.506 -4.422,-26.452c0.786,-11.25 3.335,-26.987 6.335,-43.638c9.022,-1.68 18.044,-3.36 27.066,-5.04c-0.165,0.884 -1.027,5.493 -2.106,11.039c-1.201,6.165 -3.084,16.187 -2.911,19.841c0.045,0.948 0.233,4.254 3.085,3.687c2.971,-0.59 5.106,-5.657 5.485,-6.529c2.608,-5.997 4.325,-14.643 4.793,-17.023c0.321,-1.637 1.423,-7.279 2.259,-12.991c9.142,-1.703 18.284,-3.407 27.425,-5.11Zm-237.8,44.202c-4.01,32.655 -8.801,61.399 -12.518,81.909c-10.923,2.305 -21.847,4.611 -32.77,6.916c4.089,-19.342 7.621,-37.804 10.53,-54.46c-3.85,0.747 -7.699,1.494 -11.549,2.241c-4.017,16.968 -8.766,35.754 -14.113,55.41c-11.279,2.375 -22.557,4.75 -33.836,7.126c9.365,-32.272 16.79,-61.14 22.596,-85.888c23.887,-4.418 47.773,-8.836 71.66,-13.254Zm44.207,-8.194c-6,32.664 -12.459,61.388 -17.317,81.773c-8.759,1.852 -17.518,3.704 -26.277,5.556c4.905,-20.563 11.419,-49.527 17.458,-82.483c8.712,-1.616 17.424,-3.231 26.136,-4.846Zm43.006,-7.984c-5.99,32.467 -12.408,60.932 -17.091,80.605c-9.012,1.908 -18.023,3.817 -27.034,5.725c2.4,-19.579 5.438,-47.619 7.439,-79.519c12.228,-2.27 24.457,-4.54 36.686,-6.811Z" style="fill:#4972a2;"/></g></g></g></g><path d="M350.54,1126.11c-12.925,47.286 -13.969,97.558 -0.725,147.065c43.229,161.593 222.419,254.239 399.902,206.759c177.484,-47.48 286.482,-217.221 243.253,-378.814c-19.632,-73.385 -67.305,-132.551 -130.125,-170.831l-41.962,-154.507l-74.029,111.282c-49.064,-8.516 -101.499,-6.69 -153.787,7.298c-62.943,16.839 -117.273,49.054 -159.254,90.83l-138.527,-68.804l55.254,209.722Z" style="fill:#f2cec7;"/><path d="M1668.48,513.175l-8.062,-23.492l-2.288,29.414c-0.133,1.708 -0.837,3.266 -1.934,4.47c-1.038,1.14 -2.429,1.961 -4.019,2.291l-59.642,12.383c-2.338,0.485 -4.694,-0.177 -6.417,-1.659c-0.8,-0.688 -1.463,-1.552 -1.925,-2.56l-12.048,-26.289l-1.595,25.749c-0.208,3.371 -2.645,6.187 -5.952,6.877l-68.536,14.315c-1.607,0.336 -3.218,0.129 -4.625,-0.508c-1.739,-0.787 -3.168,-2.231 -3.901,-4.121l-8.915,-22.985l-1.105,25.176c-0.083,1.897 -0.871,3.625 -2.125,4.91c-1.06,1.087 -2.454,1.857 -4.034,2.142l-72.21,13.043c-1.326,0.24 -2.644,0.114 -3.842,-0.312c-2.079,-0.739 -3.797,-2.383 -4.57,-4.591l-8.446,-24.133l-3.935,25.594c-0.476,3.094 -2.822,5.566 -5.886,6.203l-82.706,17.2c-1.12,0.233 -2.247,0.203 -3.308,-0.057c-1.996,-0.488 -3.758,-1.789 -4.794,-3.676l-14.753,-26.874l-1.451,30.034c-0.089,1.843 -0.844,3.526 -2.046,4.796c-1.028,1.086 -2.384,1.869 -3.93,2.188l-80.116,16.526c-2.441,0.503 -4.904,-0.244 -6.643,-1.872c-0.665,-0.623 -1.225,-1.375 -1.637,-2.236l-14.2,-29.665l-5.839,30.856c-0.557,2.942 -2.811,5.271 -5.734,5.925l-68.924,15.403c-2.172,0.486 -4.366,-0.026 -6.063,-1.265c-1.073,-0.784 -1.947,-1.859 -2.49,-3.157l-11.27,-26.911l-4.824,29.399c-0.305,1.857 -1.285,3.485 -2.688,4.619c-0.896,0.725 -1.966,1.248 -3.143,1.5l-92.973,19.903c-2.637,0.564 -5.311,-0.334 -7.074,-2.238c-0.476,-0.514 -0.885,-1.101 -1.21,-1.753l-15.544,-31.215l-7.687,36.359c-0.088,0.42 -0.211,0.826 -0.366,1.216c-0.942,2.375 -3.05,4.139 -5.621,4.61l-119.236,21.832c-2.447,0.448 -4.899,-0.35 -6.607,-2.027c-0.556,-0.546 -1.033,-1.185 -1.405,-1.905l-15.5,-29.964l-6.366,32.876c-0.27,1.399 -0.924,2.656 -1.849,3.659c-1.065,1.154 -2.488,1.971 -4.099,2.28l-108.569,20.852c-2.009,0.386 -4.023,-0.07 -5.631,-1.162c-1.056,-0.717 -1.936,-1.709 -2.525,-2.916l-14.726,-30.203l-4.859,33.792c-0.203,1.412 -0.796,2.698 -1.671,3.744c-1.056,1.262 -2.524,2.173 -4.211,2.528l-83.413,17.528c-2.724,0.573 -5.476,-0.414 -7.223,-2.441c-0.451,-0.523 -0.835,-1.115 -1.135,-1.767l-16.814,-36.596l-4.288,37.838c-0.242,2.135 -1.375,4.007 -3.036,5.218c-0.844,0.615 -1.824,1.06 -2.893,1.282l-113.832,23.614c-2.482,0.515 -4.999,-0.263 -6.75,-1.964c-0.526,-0.511 -0.983,-1.105 -1.349,-1.772l-20.698,-37.726l-5.417,40.153c-0.274,2.031 -1.354,3.808 -2.92,4.988c-0.877,0.661 -1.906,1.135 -3.031,1.361l-116.398,23.461c-2.226,0.448 -4.473,-0.141 -6.168,-1.496c-0.783,-0.626 -1.448,-1.416 -1.94,-2.343l-23.744,-44.775l-10.257,50.546c-0.278,1.369 -0.923,2.6 -1.83,3.586c-1.028,1.117 -2.391,1.92 -3.937,2.254l-95.563,20.636c-2.95,0.636 -5.969,-0.558 -7.693,-2.982c-0.131,-0.183 -0.254,-0.374 -0.369,-0.571l-22.55,-38.67l-1.335,39.004c-0.069,2.02 -0.938,3.855 -2.32,5.173c-1.043,0.994 -2.377,1.694 -3.879,1.958l-132.746,23.297c-0.876,0.154 -1.762,0.149 -2.619,-0.004c-1.156,-0.207 -2.26,-0.685 -3.215,-1.411c-1.663,-1.263 -2.724,-3.163 -2.927,-5.241l-5.2,-53.151c-0.403,-4.12 2.614,-7.792 6.734,-8.195c4.119,-0.403 7.791,2.615 8.194,6.734l4.413,45.095l118.782,-20.847l2.016,-58.887c0.114,-3.339 2.423,-6.2 5.663,-7.016c3.239,-0.816 6.628,0.609 8.311,3.495l32.894,56.408l85.451,-18.452l13.446,-66.265c0.63,-3.104 3.141,-5.478 6.276,-5.932c3.134,-0.453 6.216,1.111 7.7,3.909l30.934,58.333l105.676,-21.3l7.749,-57.442c0.434,-3.209 2.878,-5.779 6.062,-6.371c3.184,-0.592 6.389,0.927 7.947,3.766l28.991,52.842l103.084,-21.385l6.707,-59.185c0.379,-3.345 2.941,-6.028 6.265,-6.561c3.325,-0.532 6.597,1.215 8.002,4.275l25.552,55.612l72.421,-15.219l7.585,-52.748c0.469,-3.26 3.009,-5.832 6.263,-6.342c3.253,-0.51 6.459,1.163 7.902,4.123l22.902,46.971l97.946,-18.811l9.506,-49.091c0.607,-3.135 3.133,-5.542 6.293,-5.998c3.161,-0.455 6.264,1.141 7.731,3.978l22.869,44.21l108.828,-19.926l11.1,-52.505c0.66,-3.122 3.224,-5.485 6.389,-5.888c3.166,-0.404 6.24,1.24 7.663,4.096l22.548,45.281l82.28,-17.614l8.225,-50.125c0.541,-3.301 3.203,-5.844 6.525,-6.235c3.322,-0.39 6.502,1.467 7.794,4.552l18.934,45.212l57.98,-12.958l9.176,-48.49c0.603,-3.185 3.185,-5.623 6.399,-6.042c3.215,-0.419 6.336,1.275 7.735,4.199l21.546,45.011l68.674,-14.165l2.452,-50.759c0.162,-3.353 2.533,-6.191 5.804,-6.946c3.272,-0.755 6.646,0.756 8.262,3.699l24.867,45.296l72.18,-15.011l7.71,-50.148c0.523,-3.403 3.296,-6.012 6.724,-6.329c3.428,-0.316 6.631,1.742 7.768,4.991l16.258,46.453l60.015,-10.841l2.407,-54.881c0.156,-3.545 2.774,-6.496 6.275,-7.072c3.501,-0.576 6.927,1.38 8.21,4.688l19.535,50.364l56.712,-11.845l3.089,-49.88c0.213,-3.433 2.733,-6.281 6.114,-6.91c3.381,-0.629 6.757,1.122 8.19,4.249l22.013,48.034l48.273,-10.022l4.662,-59.925c0.276,-3.545 3.004,-6.41 6.531,-6.858c3.528,-0.449 6.886,1.642 8.04,5.006l15.143,44.129c-2.342,4.572 -4.638,10.668 -9.508,18.506Z" style="fill:#ffc600;"/></svg>