<?xml version="1.0" encoding="iso-8859-1"?>
<!-- Uploaded to: SVG Repo, www.svgrepo.com, Generator: SVG Repo Mixer Tools -->
<svg height="800px" width="800px" version="1.1" id="Layer_1" xmlns="http://www.w3.org/2000/svg" xmlns:xlink="http://www.w3.org/1999/xlink"
	 viewBox="0 0 512 512" xml:space="preserve">
<path style="fill:#FF7C6E;" d="M261.332,0L261.332,0c96.855,0,170.306,87.444,153.71,182.993l-8.031,46.239
	c-3.076,17.712-3.076,35.823,0,53.535l8.031,46.239C431.637,424.556,358.186,512,261.333,512l0,0
	c-73.394,0-136.865-51.223-152.457-123.038l0,0c-19.022-87.618-19.022-178.305,0-265.923l0,0C124.466,51.223,187.937,0,261.332,0z"
	/>
<path style="fill:#FF6554;" d="M297.587,507.773c-11.599,2.754-23.728,4.227-36.254,4.227l0,0
	c-73.394,0-136.865-51.223-152.457-123.038l0,0c-19.022-87.618-19.022-178.305,0-265.923l0,0C124.466,51.223,187.937,0,261.332,0
	l0,0c12.526,0,24.655,1.474,36.254,4.227c-57.341,13.637-103.401,59.105-116.363,118.811l0,0
	c-19.022,87.618-19.022,178.305,0,265.923l0,0C194.186,448.668,240.246,494.136,297.587,507.773z"/>
<path style="fill:#FFA69F;" d="M333.913,72.348c0,15.368-12.458,27.826-27.826,27.826s-27.826-12.458-27.826-27.826
	s12.458-27.826,27.826-27.826S333.913,56.98,333.913,72.348z M350.609,111.304c-9.22,0-16.696,7.475-16.696,16.696
	s7.475,16.696,16.696,16.696c9.22,0,16.696-7.475,16.696-16.696S359.829,111.304,350.609,111.304z"/>
</svg>