<?xml version="1.0" encoding="UTF-8" standalone="no"?><!DOCTYPE svg PUBLIC "-//W3C//DTD SVG 1.1//EN" "http://www.w3.org/Graphics/SVG/1.1/DTD/svg11.dtd"><svg width="100%" height="100%" viewBox="0 0 800 800" version="1.1" xmlns="http://www.w3.org/2000/svg" xmlns:xlink="http://www.w3.org/1999/xlink" xml:space="preserve" xmlns:serif="http://www.serif.com/" style="fill-rule:evenodd;clip-rule:evenodd;stroke-linejoin:round;stroke-miterlimit:2;"><g transform="matrix(6.55133,0,0,6.55738,-1549.67,-2360.66)"><path d="M343.3,362.714L343.3,479.286C343.3,480.784 342.083,482 340.583,482L254.617,482C253.117,482 251.9,480.784 251.9,479.286L251.9,362.714C251.9,361.216 253.117,360 254.617,360L340.583,360C342.083,360 343.3,361.216 343.3,362.714Z" style="fill:rgb(250,193,186);"/><ellipse cx="272.3" cy="416.7" rx="6.7" ry="9.6" style="fill:rgb(200,157,163);"/><ellipse cx="318.7" cy="458" rx="7.7" ry="9.2" style="fill:rgb(200,157,163);"/><ellipse cx="314.1" cy="379.3" rx="7.7" ry="9.3" style="fill:rgb(200,157,163);"/><ellipse cx="278.9" cy="458" rx="3.6" ry="5" style="fill:rgb(251,234,219);"/><ellipse cx="328" cy="416.7" rx="5.4" ry="6.5" style="fill:rgb(251,234,219);"/></g></svg>